<mxfile host="app.diagrams.net" modified="2024-04-16T05:20:45.790Z" agent="Mozilla/5.0 (Windows NT 10.0; Win64; x64) AppleWebKit/537.36 (KHTML, like Gecko) Chrome/123.0.0.0 Safari/537.36" etag="UWFzD7LvnGK1Rua-OFI0" version="24.2.5" type="github" pages="2">
  <diagram name="Page-1" id="2YBvvXClWsGukQMizWep">
    <mxGraphModel dx="1221" dy="596" grid="1" gridSize="10" guides="1" tooltips="1" connect="1" arrows="1" fold="1" page="1" pageScale="1" pageWidth="850" pageHeight="1100" math="0" shadow="0">
      <root>
        <mxCell id="0" />
        <mxCell id="1" parent="0" />
        <mxCell id="aM9ryv3xv72pqoxQDRHE-1" value=":Object" style="shape=umlLifeline;perimeter=lifelinePerimeter;whiteSpace=wrap;html=1;container=0;dropTarget=0;collapsible=0;recursiveResize=0;outlineConnect=0;portConstraint=eastwest;newEdgeStyle={&quot;edgeStyle&quot;:&quot;elbowEdgeStyle&quot;,&quot;elbow&quot;:&quot;vertical&quot;,&quot;curved&quot;:0,&quot;rounded&quot;:0};" parent="1" vertex="1">
          <mxGeometry x="40" y="40" width="100" height="300" as="geometry" />
        </mxCell>
        <mxCell id="aM9ryv3xv72pqoxQDRHE-5" value=":Object" style="shape=umlLifeline;perimeter=lifelinePerimeter;whiteSpace=wrap;html=1;container=0;dropTarget=0;collapsible=0;recursiveResize=0;outlineConnect=0;portConstraint=eastwest;newEdgeStyle={&quot;edgeStyle&quot;:&quot;elbowEdgeStyle&quot;,&quot;elbow&quot;:&quot;vertical&quot;,&quot;curved&quot;:0,&quot;rounded&quot;:0};" parent="1" vertex="1">
          <mxGeometry x="220" y="40" width="100" height="80" as="geometry" />
        </mxCell>
        <mxCell id="LYMxHVTGIxemwVdhUrfz-1" value="NoSQL" style="shape=cylinder3;whiteSpace=wrap;html=1;boundedLbl=1;backgroundOutline=1;size=15;" vertex="1" parent="1">
          <mxGeometry x="240" y="115" width="60" height="80" as="geometry" />
        </mxCell>
        <mxCell id="LYMxHVTGIxemwVdhUrfz-2" value="NoSQL" style="shape=cylinder3;whiteSpace=wrap;html=1;boundedLbl=1;backgroundOutline=1;size=15;" vertex="1" parent="1">
          <mxGeometry x="750" y="40" width="60" height="80" as="geometry" />
        </mxCell>
        <mxCell id="LYMxHVTGIxemwVdhUrfz-3" value="SQL" style="shape=cylinder3;whiteSpace=wrap;html=1;boundedLbl=1;backgroundOutline=1;size=15;" vertex="1" parent="1">
          <mxGeometry x="750" y="150" width="60" height="80" as="geometry" />
        </mxCell>
      </root>
    </mxGraphModel>
  </diagram>
  <diagram id="1jF-RS51OQadM6Jc0b3w" name="Page-2">
    <mxGraphModel dx="1221" dy="596" grid="1" gridSize="10" guides="1" tooltips="1" connect="1" arrows="1" fold="1" page="1" pageScale="1" pageWidth="850" pageHeight="1100" math="0" shadow="0">
      <root>
        <mxCell id="0" />
        <mxCell id="1" parent="0" />
        <mxCell id="EBVaZ5hd_3GFT1o1tJoB-1" value="" style="shape=image;verticalLabelPosition=bottom;labelBackgroundColor=default;verticalAlign=top;aspect=fixed;imageAspect=0;image=data:image/png,iVBORw0KGgoAAAANSUhEUgAAAwkAAAESCAYAAAC2FZn9AAAAAXNSR0IArs4c6QAAAARnQU1BAACxjwv8YQUAAAAJcEhZcwAAFiUAABYlAUlSJPAAAP+lSURBVHhe7H0FoB3HdfZ3mR8z6YnZkmXLDDJzErtpGk4DbZNS0jRJ0zCDIdRQg4VA0zCaUbbMtiSL6T09ZrzvMvzfN3uvKLabOM5vOZ5Puu/u3Z2dOXPmzJnvzM7uuoaHh4uwsLCwsLCwsLCwsLAowV36trCwsLCwsLCwsLCwMLBBgoWFhYWFhYWFhYXFUbBBgoWFhYWFhYWFhYXFUbBBgoWFhYWFhYWFhYXFUbBBgoWFhYWFhYWFhYXFUbBBgoWFhYWFhYWFhYXFUbBBgoWFhYWFhYWFhYXFUbBBgoWFhYWFhYWFhYXFUbBBgoWFhYWFhYWFhYXFUbBBgoWFhYWFhYWFhYXFUbBBgoWFhYWFhYWFhYXFUbBBgoWFhYWFhYWFhYXFUbBBgoWFhYWFhYWFhYXFUbBBgoWFhYWFhYWFhYXFUbBBgoWFhYWFhYWFhYXFUbBBgoWFhYWFhYWFhYXFUbBBgoWFhYWFhYWFhYXFUbBBgoWFhYWFhYWFhYXFUbBBgoWFhYWFhYWFhYXFUbBBgoWFhYWFhYWFhYXFUbBBgoWFhYWFhYWFhYXFUbBBgoWFhYWFhYWFhYXFUbBBwlOiCBfyT/nR8ecXXEd8jg8UaX4F/i1w2/kUUSzyY44+FZ5/7VKWSxKW5XMXXaX9qrmFhcVzj6N9y7PtS5Sri/39cN7Hn6/604DLaFaeVd/ytY7vfWo4x4+fsfH5g9+tzxRK/yyef3ANDw9bT/WUeDrVPN8cyrHyHg/NLhk0bDJccHMApTM3UhXlbP4vp/1U8h9/7SLnKVcqyRQWiSYIGry0XXQdfzJbWLxwUfYtf3i/VE6aBnHzn7q5p5RnXl6P/d/i2YUmngRDWF3SuTMZUzBDylPrW+c53tgZj2zL/D44cix2NKfJPun+yaH9mhB82iaxOE5gg4SngezXRfL6pJCFE4XC88PS1WHzBbnAIjysU6F4/ET12XwRo4kcUhQp5nOhNsgh1f3kF7kO7/9tsy2atjjUNMcVnEHLixxlc7sK8GqPEdR6SQuL5xoOmTymP8qX0Kf8Ie7E5OjyIE8fNxjPYSSTZv/3oi3io5974fV+TQaVFSrN/rF8da5QwFQGmM7k6WsLqAn5zNjyVBpXvOZmUKGxyENbcLsk2x9JuD8BHO4v5ofzTTz1GFze4ZylUfx5Qp1e8LBBwlE4bMg5Etb+eB4TqbyZYygiVzrmQF1E6auCHrTQ4fs8z6W1O2XL6ZronQ7OzMqzp5pZlKIbfbN5PNg9h2whh9PnxzC/ysfjz1zmw5r6Q6ArCG4MzRXxlQcHsW88hfM6K/DnJ1Qj5mcJRc+hdIJ03s+BdiiRZZt4zF61jeqrf1VBL1qiPgTdBdZZR/8w6Z49qB0K2DNRwON9cfh8bpw6L4r2iId29nQzLn8aOGQrahP2E82qyjYLxv6cYPVPWwMWxxMO2aPZoj3SB5FLYv90Bt1zGaTo6v00yE76koX0kwGvY69Pwnx+B7gwkwbu6J7Fb/ZNY9dkElEypNeva8Q1yypheCtRLGr+2mzxI2/xu03iqA7OWPR/QWmem16mmlCDJOAu9M7mMJ3NI0A/sKDCixB94TNS61NA4x7cRZZRxP/umMLGg7MIe4p42ZoaXNBe4UzqHYKjD7nfJIV84MAseqbSWFIXwIltUQQpo9rFEGIGN44JqDZPJfAfpmMju7PBOkhjLItBizxmQft0yPx9biF9TZIX9cxkqE8v90hHkrOICA26pSKECHdLX5qMNP6eaZL5Ah7tS6B7IoXlDSGc1BbjuRq5n2m9jjzrqdrkyfBMz3thwgYJR8ExdF16nEgX8dXHxnFfzxz8PFJgkFAsHJ7dLtIRFTiaXLK0Gq+hA6oJk7Q+Z5p0jF4OcIwDUipbME64OuTidxFzHPT+84lJfPOuPqTmZvH2ixfir05rNrNbzy2obzrfrqkC/uln3XikvxevXLsU/3JePWpDGjzKnZnOktserxff3jKG720bg9/tg6sgx812cOXFPdEc8mFRrR/nLanG+oaAOac89D6nMDK68Mn7h/H9+wbgZZt8+IpFuGZ5NXK53HMSJEgr+mgAks07v/44MOW4PEiSiY2lFeC5OIi4EQ34OBaqbQ+XLU38/9eGxQsJh5ekkMCw7+2ZzOOXO0bx8FASu6YSyGSc2eTldZU4tz2Mi5dWMFjgKGCWQf5+0BTTzXun8Onbe3AgkUK+kENDwY9/3NCBV51cj9l0HolcgcFCEVUhkmY6Mv0TqfpdfJdq4vTfp4dT5+emZ0kHXvrorskCPnffIHZNpxHzuvCxC9uxot7/rI5DJX6NIY6D/7yxH3duGaROA/jXS+bhTSsqqf8jy3L04XG5MRTP4fXf34nuoXGsXdyID100n8FCEBkGNGMkxBmeF2FAU+lnXQ7TgGOgvP8wHRfoDmcyBUzn1GIFVPu9LNdjggRR7ePBN+pi0L0k+5+5j3wCATNdV5TgbOk6yrqwNoxT5sVwVkfUBGgaoz0eD7aOpvCJWw5i64FhnL+8FR+9shNVAdbyGRMnRxsaw3TH3++GYzX47Nnenyqe0txf6NCykP0TOTw+MIoH+obwSM8Qtnf3mc8TBwewpXsAew/2YnBsDhxTnh1b+x07y29zSp7HiD3J4OB/HhrEu3+2D//5wBDG5kjI3B5DQunbIHqWYbCjpS6m6Y8p75mQ1aK8sjnPcQZPCR17kuOKA8wlfSOSI+tvg/tK+4dnCtjSN4qH+kcZVLBNDvZjZ/cQHu8exK+2H8Dn792Hd97ch009GbgUORwLymBmhn6Huv6u6f5PcBDSJ8+8Ugwuiy4v28Dpes9G9k+Lp2gTFavZH7Xfsz30HKs3bcmN7x5O4OO/PoD3/vIAbt85a8iRiBqFPJSufNYfXS8WL1iIVOvjZl/smszgo7d14zP37sdde3sxNT6D4kwS8Zk47t27H9dv7MLnGdj3zdCflM4/ErLTp7JV7Z5I5rGxew7ds3H4vSH85bpOfP5lK3DpimrEs0V8h376XT/dg3+/tw+DMylzlnqFc/bvAidtsahJFfmU0m/T40of7X8a1yz8Tv3tKXz4/wVzH1bBjccGk7i3awZb+wZxX3c/NvXOmTHrdyn7d/XDGkfKwVWW21mPGzkS1JK3NfmYJU9GTyVoH788rFvSXaCf5gjJHZrAGk4wsLm1F++nz/rlE5PgkMq05fOf7PPMoSrG6RN/vmMS77uxHx/6VTc2D8RJsCmfGSCPDxSpl6kksIuBwsPkRw+TGz1GTvT4wWHcsqcH/75pJ/711oP4+uMjmMiwXkb56m+sh8uDVDHLduK2CYif3J6cMaT04ymg5WH6CIeuwjzHkMzHjn/Pd3je+c53fqi0fdzAudTqKFkzKjIlOSdzf4Cc1B+xAZycXUjQgd/TPYtdkwkUvD687KQFePMp7bhgaTMuXtaES5e24CJGw6fPr0RHpRc+OiNjGEfIV9480miMMZf2CSJpMnQ58zx3yeSdI875RZejC1Vd5zjxujTiBosswZn5mqMj/v6jQ7h11w4EAlU4a1EV6iJ+nlfAosoA1rZW4rLVLdiwqBIhr9M9ReyN02ReKk8TLRLNyGEEod41AJV/84++nTop8OCHJ3nd6rDmBIPD9RQpZ90O5e0y90SU1y6qYlPJAm7ZPYOB+CxOaKrFmZ1hhI9YP2qGdOahOm7qT+De/inAH8ZFy9rwzjM6ccHiBqxsqcUsAhjO+zEyNoB0MYgTWyKoDGqQNNmYsgUji9Gfo1fn+GGy7PyVvNQ3D7pIJlQ3nV7Ow0GpXen4yr+P/Dg6ctJLn0trI1jfUYUXr2rGqW0RhFy6odnRTzmtPipXspRONTCb3OHcx0DZTQB0OIHTjuV8TFKzrfSO7kwi04d0zFBzZqX6g/bBvdzHvdznBH50Dgza8tylplKaskMWjrRjffRDf5W5MzMke9COEqiincNZfOWevdgzNoz5jXVY1xFFlAO48pJ+zVDOc3L8oyVyJm/qXgLI3o0YR+Zp8byH7NZpU/4p2eeRMG3ubD5rkJ3LL83Qx3936yR+uLkP6WAIK1qa8a5z5+NtZ7bhpI567JwtYjAxi5HxHKoiAaxuCsOn/iPbVw9lf8txO1+y1WNEN320fzaHX+2dxYGJKXRWxHDdZfOwpjlIv+Q1y5C+98gw7tqxFVl3DTYsrkVT1OtUmD7F+BwqwPQD2r8+ZWKkPY7HcvY7XZP71F14vrNfGyXfqw5IAeXzBOc6Ralflf2GcuC3fEMZzj5nv8YdtYeyePJ7w5y8j4XKnCH5/eLjw3h0dBaFQMj4pHGyeC0vrQ7qKnw5n1IekucImYzf43+1m9KYfzxofLRJ44yHGlc0TsT5fXNPHF3Ds/CS9J+3qAInNoTNWKUr7pJJ5xswby17WjevEqfOb8SLVtRiQbXP5DOSAL505wC2DHajobYOZ3TGEPEfHlMEyefoWQI6unGydmR1/uonfTSFlG+T7g/5bLWN0kjuHGgvk/jltoPoHpvEGQuasLIpxDROqzj1PiQ4/3Fb5bLuxi5Kx4w+D+0rlU/oqo5KN32Av6U3oaxHY3NmjyO9UP5dhmymazKNW/ZPY44HlzY24e/PWIiLl9QhEqtET8qP8ZkJ7BguIBxxY0Wd3/SbKr8LK5oqcObiFhMkt0Tk50uZMlfJrp8aP8yIRNGOLNuRmXt4XH1P/c5cP1A6wzN4TB8eVz6Hfpf2Ofmr7ZSL9jtp+GXS57WfhZa6iIHJRxtKd+ijHQ6P0MFDvMfonHUyKxxK+7XBbyUVSimfVzgugwTTxDJubhtfRCWLAKcyzvo231Nf7/uD4TQig4RcEbcfnMHusbiJnF+zrhl/sTSGhTT4pXUBLKv1YVlDAM0xD7JMu3skg66xlAkuIkEfvBwg1AEOTGSxbzyDodksBw03onRGByezTJ/CeKqAHOvWN5PH/b2zeKh/DoxJEKITkiOSMOq6MuypdAG7xjJ4sGcOD/Yn0TedNvmH2PECzHdgNoNH+9PYNEA5UllUV1ajMRrk+UXEvEUk6aQTORf81Gs04ELYr7wdg6doOEAZN/WmmHcc/VNZZGncQZ8HQQUT3JZj2zeZwZ7RNMZSOeNsuqezuJ/yPD6QxCSJftTvQVhLFAm1Xp560816u0YoV28CjwwmMTxLYsxCJbdfDpJppnnuTU8TJJS3FMzcR8e/qXcCLm8Qly2rwV+ursCyOh/W0JEuqQ1j+0ACQ5ksJrJunNzG9tIyAeogTyfSy7K3DKWo6zi2jyZZbh5+rxcx6tpxkSyF/5NU7O7RDDayrCeGU+b+lIjfjz3c7qZzpEFQh16zVGDncI7tmTJrmmMc7ETGRRz2jqfZ7lkMx7NmAApTlxNsF7MUjMS3yp/nfpe5H0NlaX2nbtye4J+7D8ximGkbIz62rWZeCthPm3m4j+3TN2dmP9OUMcB8KQadkRvpXB7bBxOUL4dU3o0kPdh26v2eg3GS8hTr5UGUxGSW9rlrOImN3P8Ey02wT1UxE7+P1aLs0oQGnuk0040lzXK7R6nTQZIduehwwGOuSsn2dLP5Htp971QOPtZPpOcB6uzB3jn0zmS5z0ub0M3aRcqQxoMDaWwcziDL/W3VUVSpn7BNY7RHaX+I+W1l+9zLMh8bnMMYbVo9PsAyA0ynf/pv8acCNSZbmH6gyIA0mXexf6i3uuA1kxj0O+y3zkjwbEKW5EF/ooBvbh/HARquj9HwO89sx1+sjKIp5sWSer+ZYNnKPpdzexGM+nE2A/uw8YfsH+w3u2jT8n8P0v8N0t7VgQL0gVrqKakPct8D9NX39CXoB+ZQGQpjbXMM8XQWYyx7J8cATXr0pHOIxqrQQV/l59g2l80bf9xLP5xjPhH2D03CDCXobzRu0KfEQuyz5JZ51qN7NEu/nKI/KqIi6OL46KU/4H722c2UbRP75M7hNOIppqb8miDSuCr+MkifuGuIPl1T5PTLu0YTuG3/LHXk4dgW4D4tvS2YMWwTfcZm+VeWL0JVqbLYL9ViTls+eTvpiU576Zd+8PgoRpJp+P1RU3iOY936jgrMqxAx47lsa40N/ZRpJ+szTJlSPPcA9bCpaxZz9LG1YcdnTNHh7qR/e9DMZic5vpJdM4sQlSIdUkTcyHp3M0jw0Yee2lGFCNtlI/N5nH5yirqQD1d7Smr5+PE4RzXWV365gj7nIP3sZo5Zd3FMnOb+5qoK1PAcBRhRHlcQmKbN9tFPPUK9yPftFgfIFCmDM447MQ31zQ02H7qnmJbj/P0cD/dwfNDV1GCAbcw2m+K4uo11un8whT2zpMReH5Y0VKOK9ZFMabbDdp6r+zo0kaO6etiQHIawi+NN11gO40kGtJRRHnU3+YL4xwTlmaWcsoVHB2YRpFy6kVv9a3guh+0c1yTPFn5PckwsUl8ayxxyq5DgaKje+1jeLQxm5op5BjExvGVdLc5qC+PcjkosIDd6YrjINhlHKu2jzUfRzOA3Sbue1CDHtq+i3qtpw7p/RMY4TRmdMY72yvFD9p/OuWkrGuOkx3IQ4MYM0+4aS+Ce7jmO5wnM0e51x2gPz9/PsVhtUhXiWMp0O2hHPRyfZliP4UQRD9CG1V71FV7TT8dZX+npAdb/IfbFg1Np03eDpA0ae1Wmxsy97HfdtAeNq1pl8lh/Cvf1JnGA+9S2kZDH8Kutulqm/saxNcW0URItc2+L0aK0+fzDcXlPggSSs1ADjdHod7Gh5RBm2IlaIh6sbA5jaW3QOLtCQbNCz5bq1YjqOm6Mkri+965B/HL3EAo0lhuuWIK/XByTYOx+oktOWpGY3ZTvi3f1Y1v3JDYsqcbfXdyJOnaAORrXxzYNYdPWMRqLD284qwkvWlyFz93bh18/NoLKWnaepgj66MiGJtKguZHQu3EW0/z1+nosqNQMgxs9JNo/3DqJW/aMY4IGnqKVRki0WjioXL26Bi9dVYObtk7hhlv2YygcwWwxjYgrgPpcDuvnR/FPG1ro7BL4zwdGEGdw8eYNbXj5uhqju2E6o//dPoFf7RhngJIj+aTTIqGsifmwgST8Nauq0cZASLNu190ziLu3TSBaE0BHYwW6h6YwqoCC+q9goHLeimq8aV29Sa/e8NhgGl97fAR7emY5QBVZPzpOdpiOGj9eeWI9Ll5UYYKh/RMZvP0XvQwi+vGqNYvxrg11x9yT4EDrGq+9bxjXbdqPYiCCfzyzA+9ZVw2PubkM6Jot4h239tF5DHNgDeOGSzvwZywjnc/jPnbqbz4yjINDc4jTeUhAVhEnzKvCm0+ux8oGP/1VEXE6mB8/MYnvPj6McY5KWi/bSIdy0dJGbNwzhmQ8gdec0oKXrm/AE3RQn721HyMTCbx4TT3edE6TceZyKp+4cwD37ZpENe30PRe0Yl1TGP/2yAh+9dioWdP6T+e345KFlbhx9xS+ff8QRujp2+hMPSx/R9cU1i2pxPvOaUEtB6P/3TWBH28ZwwSdnQYaxU9VYTfOpb7/iuU2k9QMcvB5xw93oX+ugEVtNXCTWOzpi5vB0MUgsaM6iItW12N4ms5t2ygdKJ01iVkdo7pr1tTh5aurSNrdKLC+GoS+T3u7c/ckJhJsX+5ToNPIulyzpgEvXxo1g+nteyn7xgEj+wUrm2hLWTx6YAwJ0gLGDNRpGO84rxUNdKCfvbUXN3XHMeSmTtlrquHFPHKQl61vxmtOrOWgQFt5aBiP0Fbm2PfUQgH270baypWra/HSJZLvyBlHi+c9NPAbwqeA1pk4mUpmaZMukqMAVjWGEKUN/CEPWHgymLCDDqNvLoP3b+zHzTvHTN9/51mL8LoTKklENaC7MDKX5oCfxCz7SkPMxSAhZtaH907l8d2to7hz74TxEWn2j7DXY/zxleyTf76y2hC4bz46gm89OIxBEkEtMwzBj3n0VUsag2ioCuNBkqxe+vIZ9gmt7G4m1blwaR3WzKvAL0moB8fncBn95JtOaSTx8+C/tk7g2/f0Yn5FEH93YRvJVwgTySL+7fYB3L1nFOfSX//juS3wkaH+kkT/Z1tGMDCaQ5L9s+jOkfj5sLo9iteeVI+TGgPIkuD9bMu06cORiA8rO6uwmQStb3gSbzy3A39/RhP2TWfoC8axcec0CaR8QcHUtZFjwOvX1eGSxVEG8M7MuHH6x0B6VgBww4Oj+OJ9g6iMBbGqJYq9JFF9o8N4xckd+JczGlCruRxCQc/XN4/hR/SVjEBQ0RTF7FgSU5MJXLqmEf/IcTHJgeQ/OX7eTf8zQ1+RZtuFOa7UV/nw8pMacdXiCjPR8w8bB3Hn1n6EQjGc0VKB/FwSXbSxLP1ejY8+a3kNXk9dtDMYmiLPeNsP96J7PIU1HDP+7ux2/Pe9g7h5xxgGyBhTlKyy4EED9fjidU14y2mNxhfdenAWP9w8goMjSbN0yl2kzBz7z+G4+6ZTmk0ApAkQjZ8/3zuDH3E8HJkqYK6Qg5fjrPz4OYtIsk9uMjdNf/7OPjw8lsW0h7SXKm0uerCetvfWyxciTYL9gZ/vNctoX3pqI65eW4NKBgSMT/De27qxvyvO4DaID3Dcq4z68PaberCf7RmrjcBN/jHWO40C7fDtHP+vXlrJ/pbEF6nnnSTOpBUcxzWhCLQ3V1H2GpzbEmH/5PjBChzZsprsvHHPDP75110YKWaxYWEjbjivBR0c92UFGdrVh++ZxDceOcD+S/5xZgP+9uQ6M2n2JbbJEwfGaTdVeMflncyriB4GhT/YMYm7Oc6NT2uMy7PpPaiOunHB4lq8jnbWGBETAjTf9b2dk7hx6whGyV1y7FtVJOLzGiIYY7Afn5rD+asb8O5zGnEPg6Iv3dODSfKCKtpclm0wxvF/aWsIn7y4g8FFHt96fAyPHZjCFAOILMv10+ZaaEfXrKrDlcvoC9iWO8fS+ALbZcdQEkvoA6qpy/t3j2KGba0H1qxoDOPilfUYII+5ccsAphmgsmKoCQKvOq0Zr1xeDT/93O9+38TxhWODxOMEbroKYIRR3rdJVt53cw8+T0f29YdH8al7+vDh23twy4FZQ15kvP8/iMMsydYIHckgB5YRkunheJ6GlTdGykM4SGe1Z24E/SkZgwYhmMu+XboCkJjATqYdZ6Spnj+SIRFMTuGB0SncsnuCTs6FzsYoEnQaexMz+AXJ2UaSJc3W6wbpH5G0fp2decvENALs/Os6qjDLlrt/cBTfoE4eYmeopKNrZk9SBFykAwqys7fUhdBCS/W5vXQCLuzWDE18kFG75HAxIgd+QNL/jQeHsHliAkWfH8voIFJ0PI+NT+Kbm/rxnS2TJsqXLP1pYFd6Gg+NzeCWvSN0OB501EUxSSeyOzGNn++YwIN9sybAG5jL4fPsoL/Z0o1ROs9TF1ThMjrlJAeYjf0cPB8dw+bhFLUhWX5/aH5Dl4OdH059Euz0CbaRHopdQQWYGWraxvaRDG5ggHPb3kF0M00DZW6ri2BfKo2fb+/DFx8aRdcM25KD3R10mJ+9fwCPj49hlGbVwnZBMICvPdKDByansDeZxliGgy6PsWnRPZfFvrlxjOtSghFFZXK/glu2+za2+ywdvdL3Ztx4YnYWW2fTmKQtaJYpSZLQTV3tjMdx+/5x3LGnlwP/FNIZOktm9JN9DP7uHsDDg2OYonOe3xxDKObHE9PT+N7Dw/gpHatudMvShvbHC9iensFvDo5iE0eOmuowKitDLDeB+znw/xsHvR9tG0csFsZ8BnljDAi3st1/sHkUvZoR4b9pDkTfeXwc//XoMLZMTqCiIkDHWIkZOr0H+sfwFQa4TzAoFo3XVbMDDEq2J+fwH48ySB6bQyvlY/SOnmwKtx7ow60cGFPsCLUMMBqqghxwqDQSpYpwEG31UTTSbscYQH6VdvzTHSMYo64uXF6LP1/bAF/ET3sawnc2DZqZHudpSBZ/GqCXpG+b5KD/k+2TeM9NXbieBPjfHx7BdbT399zWhx/snEGexOzZbnVN82jusT7kxkXtlYiSvGvt+ve2DOIL94/gZ/tmsXcqhToGt1cyOP2LlVW4gOkiDFg0Yf2tzRMMAMawdXIWEdrvCe01mPZ5jT/+yoM8nwRKV14bo36014QZMJAt0AFoBraFgU9bXRCNlQG0NDBs8PvYHbIkG14010bRxEBjCfuK/NuuySETPOtKdZrjzK7BJLZPjeCeqRweHk3T/7iwj77kTva7vdkEkn4/XPSvutp47W37cW/XIAoMrC9bqaV91diXTOCXe8bwPfbvMZIilaGnAO1IzWLTTJyBzzC2D48gnppCkfs1wfA/W8bwXfbNLRMj8Ea8WNIaRZz1uL9/CJ+6ux939yXNOEeFPikUfM3Q5z5CMp1MT2AVg4vXrqrFyfUB5LJxc+V3JJ6jepSJM25OaqKE4+zWiVncSzK2o5dj1lwKGY4j8k//+dgQ/vORfuykL43EfBw7wxikr3xwaBT/ft8AHusnaxbMUl366WwGD/fOIM4Ap51px6nvbYk4fradBJEkWp6bRaIrUcDuOQYF6aK5UbmK/qqhLmyCHHBMjZActjXEzKy47hHQ1c6v3TeEO7vHcJCydTbQn7Ht9s0l8B2SWNnyGAcJ+Wbdl/KNTUN4gH58lORmUXMEkWgAu6Zn8V8PD3KcHTNLd9tZXgX9nuE09JM19L8NLNPv02oKF3nEDPbFk5jkGK40RvX8HtU9AhxvDjBoTLE8Xb3dnc5i+9w0yxzHpr396B0fNEt7NW7tpw196aEx/Hr7IPakkqxnEO2Uv4+KuGtfDz5z9yDTZI2NCBLnWJTdsZbfOZp2rsiEPD4sZftWhitpS+MYZuAlt59jfQYYaO6MD2GAPl9Trdm8B78h3/nW/f14dHgclTUh/NkJDZhHLrOd/es/GFT9D8c4XW3McWy4pzuO7z0yikfJncayOSxqom4YJGzsmcbD4xPkIZPkKboi5WF757FHV+yos/sPTpj7Fkdmx83Vc42Z/8U+/MNHDmJvPMsxrgJXr25iXiE8MDSObz02RhtPGtsQz+xnf9nJvG/snsS9tOV5zdXkYkH0ZtO4dWAWn76jF99ggBDmmNtMbjFB+3liYhzfYQC5nX0YHvocDfjHQm3I/cd+jiccl0GCm91Fj4bcuC+OHzwwiF2zcYx56bQYXQ/TMDcNTuKzdFD7pwvmiTcFl9amiZw/i6BRHolfbBnHB28awIduGcAHbx7A+27sw7/dP4QuEm8tg9El0IKXTpodRHDWreLQ/qKXFMxkyf38X/QFzMBw1coafObKBbjusjb846lVaAiEEWfHHpxMUwckcSTSv9w5henkGDYsaMD1l8zHtZd14GMXdmBRVR32DPeyU8/ixI4QPnrVApxMJ+VOxbGsOoB3bGjG355Sj7qwZjNofHRORcqnS9e6ZPYEyfMvdk9jKDWJ9a3NuPaKecy/A5+8rBMdDVWYzs/hRyz7ATpyzRX59CQane/y4uo1jfjCFZTl0g789Ul1iPhiiMcTGJ7MIUdHM8COMUWnUN9Ui1ee0ogPXtSMD13UimtW18MXqMDW0VlsGUywA0odJW9DPGW0XfZSbGstTZCLeXyYznhvHN/ancDntk3jcw/R4TGad5EUX0xiu4ZB0iQdxvcZCD0+NMnG8OMvT27GF6/swPWXt+ONJ3VwUPXjnn0aLGaR0mzP1lH005EEgxV4Det1w+Ud+Bzb5lUkrVFPmB3YZWZSJKluwvL4KA91orWmh6A1/tRx0etj/s5t4gbq/Cats95VJuKiTl26tKDAzu/Bm89aim//xVr8y5nNyDI4+/aDoxhNzaCxphr/cn4rdc72uXQ+Tp3XwqAzgZ+wffZOpLUCyvQF9Z62mgj++exmXH9FGz5xaSsHngqON7oqkscbT6zH9Ve14VMXt+CVK2sRhg9j02lnuQTl2T6Wxm+2j2Mml8IVy9tpa+34zKUteO/5bWitrseBqUn81/ZZOlmXuazvInFyUXbN+FxHW/jsZfPw7nNb0BILIUt5buaAPUsn+4ZTG/CG9dRhwQ1vJo2L5sfwzg2tuHhhBAPTKfycA4EG6gsXRPH3Zzayrs3m00Abn6au9k4kzZIqiz8VyP69uOfgDL68acAEyWN0nZPePIZpxtvHpvFvd/fhsYGUGfCd/l/+/OFQVwyyz1y5uAp/c0ozYiR5B6fG8bWH9uDtv+7C+27px2c2jZOopODj2OOjncv37BhJ4/skqYlCCuctbMHHL+rEDZe14kMXtqGjqQ498XF8/5ERsxTv0kVR/ONZ9Vha64cnnUQbC3z/RfTzZzbh1SdW4Z/Pa6GP4rHENBaQgP/DWY30M9VY0+BHbQOJns/HfDjukejsm8jisWH2c1+IfjmJ/jESGHaH3ZMu7JqaY0BSjZNJgIP0jX1TDCACbizrbDJ96L0XNuE9F7Tj3AVNSOXmsHMgbuRjTzR+yuXh+MQ+ptnYT15xAr7+6lNxxYoqQ5J+uWeOhHQKK+c14wsvWoDrOfa8/4I2LKqtRddoH37++LBZmqubUMtw7nfQU9uoZI5/NzLA30wWqyWi82oDWN8SQAdJpNq1i2P4fX0Z8wjScssqRPJxfNTTpJZVhqjjNfjGy1bitWtqcHA8Rx89aa6WX7TI8W9fuLId7zpnnhkX+kfH8cDBKXMVn6OxaTNvNouXrq7CDVd04rrL2/CO05tMYDgTT2M/x6s5XQFgWo3P8uVyzBrvXndKLf71ona0sQ7hTAbntFfgfRd04BqO2Zrt/tFO6nJsBiGOfR+9aCl98zyOnW145QnNrIWLwVgf9owWMDiXI9EdxZ7paQSjFfjXDW343OWdeP+FrVjRUsW6p/C1zWP0f2781RnNbKcofFSGN5PCK9fW4u0XtqCD47n8Y9FLvXFc8TDAdrikJGddNf6YY84SGT2xSe3KQQEBkusr5nO8fukp+No1i3BaWxibuuZwF8m5ljT95Vr6eY6Hn+fY8rpTmuDxh7F1aILB7rS56q4J28OtcyxEyFlbfchXPKVkzUEvGoNsgXwWSXPlXmmoZ8nplt3JXmjbmaSZdPVGfThreRP5RBvHmla8/cx5WNLQSNsfx4PkNxprR6jH27um0csxqCUQw/upx2s5xn32inZccUI9dRA0uinqiUr856NQLv7WFfMIbf2vT5qPf/+zdXjvOc1IsT0HEhmEa6LkMvX4xMWteN+FDfirUxtRHa7C7vEx7CDvEZcx94XSvqXndXVRfID96dOXt+Ja8pnT6iuQz6Uxynq+Yn0zPn9VJz5MDnX6wqi5b3LryCSeYF9VK5U54WEwSOInmXOzD3mcZcLcnuO2+K/xeU8Wnf1/Blvs+IObRjTMiPhmRv/DVL4xdhJOKVUQwd7PCHwjB5gUiYP8t4cNcGwT/EGgwZvuRwOTUW8bGMGvd3Thxp3d5nPrtp249cCkeV6w6SBHqFKzJ4L2PxmMrTD/cMCPdXTsK6p9WFAZwFkdFaj1sZOT0Gn2SDdh3dY3jV0zs/CGa7G2NYoTGoNojrpxKY3woqVRLJ4/D9GQ7jUooL3Ch4g6IXUVZidsqfCgNkLdyZuwTEkoQ5cmtWTpwZE4uue0BtGH9fNrcAEDjXlVbpzbEsLVi+sQ9IYwMTmJgyRogqkVZQsFQjitKYJlNT4srvXizHkVqFQjsK3SGV1dyWExB4FrL1uC/3rJKrxmRT0y3H9wPInKgNbEUrP5HMeAw6RPV18Eyfd0cKTXRgF37RnBu27ch3ffcgAfu30/frqjD6n0LC6e34w3rKk2y1ym0znsHpulTAksJ9G+ZEE1moLUDQOnq0kQ6opeZFNaU5xDDz8THJDd2RRWk2j/+dJaLK/2YjkHtjPnVaKCDsdNmQ93do1s5XY/3P4OZI/ad7g+5RmCsq2YMZTnK6UnX8ArFpMcn15vbrJbUR/CyHQWYyTvrmwal3bW4qKOKKp9BaypdeOKBRXgJqanM5hN6ioAZdLgQL10VrB9aCcLYh6sYTuspiOTyHrc3BntYSyuCnCQ12BdQXvh4EN7nUw7j/nbrHsBaNNarvbiRXVYVhVCtd+HtQy41taHaWde3NnjLFcyM2zM2E85zmRQtr4lSBv0GNmrGCSY9cWpNOYYJNQGPajjx9ScMmrdbEvMTxtj/2K6MDlBnqRg93jGrOkcjWexoa0C//nS5fjPP1+Ka1bUMbh9etuweP5ApjNNO3u4Zw4jaQaoJDgcbZ2DtEf5+CESiG/uHOWgmTfkQvOVh+cs/1DQ09B2q/1F/O2p9fjsS1bgnIWtqAzXIZXN4M59Pbhu406895Y+/GrntHmqja76PXIwzgB6FnXuAK5hPz2t1fHHV3aSbCysM+RT913tHk6aJUctFUFn3TttO0gWKh+tpaj1DBhaY16zTl4+NUiF6B6k2pDf9KvFdTFEwvXoj2dwkIVvn8yQcIzDG6yAm/20j8HLdCqHzFwGrsQU6gI+LKsLIuDO4+LFMfzwz1fgi5cuwKkNAYzMps39b3VB+i/WOU8963HEpJnGL+jKc4sngjetbcLVqyI4f3El2qtD6B6hLxifREWoGtcsbcKKCj9q/G6c3xbDimjIjFNjc0WMsb5PtiTMTXKqm0sfOTCNsalBNFRWYm1T0NTZ+IraFkzNjmBrv54adOhWWudkQsTwao4dbzilGhsWxjC/0k//MIMpto/I54XzYziTY+J8yvXihRFcuqIFnYvqEaF+tS5dPEtr2b20rRM4zq6iz1tC33cxxzp6Tx7PY4a2l8k5s7zlFQnmQRL8riXRbZOPkqY4Xlf5XGiNehALkNBR97v6p5EqpLGutQpXzAuaJWGL6PfOanYeyJAiBdzHsXM8XsDYWJbNnMbF86px1fwIOumbz2wO4jUkqCsXtqOjIQwOV6ihj9ZjVs3YQClqSLTrwj6zMqA8Ey2/6qDsD9WOCsycj7OfnpZtIrkbIxG89qQGvHhFBc7pDHMcc2H36CztOY5WBp2vWFmL+eQJTSz7POpzYXUlcuk4tg7OQPe+PUnT/hZUou7dZIHOb20azia/Lktz+FQZWiuiW+FjHFtet64B/0M//6lz5qOZSuiayDA4yVBOt+FSbo41aY6PBzkmPMogPUc9tNPWX7G6HotoE6tqfTihKQSfv8wTJY/T/oK4xlIGwK8/uQ6XkTOd3BLBkmo/3ssg4/svXYW3rW8ih9Q9ESn4tCxPt+LQvvKawTQ2ocrwi7pcSFs7rSWKtqgXJ9QFMJ/BjZt+alFlDFd0xLCkwovF5AxLNVa6KQ/7FimIk81RcO6juIv+7/039eJffn6Qn26862dd+OQvu7F/OE2f56EenRDtucSxzOa4gEjULB3yrml1s2MHBbUWzYsK3DE6B/pIBnmimL/VCs8K3DQMNfTZy9vw5g0r8Ffn8rNhOV57/hq84uQmc4+ErLF8efBwN/g/wLRut49dxWsuxcmK3Bx4vCTsykvZ6YkUkwk3jTWBiM9Hh6EZ6AKyujztzeGvGbl+46rFeNUJdQiQbGm9aNkadcMf/a6B9KnZhTKYuylTN+4mmLefg0ArjVsokATrRUIihX4RYHawNImzLrlpVkbwcCDS4+IK1EuBHV1XSzxaUsMyzGwHy64O+xHgIHLzjlF87MYevOOnXXj3b7rwv1tH2bYMEJiPBrtnDJZfSee/KBhAO8l7gGRf8q1vr8P7L1mMZY26ZKs6srObm7H8GEmk8eU7+vCvP6IsP9qP6+/oxbixsCLGE1n0M0iQM9LA0kxdt0W8pi0y/ORKA4fqaC6vPwuQI83rioP5UUBryA3dL6anb+hG84F42qy3LQSjeLR7Gh/82QG8g3K/k/L/ZPOIcZYuDnLFrC5UMwv+k+yaRTKDNvPUJV6ZqHTjYrBboNNROnUr7XauyehSsHIAds1mME1HmaSD/u8HB/AulffDA/j0bw5iKwPWHG0vP5Nkmbp5zrEt48j5kWMW+9OgYAYylind0uOaY4eam/uVRlfKJMji6gD+5sRmEqcQg/ExXHfXIP7pJ934lxsH8OjgLAfcIupJxHQDYnkgt3h+g9aBWRJXLUs0NkI7NZFDGepn/No2nDAPBXDOeJZBW5LHjtLhXbk4jOsv6sAXXtyJ163X043aEAzV4ZGefnxh0wAeHowbInuAhFvLEv08pzZGm3RTevaFkLdIguglSQ9ilvkenJ6jjbuM7DJZY/8sUi5aDFDLIPWkHdNntJ+/1R/kUyXVGU0xLIj6jQ/YMpFFzyj73dwoLl3ciPl1Vdg6mcNdA2lMx1Omz8cqvYiG2Z/ZV2roRMZmUmY54nt+3oN//kU3PnTLfmzsnnRmWiWL6XsOdL76WHvEoW6FfIay5TDHIE73D6keN28ewj/TD7yLn/eQyDxCsqZAbor+ZzSZMXUsQ2MBNWP8w9axNLYNJQzhb2EAVMdxoW82hwYS+SUVEUOcdbPvnnES/yPa3/Rz+olq3TjGbb3ETMFi31waGY51ujof1aUg1iZfyKAuUsTHz23FVy5bgJedUI0KBn+SXTkqXzN8KU/+V8ApzmDKMW2g7SPt6/B2hieaCSwjg/J0ztNkWEHsj+NK10QC//KzfXjXjx3//O0HxzBNHSr4Gmb76ebYfI6ekjpfXBlAhLaidlZQ8GIGP1+9hHJf2omVtX7jr7VUyIByO7JJ7NK+3wMm8KEO/EEGGxrL9IvZjDPAOZhIIkVSPc1x87O3HTRjimT/9zt6MDqddjIQuTJ2Qos5Uj1PAbWRVnQIs7msuYIs+BkUGoZmMnGOl+0+RO6gic1tQ9P44sY+vPXH+/DOX+/HtRsPmhcP6kqH4UPMK8HPTJr9ze1BRVWInIf5s0xxEzcDPjdpt/L9LVGZJsRgy7yTgXrPkX/EAl4zsXpP1ySuvZX85Cdd+JdfHcTXHxzCcJLymitK/G9EdnJULZxvlsR8BD2lS4h4zfPDCMpKeUP8JS6nU8r3zR5p32aikfyqL57DbV3T+Pm+Xvxs/zB+sa8ft+0fwwRty5mMPNxPnys4NTzOIGOmelFBUiA1GV0R6uSmoxMiqVG/7u5XN+AZJCLPNlSUZJGz2rCwAm85uRZ/e3I1/vakGrz11AZG4HVoiopmHYZJb77ZuDROoeSPjkDZYJRa0pfTiaCyUWRQ5aYp1ctNg1a0a86hE3YVfWiNuLC8ysOo1keDl9HRjA/NbDtKUwll4zbOrrRV/pI+tdrF63KIpu7UF20VJS7PqGhGSLqQVBJBnUBBiDqIyKiLI9+hnI0YHvMkpI/e2YevbOrGlpEEYgzPO5uiqK1gxO/Smk6VUT7r94T0yrLPWVqNay9faC7frmXezsxWnsEAHQb1YQYA5xot07s48Lkwy0FtkIPaKNMkMxmsb2rAGW116KjQ9IHsi+3BtG7q3espDTKa7ZcCjumwZk955sT8k/71i/U6pBBtPE09jV6d47lS20nPykvyytGrHbS+coKyTyT1BIsMdIP02a0tOKklhkr2A1mRc7LahLLoZ9km6LqlM/P2UEfAEmRbqjMDC5atttSV4XJeUyRFo+kMRlheMpPD/Ao3zmhtwukNMYTp2E05LEIvipOm9EId82hbQsdUprEg2aujSEeDZr+TTmVVBYp4zYl1ePcF8/CipU0MCDx4eDSOH+/Yh+vu7sen7hwwT/1wzrD4U4D8iJ4SI6LkwPEtso1D4MAf8NNLOAf4T1bzNH3pd4Ry0/0tWt/+xHAS9/YmzDtxNOFzXkcIb6dvv+ESLSupJMOJYNdUCr/eP4tZ2raWTDg+goKzr6mj5bT0w8hHCkny4ATMqtghL26Ol7ecj7yC09PLkJ9R7dWP9ISY5gqfWR6kJ8M9TDn98OKKzhjO7azAWCKN3+yfxBOUO+gJYUVDCDESoSyzu7t7Fu+7qRfff7wfo6kMWmuDxvdWmgkt+QJHNkcTDiSv1pNL/y6Wo6Ala8gNA3omTZD0Gl9AgjmRzGJBjQdndXRidX3YPAXmSOTpOzU+iEY90D+HHWNzKIYqzE3Q128cwjt+04v33dLHQIckkPt3c6zYPKSnyDltL59Q9lWOP+F+2oLxZcYXc5eWSake2uZ+vTRUb8heRhLeHA5qdYg5bsYqR6tOvtxvvrlHMETaaY5DMDPgpQSmfZhGScyS5lJiBU66EiF95ahTLWsdTWQxlkyZsePkplqc29KERt0Eb+yFbU1dUky2u/YxL2ZVFWSwVOnD0goFq9rP45T5kAD8Nl6TiUUazT8eV08wPpVwlncdU4lD5xMs33mJHP0uv3S/TKGgYJFBEPdNalxhu46ldGN6HqtqvDizvR3L6sJGj08JVUBf0gxlMvUze8BAMIvhxBwQiCISCRyStQy9AFXajTN4+tG2SXzy9n5zb4K4TTttuY12FQwyiXQh/SsD5l/mDFqqXW4L9SOv2oxQeymFk+ownGBXeXEsou0Mc/z/0gMj+MKdvbi3ZwZ6Ud6ihgo010ZMUGP6eOncIyH9qz3K+ZtviqE9qpFkNGOsbIMpjTzH1F2Q6ApUT2JdX31GE155zmK89uwFeNW5S3H1OR3m3iTHbk2uzymO1eVxARldfciFc5vCiIrgSenaT0Mx3TufRdQVwOmtNEBGh+qwjiqfrFn/EBzOL0wjUiRazU+V32W+NcmhJSRKZQxBBqJeKK1SVofsO87AmUcq4VDnOlr9xvxEOplFOXVlgN3O6zeXh2dJ1LTfdG929Mf60vj1jkls7o0jw8HJvAVaJ5U6k56eIBinWCJvgoYu9hPqTtFuAKnkLCYTh49nKN/emQwScvOM2nUztB7pdogU0hWYfmBqp9x0rnO+ylVb/IwD2M3dE8j5/Lh0XRPed3EnPrChHa89oRE1Pjl3dlrq7pnAdEJWoL3Gh/WtzH9RBJcuqKCuqrF/bBQ/3jlhniahe0UqAl74vB64s2nzRtNXnt2OD1+9AB94USc+ws+HLmnGP188D5ctrzSPs/WVBn89oWAsKefOn5TTTe+ue2WceqqleIBt4AQB/GK7GX0YG9WVFafdf1c4M+9Oq+tV9n62ZSMZFPmzucdiXUcl3nlJJz784gX44FUL8NErqM+LW/F357VicWOMOnHaQjBL79RW5pfkUbDtOC+pXM68DFMP/jaDL/+1BN0Is88FyRj+bG0jPnLNYnzgJdTTVfOpq0588OJ2vOOi+eYN487Aw9bm+bJbXWExtT+y3mqr0resUTIYp26kYk9nXfvmcmZGZVVjFO84pxUfvaQd/8IyXrJqMeLpBO45MIP7umfMzZu6gc3i+Q8N2Hoj/OLaAEK0Bg2qzkwjoW8SLz0N6MrFteaJaCbofJYgAiuHvX8ihWtv6cY7ftaFT90/TDvU0lUXaunbV9QHcOXyeoT8fqTzaRycThvbbYsG6H9p+9kcEvQPeRq9hz4jQyY9lswz0NfSIaAt4jPVKBMZB+qTZc8uKEFpi5t6ao2Zy2d+evR0Qw0dry+Eh/qncN/AFCLVTeb+hotaI6hjN9h4cBZ3m2VNIaxviHJcAobiefx89wz2TY6hpjKGv6XP/eCF7fjQuS04v6MG7pxeZCUZJJfxCqb8MozqSeD0aNOIn3XgP00CnLG8AR95ySJ85MUL8aEXzcPHLp2Hd1/Ujr8+oxXzVfARMJ6EvkH3PWzvT7DfJuiUvIjPjuLxri48uG8fHt53ANNTA/AyXSqfxGMMErTEWFB5grEH0+7q80Xz6OV6kmovdeqmXyhoOQj3y8/riXK3ccxR3fXI5nRe75mQLlWDY2xH/lwBBI8dsrkjoeOlczQZqTY0MsnHy3a0nxygqMfM5XNoqAzi7ZfMxyeupm6uoo6unEc/Sf3wc+GSatRw3NGb5VXWCAMJPfZUfkzP0985kcEv9sZx055pDNEPHtUcpu7y0NSo9pt2c/LRizlFeAU9mMTUg35YPONIG9O5gnytxgUFNjGPG/Uc0P25HHlUAa8/m+PKixZQ9nn4sGRngPy+izvw8vX1DFwkwZE2ewRKulAJps35T4G/3g3yaM8c8ukZjqkxrGoKmjYqj0iCGR951n4Gjr/YPYHB2QnzgIz3Xz4fHzyP/v+MFpxQE4KHQYvJm+l14UiPi9XVjcl45lCdNSTo/ibVtiQSt8RV+Fftx1+OLiUyS+X+O3tn8bM9E4gXUjhzRQPezbHtPec14+9ObkJHgHbPfqLx7DCcHwXW4zBkG85HQYUT4jtwynTSSibJo7Y7Etq3oi6Av1lTh3dT1+84qQ7vWl+Ht6yrQwcDR12BMPk8x3As6DiD1tFFGUVeubQap7RUwJdOUr90CIrOGCCIwFy+sgandERpbIoQD0d2zyac2X6C+TuDlC4Hyyi4q/SRAYcYLGhJvm5K3TubooPWc+mBgXgR41POZSmRSQ2MTtQvo9JOSW02mFz0mt+mHOe3cEZLDPOjFUiyw20e1pOVeMyjV5wn8cHbuvG2H2/FL7aNmdkB02eUH+WdYkAxldJsjPJ0chRkdCpD71ZY2xBEe5T7SULv6p7F7qk0RfKa51LfsneKA18K3nAA1ZVenmOkM3mYTutsEqUNlmlk5wGl1LPHs7kk3L6gWSrSzHL0SLB9k3FMpTNMp/o6dX2mkBy6wqLHJG5YUGkemZjlQHvz7jHcd3DatF+UDrquSo7ER+c1hyfGZ1Ef8dNxhdBeGcDO8Rk6qDQqSXpbI15+s6v7g9g5mcGdXXOgT0cyX2AglsS4YoTScjDVW88JD1MvGfpqLdMZSTpXY/oZYejxbNKHEzyUbOBJIO05jqZsYw60/r6tKoAKPQqWgZpmPIfjBSykEiV7lI7siX7NvCjYk4OUVdEJMZ+jndExOj6iDG2b1uMfzUDqMW2nNcRQpaCUznPL4Ix5fvwa2smiOh8SDFT1LoYGEiUFjSJEBqbMw/lqS7Uub0suUw4NQ4OUzhpO5ZDSE55IubYPZfCO3+zDh247gP1sn5NYv9etrsSb1zch7AmZtb19HEx0z8ShPmnx/AabUeusz19cxQA4Bm+KPp6+3fj5bAr+TBqXLazFK5dVgl3A+F2nt/zh7S+CKL8RYr8ZIbnfn5rGrV3T5mrBBF2gTExvQ97BPqf16ipSTybSfV56QaOChIlcBrfTZw4wsBDh2z6axi3d00iQYCuAXtKoWVieaPqGg6Mmigj5vzKZibMvTuiJLzxFXFCPOzipKYKmYBDJZByZ5BTOW1KF2go3WuiPKyMBJFNxzCUmEKY/a6ki6aMcU+ki9upxc/R3Qa8X7RX0v5RH96Dtm0ohT7JeVqH65WGfY0YG7tE+Le0jkST5D4VDyGRmcW9/3CyNXNngM/ebjafTeKJ3BhUBBhNaI8nzD8N5r8MOjlEPDU3yPA8aOY68f8MKfObyNbj2snW44fKT8PELVmJ5QxVVlMe9vVNM7/hPR7ySkBwnBF3NiPryhlSFmbd84j390+ib1VULL+7vTeOtv+zCe360EzdtnyARp82UsjiMcsWd5Y9PjcN1EbnViKaZ6HG95yaXZ/vkzVKn5roQ9BCKPeNz2MMgsp1tIEJcG/PSHmbYFnnW24sYDTgS85inAd7Oem4ZYcDJNu+dy+Czmwbxzp/uwbtv2osDDFqNPZjxgluUcy6dNf5SUkQ0UUVin+TxnRyj9coe5aMXmw3yt7G1kr5UB/0rQ+cLCpD11K5FNQx2qbdJ9rkt/bOoYjuuaghhfnUQvdMp7B2ZQVPMbwKzIhV55LBxLDJ5t7Hd3uk87upJ4aMbB3H7gVHqJoB1zRGsb2NfUMKj8hBnc2M4U8R+LQf26WlIHrRVelBP+WaYn25UNkSfddL41B724YTqgAkse4ZTuOmAnkyllyLqoQM5ZDNO/9Jfp32PbmPDF/gtHe+ckf6SptxqltvI9qljOw3OJDBM29ayPLX9IVC3Do86GuZKv0rTWGp8lANNxEn2Mvd6MnkE8cYolVNBm1bw5nxr4sFJ67DC5xbPvQRPArPsgi29lA7pXy9ow9UndqKWZLOq4MW8ygr8w5mL8M9nNJmbvwp0+IqSDxvGH4Yj85ADLZP2J+slzuUgmJmCqgidgD+E7ZNz+NQ9Q/j0bYP42K0HsbV/wqQxUe8x8smAynMWIlVHdmpzSZDJT20O45S2kEl7255xfPS2PvzbXSN4z+0D2DQ6jmy4Es3NleblQxokgiSPWk+np3J8YeMIvvjAKPrmCuZOfzlHmav++UhC19WHcWJTFF5fGPd39+O9Nw3is3eM4tN3DGHz0Ay86QQuXFiF9fMilN9RgfRh3gh8jD7Kv7Rbn+VVUXMZPMUB+PYdM/jy/eP45G3j+O7mEczlExysnDbWmTq33ILS/9MRQSd/pxAn4GJ6BpWdHDjPm0+C669iYDaMn+yaYb1TZrbymtVNaIhUIpNN4HuPDOKDt/Tgi3cM4yM3D+Jtv9yHj9zWi4c5CHLcxYYlFQh7o+ZFMN96fBLX3dWPj9/Ri39/dACzxZRx9Cpfn04OorGoU42NfUl8knr7wp2j+ADbaPPwmGlzvXbOqaHa1HwdgnEgJi9uixyV0jlwobPWS9lrjVPcNzqMazf241O3D+Hfbh/B+3/ThXf+Zhc+/8gIevU2PMLMWposju7WRl5H2fpV+tZWqR3pAM3q42IWa1sDOI3tLfx4Vw/eSzu+nrq67s4h/MtNB/Gvv9mGX22bNo9fVOClMg/1EcHIoPZz2vDQY0upC79XV6444PoDuKNrBp+5qwc375vigBtA93gSD+8fxOcfnMa1j0zi2zvi+O4TJF3FNKIuH5ZwQA4yOD5yLbXF8xuymxPq/fjQeR14/UkLUBuKoKLgQUs0gtefvhjvOq+NJMvjkKSn8Qm/L0SFXbTfedV63GIjKl1hpJLT9FFD9A29uOHOEXz4lmF85YF+M9HR5ovionlRxBjVrG704+wltWb2+6c7x/Dx2wfxOab/FH3yA72jtNEgLl5Rb17W5HQL9jyxfs0KHtFNJEXM70FEaz2JLvror9zXjy89OISeeAZyj6vrgmjwspfSN/joAy7trEAjiUyYPq2dcvhZB92U2VFHvWlZC1FPUrpMj1BloDXEAOYbDw/j3+4dwUfoN246MMCxgYyEcuTlb9g3jUwil9xwrjAQckwMds7oiOLMtph5MMH2g334l98cwHX0BdfeNop/vqkH7/nNI/jW5rFS8H5U5cwblncMpzE+ntK1EZzfWYVXr6/Dy0+qx6vW1+LlJ9fgZSfV4spl1YhRv9Mz49g2OF2aSJOIR+cn5+n1+LGUgZPesyDC95Mdw/jw7X2UZxifv3cQw8lZFANBrGiMotIvlZNkloI0Z3x1ID8sv3eU3zJQrs6+cmo/A0k32ylN4rZxMEFfOIBvbJlCgAHYny9tQEswinRqFh+64wDeR5v5/N0j+ODNHEt/vQ//+uv9ZilVC4W5bFkt6n0V6Jme4bg8iuvow6+nzdzOwHQ6M4m1C1vQWc0AlDFcPQMzL9s1y7bS488/d0e/eVdUVcSHmlgMKbbNnTzvs3cO41O3DuMTd/aia2KM4msyz4htpFf1ytp0Glp19yDsL+L0BWEsa+KYmJ7BNx7rxwc5Zt1w1yg+fusI3vErBls3HcA9+6eQZ3SmK1tOrynZRwlOWS7zorHP3dNnbvL/h1/txQ+37CPVyGB1QzVes67euW/zGEgc5ddkllvRXhms6GlC/3bfKG64fxjX39uPzWNTZuZey7l0v6UePXtmSwAVwUoMMDh+321d+MStQ/gkdfCbbXqUfIbBo9rwyPIov2nN0njEj7ZXs8y6UAXymTls2s++v2kYn76L48/9/RhJzRld5iiT5NSZhqfRln7LZA7pVd+HD5rz+Mc552i9PRnUf8qfcj7Pps/7Q3BcvnFZypF6FE01Rrw4sTmKCxZU4JoVNfzU4sL5YfOMazWM04D6dpzkH6ZWne3kkGC73tUzjd6xvHkaz6WLqrGqLsAGP8IQTLnOjTl6c++B4STG03kcnJjAloOj5r6faG0YhawPVUxzVmeMjj+Mu3pnsY8dojKoN0FGOVAGzWW6ETr1W/dOIJ7MYU1bBc7gwBThaKHLmYw9MDGbx7ahYdx1sB8Tc1m0RmJ48eoavHx1tbksqKhTsx37xwqYSKdwYKjPPMf+3EV1jMzzeLh3GrlMHucsrMNJrWEOaEBjdRSjySLiMwXsGZ/Axp4+c9NdDSPpDXRcbz+9EfOrdcm9iDsOTqNnJG2WeJ3P9ljJwUg66JvJ4Pa9M8gxoj+xPcqgRk9ICGGQ5HVoivJMTWJT9zD2DjBf7s8XfPBkcljcGMFJ7XR6HK9U77HZNFYy4Dmb9ZbO1THLbWIuHfPn/STzW0jIw9T3GTz3jGYGMAx+1AaVdDi7hhJsAy+GmdeyWj9WMhBqj3nQGA2gZyKHOep269Ao7j44gL2jcfPI2dPmV+KC+VHzXPPWqjCGkgWMTBcwGJ/Coz3DODiSQ4QBQaoQhC+bxmmtVVjHesbobDOkMN3U91Q6jZ3DI3ikZ4wOzYdwjEQ77zVXT65YVIN5zFtvs949mOIAAxN8Lac97RtL45HeOSTTObZ3NU6fFztEhLXMYlFtCJ6iD4Nsn5F4Cg/09rGNOCDOFtBeWWMuZ+tJIVk6859uHzcv9FlA0nAWdVjPvpOic72nZxZdHLD1grqLF1ehLeZcDdk1kcb9B6aMhs9dWIlljUFzn09bZQBzCRem5tzYTVveSHt7bGCSDtWLxc1VuGJVDXXq48CUxkPds5jL5nDe4jqsbWSURTest37e2z2FGeqwgWTpykVVaCZ5Uc/pnc2gbyKLsfQc9TWDylgY1yyvRWtNFPvHCzg4HsfdfRO448A4dg6Oo9FP0rW0Ci9jsKSZHos/FZToGP9oFu+EpjCD/EpcTR//0pV1uHRhxDxJ5hhe8qxCKzkX0R9Fgz4MTWcRp+/cMjiKe3sGsGV4giLq6SVBvGxNA15KuSoCRfZJL9qrIs4Ta+iPNw8P4Z7ufhLyLAMa+uPlNXgdiVFNUCNSwbyJXv1vZEpveQ3hZStroBcT6sqIlyRwiH5w+7Deep+kHxlBIiO/W2Nm/9mVzduEB6fSaGaZr17bxADKC55uljo90R2HXn74F6uacHZHxFwJDPvdZmZ/10gWk4ksHhti8HJwArOpIqoroiim9eI3F9a0ROhbgnhiJIEH2If15KNzFlViYVWAUuvKn/ypDx1VQYwncojTF3RPTuG+nn48PkDd0BcsbWzEZRyPl1YHOFaXlEqY2e3pvFn22ccgIcax5K1ntGBRjU9siv9FnIrmJmstHdrRP4MpjUHcdxp9YD99xJbeKejJbxsWVuPEBo4z3Na9Grpy0VATQZceXZrI44nhMdzfO4RJ1q+J4+Er1jfh6uVVJA9FPNgzg97RDKIs9uwF1VhTq7XxLo6lefxy+xjHITdWtcZwGscrjS8/fmLYvA+poz6CDQzIdAO4Vg93z6Xo63LUZwK7BoaR8gVw5eIaLCT519uth6ZySKYKeKy3B/d1D3KcIaFn8HDu0kqcMz9muEor201tPjBeRNfUFDZ2H8TeiTmEaU9ndNThn6QfXQ2iIvUwk60cK8azLvROjWOYY+6JHVVYwT4S8PspQ4bHEhzHhrGtb5K69yNaTcJLHTbR51/OMSHoc+GWfZOYmqIPZtny+80MMmguJK8F1DJdc0XYvAF6Lkk9jo5iE8fEHSNT5AV+80K/i5lPa0yPxz0cYulbNFxvR964nzp0czxPZ8iTZtBHkqL7QBrYZy5aXI+3nt6MU5r1kG0FGuwvJFV6a/fQZArLG6tw4bJK8zI4LYXWo20H4wnTlo90T5KgFxANReFKFxBjUHxqZ6UZnxv4mUvlTH/VPQ+PdPeha4xEi/VNU5ZCJk67rMJlC6M4SF7yEMchdi20cax9EcehoN5XQJtrjwXJs9LoYXv0z85iE8vd1htHJOI3k18u8rh22v5p1AOLw8auaYxOp7C6sYL8KWaWA+pKuN6ZsG8shcbKEM7jGNpCY9MToR4bmmHQMwsX05xD7ngS9XAkd3w+4bgMEhwc9joVfheN1Ye2Ch87gV57T2M9Qt9yaA6VfPbgBADObJPI6Gkk1Q103MeWK+gGlNaKABY3RODyeVFfE8OZixrwhpNbsGFepSGpukx9Bj8NIkuKiiuCWE/HfipJbmNEhJgjgjJnJLyAhrieJHQxnYacry5ZntAURQcZZ7AyiuYGLbWqwuvW1uPqZdWm82tWSE8+aq30oZlBhe7mb6mrwaV0ZmeSRIZITKMhD1a2yCmG0aGpFpbZxLz1WLrFdIyxygjq6qpxckc1Xrm6Dq89sZ5kn4RS/+SkKV8LB5HT2itxSksYdXTYZn6Bont9HiyljOvbw5hHGTSDrzXmTdSLLocvaqrBy9Y24y9PqkcniaNmhpezzM4av7kJVpdz51N/J7dHsFQvgDNBwpEtyl908ApWakn4T6N+pM/20lOZeMgMkMb5VelGPrZHdZCBlN8sjVlU52cbxNBE+WM1bJPmOpy+kG20phEvI+mVPlQ/3cC0qilmrhKEwwEsZLo/X9OKM1orsZWDTjaVwGkdNVjPgcXrzjNdCB0MBIMcUOtrY9iwuBlvOa2V+gmZR/ad2UKdUL8KCPX41FY6uXXNIRL7sNF9jvUJMbhZ3FRhgqsFbPPDNuYBxccJrOfKhgpUUfYqts+C1no68Hq86aRaXESHpUvFuuFMN1Aubapk+0awgoFnWGMy20brOdsY6K2nLLr8q3tr5Ch1k3KQcq3m/tNaI2hiH2PXYnDhM2VqvXiYzq+uvpZBK/WwqgGvWVfHPNg+tDXGmwiGfFhuyoyWnpAlW2FbsE3n1UZxNvM9kcFgjE48St0uY9AWC/kRi0Swtq2KwRmDJdqAArrVTewL1WFUsG+0Ua+ntVfh9WvqSBxr0RLj0PRsdnCL4wBsUDaq7MUEpzE9ctJniLACZGeJ0R8Pyp2miGUkoevbKtBZF6RvoM9qqMcSBsOXkFS8nj7wosWV5i3QWiqn0EZXN05ojmEe/VSYPrOZ/ePUebV4zQl1eAmDCS3h1M2r8o7yYboFq6MmjFPUF/SoRvYN+RotVVC/XMBjQQ5q7fV1uICkeD37V5j9RWunw+yf7ewTF5BonMxzgz49aMKFCMlpkP58KX3VFZRTa5ilSK2hb6L+VjdHUUlfU1ERw0n05285pRmXLqow/mc5CcsS+iwF+iKNFZEg+3fEEBkRY2eSjv+YVz3rsq6lAgsbooho7GFdT6D/u3pVHf7q5Dr6jZCGLKPMcvdUP41nCkhmi1jCMeH0eVHWK2Z8mdpawZM0IwKutzcH6I8WNMTo++h36B9q6M/0Jvi19Eunc9yVPShAUP6aOGxh8HgKxyDpP1YZQ2tDLYlbLf7qpCZcuSSKmrCW9roQpDdrox8/mb72VPqzJvo13RSspSuMD7CiVT43TP0HqGu9hAzGD8uXLWvwm6s8bCosoF3U8txomOMYx4MrGUytoL8SL9Ebjk+grmvpsyprKzG/uRbnLqo349xLV9WiUQMvSbnyWtkYJjmmzAz46mqpR/o3BY2vO7GR/k8BjKyFBJ7yL6rXFX43ampIMEmQz+iIsd5utpufhJQ8gLK0NlTiohVN+JtTWs2S0A6OHevYjmtkJySxrBUW1oSowxh9MP1ukHZnrljrkekkyrSZkylDG9NU0I5bGmnHnXV41YnNeBX97jISay/t2HQU88dpYbWvnsCk+wNO1PjWJhurwsnkOpdQN69hfa5cVoOltc6yPodL6Yo6z6U+W+qiOJGcagXbWsuZ5rGNFtIeNd7WMdg5c2EV3ry+Daeyv4h/LW/kWMoxQm2gx8wuI3doqw3BHwnRLuvwZ2z3xqqwmXTKZhmAtNbg4s6Y4gYGlW7yjJC5IraKbaUAWwh6aZvkGx0MOIMMGNprq3HVinozdi9mn1xYF8YKjlsqN6xZPbbNvPoKnER+sqyeelGN2A+zrJUCeI3d0rt5iAgrqrasZV9b0yx7ChvuKtt/PsI1PDz8PBX9jws1qN6ELFIqu9IkpnmBiXrIsWBiN61f3UBvWMwU6KA4MNTQSjURppfNqJton4w0TYeX0XpsZhWkF1K+ZsqMniuRdx7kpeVAIlpC2XkkKct0lobJ5EEaaKWvAPYBOkTF9oIYoYcyO0+m0Y2lUQ624m45ptD56rJaW+vTYxZ0Fr+09k7R72RWbxd01qbrvQdyNMWipNE3I2cek+x6xKbk9urlamZWCJjLO4+ZCzJfye7cNOZBMpenzCqriIoSUZylbHpsmY/56H4ODUZaQ5plXnrNudacHl5beRiqpR6DJkJsdMckXqZX3UWE9VQNFaUIX/BRbyHKqbRyVtrQW6Zn5feYPsB60j8xnVO/8qVZl5s6pIyTOWfWoZJyP9yXwjt/tQ9T8Tj+4ayF+OvTGqkfuQi3ae8pMmYtieS4jVo6MhHoOZ4vRyVdGR0zOJT+VA9HT2wXnpvkR20VZF3MTZr8ZyDFqu2pR80qxtk4usIlRJhnlI2vR79Jf1rWo/ve1AYiIbJXDXxqb9mwZJNjM+3G/czYBAkJyqTzVa6fMpm7e3hcz1OXrDM5tzlfxETP1w6X7EZDtmwlyTTaE2Gbqy0EXeGTraluOi/scQYLs7yBSVSPWbaRAg3Zg+kD3K8lT3O0bz06T8sOyBXYh7yGZIkkqNzyjYMWf2o4sl0dO/r/A/UvY1mIs//ogQfylVrCGqZRatA3j3tmGgUJpvvxBPUlvfxoSulpm7rHq5JE0OlDGgnUrxRYsP+wb9MNGhs370xQgYRm7PmTx+U/tKyCwRLJi9KIDMvvZujrUtyv/APGF0gWjjXMU/cZqJ/EGDDoHibTM/lb2av8KfalOaYhlyXxVo1UR8df650N6vN6xLJ5GRrzVN9Wfy23heQTdM+F3tKrJ2MyKWWjL2dd9dhU85Q7TSDxn1MrB3oZVNL4WcrEPCOaP2B+ur6impWh42VfIaj+SqVzhQDL9mucKenMtJfkok/RVVPTXiw/xHR6w77aRR5JetGLsMpjRYB1lb9V6XrMaFwV4Xnar/FOKOvGw/L0eE16LeOveBrLYv1ZnpaQVrF9dD+NrtyrLrKKWema9ZAlhdkWFT4GJNKNyVntIj3o/kmOzXS8eo+DbmauZJCkJ9VpPbu0rdq5XM6YO5GSf1XdpG/nyovsomx3qiPjJ5YlH62XcuXYfvKnTpCaZjqNs7K7EMvRo8t1jqQWVDct1tY4peVh4hF+ClpJg/GzjubRnaUKHPK75nyO1WyvJMs8FvLpYdZdRRTIHVito6B21VVv6VyrBUx+/JK9GL3wW7qtYp3UH2TjKlt8R31AgeeWgTj0ctq26gil16NxXfj6IyP4weZe2qML/3zuArxlXbXpw0n2aV2p0JMKQxzX1fecVmHrMd8U6zjNwVE2pPGtkkF4gvnJJqU3cSCZ7hzllowai3RviLSgXJRO46DSmntGKKcsp9xv1R+D8gumquqbv62z4x02SHgaqDM4a80IGdfTNLJckwxUfan89BitRTMdkh3HPEXXZCWjLzkjfuTw5RR1voYmmZ5KcFyPY4il3PjhEZ6ol5bonwj6YRgJzJbKNDfOmL1KxryNYE7uZl/pXDnUstOQ05PjUFIjI5NoENB+p+xyPixLT4eQzPzpphMz0MncJ//u3Oiss1givYCju3LeTnnaZ775031EXcw6dpO4tENQUn6c3cy1dEwOwMlX+ySf2sk5pg1HD9Ktk78pmw5Os3SC9qojq/bmqSeCyc8pxzQlycHN3Wm8+1e9iCem8fdnKEioZ+cnGThUmNIfroMGToNyOaaS/G/aoiSLyjDyOmkMSukdyBkZKmEcnhGFv4x6qH/5aEMKnMTczzSlch1HqCOyN/Pl1JP5O7oqbZuUCjS0rUC3DGcANDhUAMviLuVnpGE9jO1on9qvXFf+07hrqJaOcUu6Mboy52iVsmSQXlQGc1GwY2SS/CpZMh3OQ7ABwp8yZCVO+zoW7djSHx9OmU7f5d+SDTumpr0lG+dHu9Rbyv1MPkS+1bxEir+VovyvnK9sXMRVRuyMD07+Qjnv8i7nxYraq5zUv9gH+EuTR+rWR57r5K6exPTM+6iXLrEvOTO4zE/9iT7SOdXRsc7VT/OIUAUXPK4gQcuADvt7B05a53zjW3jc8bnyq44UTwX1Z+O/WI5qKzi6PAxJaSQ3emdJxkfoPEcH+inf56BkI/wv3ye1G9Cfu1xazqjcDudvJCz7JaMjHZOfzzt5GrmUnZO/cyZLkH8245FTsvLRfwU7kseBNkr5cktE16mhctE+1pTHzJhSsg1zhDJouJSGpW8DI5fOKutdMjO9vpSx2VWqnfJT3iZH5emcK5TrIZixsBR4GZgynDyObAP5fO11fjhlOb+ZxrSz8nTSa//h8qTzw9tGMTpF+bO+OktM4DAXcki3s61cHElk4aqJeewr66ptHXHKLGukpHf+0BOsPnVbNzIuP160vAU1ITfuH0zhroPTmJ0dxIqGBnz9JUuwuMZ5WZ7RN883srBcacx5bDlHFuV5FBy51O7cMH3b6I2Fy/SN1rXt5MZ/ko57Wc5v69f5OO2grZIejD6fX7BBgoXF00B9Xw7htv0JvPfn+zE7N443n7sSf3NGI8LHBAlHo+wojoXSP12Xe7JzLCwsLCwsXrjQqHl/XxI33DeAzV1DKKRnkdMA7fXD7Q1gfmst3ruhExe2hxl06KZ15zwHdlx9prBBgoXF00LOxY1d4yn8ZvsEptMZnL2gCmd3ViHg0azDM+k+OufJzlNZ1plZWFhYWFgciyw8ODiRxtbBBLaNJDCUyqMq4MVK3UPQEsS6Rr+5EJPX7P4ROPLqmMXvBxskWFg8DXTxUBdPU4UcEmldVdBaZT260MveU3gGlw+fKkAowzozCwsLCwuLMsqjpi4caDzOcXtqLmvuAwl4fagN6t41Z+ldeUh2li05sEHCM4cNEiwsngbGMZW2nPWVRWdNbmnW/5kFCU8HeyXBwsLCwsKijPKo6dwvIdLPEdjcB0DwoHO8fJfGk42xdlx9prDhlYXF0+Cwa9HNU3RC8j90TrqR75ndhKQcn+5jYWFhYWFhUUZ5dNQVAeeqgMZjjsH6KIGBM3V3OPWRH4tnChskWFhYWFhYWFhYWFgcBRskWFhYWFhYWFhYWFgcBRskWFhYWFhYWFhYWFgcBRskWFhYWFhYWPxRoRdz6Y20zgu6ngl03jM918LC4pnAPt3IwsLCwuIFBIds6jkpHpfe/i0Cq/1PDvMmYuehKoefqPIcgxKZ7/KbXMu3Z7r1hl49WKGYK8l8nMhbLCKZKyJfdMHLQCHocVH3eqD0sfOUCiL0xTbihnl7rXlaRAl68zB/6vGWh5vi+KijbEq3zro9pbdfF/LIUvbDLfRCgfPmYdN65bY7TvqNxe8PGyRYWFhYWLxgUHCJPYtsujCX8yCXdWhc0a2nl+UP0VY9UFGIkN+ESGqL5H7HQ5DgyJc3vDMPD2V2CHOc9egeSyOdK2B+jRcNEe8hfi2S/lwRNV09SGSK+I/HJ9Azk8KSugiuXBJFI+XLm0imLJcotgczrFoizz8MztxFN3i6CQz0Hfa6EQ0wXSHHc3NMI0LuPG3ueMB0uoiD4xnamAsLa4OIBFk/1tEEO4fq+acFtZpQJpLsUWwPF22TrVnQWw2oAwZ9vx0QWjwfYIMECwsLC4sXDDQL73G5SegK+NWeGWzqnTP0hTECQTJDQuMqkHyLVDNoWNoYwZ+tiKHpCNL9XEEBQZqks5B3riF4vB74KLio9i37Z/GxG3sxMj2Kf7pwBd5wcj2CCmx47LkMErwsdzxVwBv/Zx8e6DuIs5cswEcu7MCyugCy+SzrUSKPRt8u3NSdwK37psBDh+inggQvt2oiHswj+V7XFsXyKp2pc3Tac9wwRIZt8uOd4/jCbb2IZ3L42EuW4urllWwrtc5T4bmX+w+DyL/TSgoWsgUX7VPtVUSAzeqnbapZdWXhUDtbPK9gW83CwsLC4gUDh6wUkcwDDw/N4Wc7+vGDXf349c5h3LZzArfumMAtu0a5PYJbd47igf4pzOZF5kSG9O0Qu8NbTuBRXgLkQFclDn8OobSttEfshYvkWIfM4UMbR+zXNtlWknL8Yts0Pn3nIL70yAh650iyuT9XdCOXLSLoyiPsDiLNAChTWiNlAgQDfSuzw7+Vv7PlfBwo6CjXx9kroufgyFRH/nJwON1hUDSCgZnXjbzXD6/Xa+pyLIyumHbfRBI/3TGGH+zoxs92DbIdxtgOI/j5jj589cF9eN8t+/CBW/vxwEAGrLKR9jCeTKoj28c55uj16HSH2qv0u4zy/tKv0vfRUHVyyCOZysHrKcLP30W2QVFXO3jOkf/KeTga0N/D+4QjVVOW++gUgtNGv7338F+DY+vIz5F5GjDNsc1RTudsHf44+7TpnE0tMrhWAJBn4F3EnrEUbrirD9ffNYAf75rAVKbgpDF/D+dkcIRsZTu0OP7geec73/mh0raFhYWFhcWfPNwuD+ayeTzYn8QTo3NwkVBftqQZL15Rg7XtMZzUEcP69kqc1F6B0zqiWFEbRNjnMeTWIVSiew7R9Hg8zE/LYkpER6TJ4zK/tdRG9wnobe2MScyMuEf7juJEzoIN/dV5+pEvMD+3yuM5/JhymE88A3zzsRH8YMsB9Ke9uGhxFVqiJN48Xh3yorkmgHUd1bhwaRUaopp7V8bM2cjjBEcm3mFekkPU7TBVK+2T3OX68KPjznIf1YXpyeRF+4yg3FIpOifnKjBvymnOd84VpINktoBf7ZxCTzyBhbWV2NAZRW2YZzK9k4/+cpvlPjacxsMMANL5NNO14KWrq7GuLYbOugjL8GMonUP3+CgmWP+1zSHUhiiLWXZUMPcDSBbJofYx9WD5phizR2WV6sjT8krL3161EY/ofMmu41qOprQej5OH9unKUmnd2aF0Zr/RiAuNMR9aasI4Z3Etzp0fQVjT6TxXV674ZT48A8VSW+jKCY1Pe1iGc/UqU9RvnVNKq3Qmf+mybINO+SrTpKf8qo/Su5Uf08nedKbTzmozQWeoxtSFsQFHjnIMrLRO0MVyuM/IoPMpr7nxXHLzo0V5Cgq0X3WgubJ8Lx4ZS+Ojt+7C5uFpuEMBnN1RgaqgFwUZkJHZiIAcjVq1VPnSrQpTqZLU4viCDRIsLCwsLF5QEPGZywIP9sWxdXgOvmwaf72+A3+xthonNoWxtiWCk1rCOLEtjCV1fgTIXYZncxifKyBBwqubb32G2zhLaYbj3J909nvJIUdSRYzGc5hNi5IB0/z9xFACu0fTmCbRD/u8CHgNVTPyiCfpJteB2QKeGElhx0gaoyxLRE7BiY8kaorl9M8UcGt3HPtn5hCLVOKU5gpEKIjHoyVUXkSDIbRUBlEfhslfa6g8/OQLXgzM5LCH5e8YS2FkLg+KAZ/fhSDLYA4kigWMJPOYoNwKRvI8fSrlwo7hJHaNprjPhZDf4+QrOqf7N0j84rkiepn3jtEkPynWlbyRZDvsE5Ek9aOO0lTCL7dP4eBsHJ21FTivM2aChCLLVF5liPxuHkrj/r45ZFIzeO2aZrxuXS3WMRg4pT2KBSTgWwZnMZ4tIjmbwVkM5hZUh00Q5aJc3IUDkxnKnEH3ZM5cLfKQ6Qa8IukluU1JHvSwPXcOp7B3Ik3dK40Ho9TxJPWuJTN+xTAks0MzWUywbVNk0n7qyisCzv2jzHyMaWdTeYSYvwh2nseqwmE0R4OoCVL3lCmVKWKc+plMOPqapR63DMQxSZvR8imvl2EAg9aRuSL2kmRvY9sP0w7yJOAhnu9XgEdLybEufXHaQYK2xvKzDGx7aA+PDSZpF2nWyY0ohdYdEL3TOdpbCgdobKkcUEF7M23h0v0CqoObbeJB30we20cypn0nWXcdi9KeFPhRY0hRz0OzeVOm9EhVYO94jn0mwbozEds45Kd0lGeSaR4fyeLGrnGq14f26kqsqmGgxP4QkC0wOJCtdE85Ze4dz7LMvCkzSPnUB9QjLI4v2HsSLCwsLCxeUNDs/vBcDjfcP4rvbBuBJzGNL714LV6yqlL3y5rZVD2ZRTczi6INTmfx3v/djUeHZnDColq84/wFOKHRb57Y881HB/Gf9wygnvn+6+WLcOryGlz/4CB+el8vwuEQTlteh77ROB7vmkTRG0CYpPCqVfX4m1Mb0aS7ogmtZ//N3il85YFB9I6T8OVzcDNtZ30Qbzy1CVcsrsAPnhjFF246gFGS2YTfDzfT1CTTWNEYxodfvBRjE1l85qYujEwl8fpz2/Hq0xpJGl3IkST+/GAcX7pvAMMk8lojr9nbcIUPLzu5CW9eWYdYABjL5HH9/X24+YERVFYFKXcz+oZmjdw55lNBnb3kxEb81cn1aAh5kWOQMJgA/nvrGH71xDDGJ+ZQKOQQCEawuCWIt5w2D2d3hEl0gUkS6r/+YRfuGRjE+Yvb8OENLVhSG0SedRA1dEAqwjK+/vg022UEs7Oj+OQFq/D69VW6SMBUDJJIRD+xcQA/2NaPhoIPn3nxIlyyzGmzgUQR33h4GL/YMYY5RoBqP7/fh7OWVuLvT23G4hofPNxHropbe5L4zD296BlhMEJ91EYjuPSEZtzfM46Z/mlcsa4Rf39OC3KZHN76H3uwazqBC05sxj+e1YLWCg8mEtT1xiHcsnkUlb4CvvKqVWit9eFHW0bx7fv6kZ5N4xMvWo5zVtfg4QNxfO7G/TjAdnnJaZ0Yy7lx4+M9uIABznuvWID6mIfkOoNP39uH7T1x5LJaQuZBTRR49SmtePnKGnOVSMHPW391AH0MCubNj2F+dQT37xo1sugK1PzaAF53VidyNJ/P3bHX6ABeH+rCLrzp9Fa8cjX16FH9PWB8hF/snsG3Nw3QXtLIFDIMimhvTVFTx4s7giZge6RrBh//xV4T9F511kIcYL0e2DHCICoPb9GNea1BfOzS+ahloHDtbV24bc8MJoN+tmQRwWwGtRThL09vw9+d04QZRopf2zyFH7G/xKdnUcxn4AtEsKAlhjec0obLFkQYiLAu5qqQxfEC9RcLCwsLC4sXBI6dFdOMuGYws/mimfFOFvSt2W83Mlk3yXABORKrvoIfw/lpTOdJgrhPyy+UV7bo5bE0+rMFzGo/97qLLnS7ctiRiuO7j/dhy2gKkZoY4sigJ5fAj54Yx33d02bhh3DL/kl8+q5+bB0ZR9JHQl5fhbgrj0eGhnHtnQexqWcOdRV+tDbH4POFGUSQYHkCqG2oRVNDFAGSa/I49GRcOJgnwWa+ulqSKrjxMxK3D/1yD7YNcr/HDW9lkGV40T01jc/ecQBf3zKC6WyRNVR9WE9XCtsSKfz3o314bHQW/qoA5nJZdOWS+OHWETzYO4cc654imfvq/YP46sb96JqZQ3tLPU5a3IpZnwf39ozhepJeXYU4Vt//F/TIWT1lyqhGgRozKFAXWhok3juWzDF4c8PF4MNZQuVC/1wRnyBJ/fqDBzA4F4c/6qXcQUxkk/jJ1h7828Z+HJwme2by7QzCPn7zfjxMfUwWsgjHgpimXr52P4PA4Un0srXjWlLFNpQ+BmgLg2z3WQYTecoh8qxlQVM8OlBM4kCOtkJ5BOlklDJ252YxxTRCkvXpY377AgV8fks/vrtlHxKJEWRobFoW9fhQBv/yq724a18fZhhkRUj+MyEP9pNIf55y/2jbBOJMm2J+25m+D3O4t3cSP9o6hLSXcoZ9mMgn8fB4HO++/SDef8t+TLs9rH+YMmSxKz6Lbz44hP2TBXj5L075frxjivbGoGSCARXziFRX0TZceKi3D++7uQubBlLmCU1J6naQddrNQOizD3Xh5j0jyEV8SDJIHXGxzJ4h/GAz82DQ0VoXQVVNhO3H9mFAFwzF0NgURnWF19zQ/N0t4/jKvQcwRltb0dmMC1Z2IlQRpj0N4vo7e3FHb5xlOno8fA+IxXMNGyRYWFhYWLxgIIJnbtskhxMR0rWCrD+IW7tm8LWHhkk0x/CNh8a4PWaITfc0GZCLBMvvRoHpAkfceCsq4yEh8/lCcPn8hrSKIHndJEneCALw4bx5dfjYRZ249tJO/PWp7Wj0xZBIz2H3WBazJEyTJIDf2zKJrtlJLGlqwHs2tOP6S1rxtrM70BatRff4MG7bO4WVtUG8/+JOrGmNMEjIoiXixT+d1YJ3ncM8IyK1lMbvoYxhlu+lHEV0TabxH48NYCiTQlNVLf7m9CbccNkCvOO8DixobGQAlCPZHMPWwQS14Gaw4YXHG0KQgc+l82vwqQvn47rL5uFNZ3Qg6g4jnsxi71gO/EI8RQI6OI26SBhXrWjGhy9qx6cu68Tr1rQg6qvEPh7bNpwmEXZ0xWjM+TbhSJl6lI4ZONsKvtQq+rt/OkMSncID/SncfTBJchvHo9x2sf5tjTHUV/mRYjxxy4EZ/GjXABmNF1eubMXHqadP8vOqkzrhZjC1cf8MHutNYCZTZLoJ7JtOIuSNUu52k+4zl7bjVes6UIkg3G4fdcDSJQc/Xi814w3ATzJdXqxkdOWhHXiD8Ab8/K1lU1q37+G+EM8JQvdmCPp28VwtwfExzUULmvDWDWtx1Yn1DCCA/2YQsHV4GPUV9WyfdlxHO/nUhfNw5oI2TGTi+Pn2SRyczDIfMDCk7phPfSCEN5zUgBuY9iMXdmJla5ORKhNP4sx5lfjU5QvwiYsX4IplzQi6A+hPFvDgwKyxd+n0p9vHMDY3hY4G2tvF83E98/m7M1owr6aeZY3jW4+NmeVHsmeX1s/xuy7mx9toa5+9ogN/w7S1lTUo+gLYdHAauVwef7WuEa9ZX89OUYCnUMCJrTG8+/wOylCFfvahm7tmGYCnsKK1Eu+hrXyC+bz5zGZ0NjRhjkHhfQMMoWlXJiq0OG5ggwQLCwsLixcsREhzJP+/2jeEa+/pwmfuPYDr7uPn3r346qND6JrRkhiRcCe9Wfvyf4K5FnII8aRz5pNEL4nignkhvHJVNRr9XmSRxxiJW4ZZ7xlPoY8ff9GNKxZW45UranBOWxivXllJwluJNQva4fKT/5O4zq8KoEo3SBBaQ7+gxo/5lT6z7vsQGS9B94ruH5tD31Qarlwaly2owJvX1uHieWG8dmUV3nBCHfwuH6amMtg/kQI5IaGbUouIkEyez/RXLavEhfNieOPqetSQLeRZ9/FEEkmSwigDkrcyoPnoFUvw5lNasLDSiwBJ9QkNYVT7mE8hi/G5LHKlR4D+vk+wyfsD+NWBSbz75oP44O0DeN+dg/ga2yOTy2FJZQVee1KTWbI0ksjhxn0TKGgJVTSECxZXY0NHDOcwmLpyZQ0i4RDirP/OsQzlKeKB7mkkkUNDdRQvXlGFSxdFcdn8KN64ph61DPgUgPw+OBT7HMKTk1x3OoFz5tXi7Qzs3nxOIy5dU4MR6ueOfWNk/yGsaIjicsp+clMAly+qwBWL6xhOeTAaz6BvJm2sTkGKbrJvqPDjxcvqcH5nFC9aEMWGtkqE8kU0+8J4+eo6XEObu2R+CBex7cI0nmwhj8F4Djlm0j+RwUEGbwFPEC9Z0ohrFkZxSpOf29U4qaUKPqbZ0TeDGQaBZWhp24bOWryChP9S6vbqBWGsrmGQRF1lacceBmoNUR/mUS7V30XjqwoCi2tDqI/4qW2G5aoAZZftjM4kkKVdXLCgEh+5ZD4+fuk8XL2kivajgMQUaXGcwAYJFhYWFhYvPJS4nGasXdk0lrfV4cIT23He2lZsWNOKs9e24VwS9pao1kg79ygcC7PgiKTGXJn4LTBfHtMksplp5vkRMkrnTcNFEm7dRJpDF0n8BImTh0SxhYQ/5HORWKdR63fh79c34MtXdOJvT6pHnd/HPEpykGyZL8O8ylU5LIOIq55Y0zWTRbzoQZHkdyEJW13AyywKiLBKpzSHES14IPrZO51FIuuGh2n1SEuQrHk9bh7RVRQg6NZ9DB7VgulVLhDzu7GwPoqxRBb/ft8A3vr9vfiH7+3Blxhojam6Xh/FLJi0vzdYAZHh2VQOY7Np9E8VcGBymsR1HItIpj9y+SJctYjE2FNEJlvAwGSK5fkRz3vw7Qf68fc/2Yu//+k+XHvnfkynM0gggwMzc5hjHbMMFPwMNBZWBtEao24on67CmJuPTTs5Oi3jaPHLv47c+7tVUC+AW14TInH2Ieh1rjCkknmk5lLmCtWuyTl8+vYu/CPlfutP9+D7WwZpI3nMZTIk+CnTnmUbNE8c0od5SOaYn0SdhxQ/1tBunCs1tDW2m9LIPnMuL4Ml5sW2zrCKOY8Hd+2fxD/9Yj/+gWV+4OZuPNQ3h2yRx+NJzJL8KxfzuFjmUefzIFDSTcCdRw0DQdmh+wh9uQsus9TOefKSbJVJGGDMr/DiRYtrUBesxZ6eAXz4xgN4G8v81KYhjMXzWFcbwbq6AHweBeROvSyOD9ggwcLCwsLiBQNRKEPsyEO0nETfoUwab1lWg69c0Iyvnt+Mr/HzjQta8bHTm7C8OiDaYh7zKJImymXImrIR/dL6+SNg0pLkmIc6Fkk8C1r645AekTdDusrbBZ+5/8G8eZh5ekrpzHmUrSHiw6LKAMmsnwTKbcia3rJsknBbVOxw3pSjLAvPFTnXE3nM40CZVk/4URoT2PDjI4Eskmhqllf3Yeh9CkVXxqQ1oEweBhFK7uzjcRJCLboRwdXNr5+4ewgfvrkLN+4fwzTThyrdCEaoL+YlsuhiQPTkAdRvwwRSpgzqh/UHCe3lS2rw6Svn493n1WNlTcSk640nTL1ijJlERKW3oq5WuPQEIzcGzZOWMnhiOIX+8RTaIyHMq6hGZcBHeaSaPD8MlEqBkGknfgrU2SFCpDobuZ2/ylswN9UaHRClanlUz9+hiqadXLIX6Zp6YT5F3bit4knYE8kc9o8lsGsoZZ5MNBvPYkGsAa0VwdJL8fS8IRF25qXmKBWapzAmT5XAfItFEW0HThsoMYvhMT1adybrtLlqNkyCvnMkgT1DCewbTcLHNJ1VzWipiPIE2anummF9aR+66VtSmEBVoYnaSPkyVRl56lT5Oi3pHJNW9cbyV6+txr+e344zWxswy3Pv6O7Dzx/ejQ/cuB/vu70X2yd0fc2R1eL4waE+YWFhYWFh8UKECI2PRCZA0hjktyZJ9Yh7fZvnuBvSSwJEwmVm783jJMnt+MdPYqRZXEOMDMc5THSccMAZaLWlNwMr2DAokbxGnx5DyrzyJHE5LWsSncwjxTP0CMstIynsG08jldUcfpmCOXmKNArHvnFYOejZ/LUkxkFK6SbhzqacAENETmx5yrxwLQc/99VpOZN5kpMTgBwJ1UGBTYlrOmXyx2MDCdy9awi59AxevKIJX33FYvz3y5fioxfMQ7vXWbZT1JWJkoy/H1zm3Q9r6sK4aEHMvLn4RQziagKVmJwYw292jmKM8ou8u9hmPr8frmwKUdbjTWe24LMvWYAbXtyBG160BDdcugg3XLYQb1nXgCp/AWmfB1mvFyPZLJJZ1c3RnVd1LHpNnmVIrQ7tldadoEda0gFvSUanNZ4OR9df+RhQhx6fIh2WmUlhZWsF3nPJInzqmoX4xIs68akXd+Laqzrx/ovn4Zz5NQyAKEWpERw7exKUjpcPOzbp1E8vQvO52dYB1TUHLwOtl62pw/UvWoxPv3gxrn3RAlx7ZQeuu7IT77iMbVij4FbXKXg+M3QpwNEvlqF8D4ciR+AIuRQoSxzlktDVHOr7kiVVuO4li/GJKxfi789ei1PmdzJgSOHm/aP4wfZJpGn/6msWxw8O9wYLCwsLC4sXKAw34Z9cwZkbPfTRAZFRcjndNNqbKKInQYKdd2M67cLOiSQypE2aXdesss4yvIwfQyj51xDJEoEqk1InWxeWNUZQF9YVhRQeHJrG0FyegYQfXVN5fOyeQbz2x/vxxQeHMJlxziP75sjtxiRJcpxMLWvW82ie+QiGRuiJ+YtrA6j0mYJwd/8sdo0x9GD6gXgev947jRSJX9DrxvyaMCIk2LqgQWpXyuHJIeKnJ0HtGEliLs8gyRvGmvoI6kM+pJjBgZk0plmkljg5ingmcM4zrwTjph4be96CKJbV6wbxEH6zaxp3d2lpjAuhgAfLW7ifZacSGQZTeSxlvc9oq8D65rBZ2qNatVb6Efa70VwXMkR331gCm4fTmMl5kcp5sIWB2ISL+im3kz7Uc5aRYpb16J7NYDxdNO8nGE8V0RdnWWqLZwoaQEXEi/q6IPTIW+XHRsPJjQGc0x7FKtY1m80hxgrUll6MZ2zxGGjPoaCBx48NINQE5mVobPcwo9l51T5UUmdaVnRgfBYNMS9Obw/jzLYQmqI+zCTTWFTtQVVIQbEycILjogmg1An0X6HTbweUguTRo3BnaJ+JnF6y58a2yQw+cmc/PnPfAHaNz+HCjgj+9dwavOHMBlTEokgXUuieTiL3JPWzeG5hgwQLCwsLixcMzONLDdEhNyNxMqSdpEZfT0ZRRKr1Yq16kiuRpb7ZJH60dRJfv38YX9k4gJv3TJhHgjpv0XWg9eMmNFDW/FO+oqBvw4NE5nTlgOW2VAVw4rwKuP0h3Lx3Ap/bNIJvPTyBf39wFPfuncHs5BQ6YkFUh/wmEImS6OrfWDKJ7z8+jB89rHXdhdIVD1L8gma7RQyBhTUhnKq8SazvPjCCz943iK89NIQv3zeEn+4cRyGfxgltMSxrCEHvSNObcbUsxcjJ386cscTlfhM8aQFKXjEKOih3xKvAII3bumfxja0T+Oojk/jqQ6MYzs6ZmeSkowIHzLBI2VhE6bc05OTvQL/5kS6ZSGXq24ELHZVeXLQkhognhLn0NH6xa9w81rQu6MLVi2vQHK1AIj2D/3lsBDfcO4RvPDyKL1GXH7y1C9fethdbBhMmELp6aR0qvTHMzE7gh0+MGnm/fP8QbmBbjmi5jkdPKzLimRfj1Vb5KZMbW4ZT+I9HRvGth8bwJerxwf4pZCWxEmoZUukc6cn5YXJxPuVYgvWRvSmk0+4FtKk/X16HqDuIwVHqjnJ88YFxfPPhSdxwzzA+cFM3vv7gIIYZDZqFUWobnueWXk25usLFvEy+CqikN2XttGHZ3vI8puVBuldgEYOkMxfUIkD5bt87gs/d02908PUHx/HxO3rwwRv34yc7J0jwS3npD+vEHmLax8lX10OObDsHCuai/oAJEvaMpvC9h0bw0IFp+NmBtg7P8fd+fH7TEP5r+yR+tn8Od+pxusk8Iu4QFlX6oBf/GcO1OG5ggwQLCwsLixcM3JoRJRcxfEREhwTIRcKuZ/EbHENSSJXME4VetqIWi2PVSGfjuH1nD4loF361ZxyVVSEzUytyKCKlf+ZmUS1LKmr1d9aUZ4g2v7VUSaStqCVLPCfgKeIVq+tx/sJ6TSjjfx8nqb1zP368rc/wzCtWteGKFVUIe7wkYW6c3R7DvFAQxXQcv9q8F199YABjiRw8zEcLisisDZlTPRojHrxmXQPOm1+HgNuD3+zux2fv6sJ/P36QRDuDU5vr8IaT6rCoRjdFAz69kVdBBgVRPcx6d+YqFApZE4BQU2YO+bT2KE5fVAmvP4q7uwbwuTu7GYT0YzqdQ8AbRJr6HJzVMhOHTOr5+QrGNOOv5VmmwCOgtev6VwoVTHmmHgKjLr01eENHJVYwoNF7Eh7umsRDPXopV5E6CeOfz23D0to6jMdT+M5j3bj+rn34yqZ95opBFaMDrezxM5C6oDOCP19ZhWggis19g/j3jXvxxYf6MZPM8bjzdB5B92jobcIvWV6NBZU1SCYn8WPq7dN3dzPgmkIgEKAe9BQnyqq2JLQkSPrXk52cfWUqrbbOlexDbcT//MR8RfOSs788qQn1zG/bwDj+fdMBXEfZv/t4NxKZLOrDXiO3dBGUQTBvY2OlnDWnL+JeYNvoBXeG1JcgizZhnXRP2XR/SnOFB69dW4tLFzayvX341a5+fOae/eazcf84KihHTdBrgkbVxVk2pvP1YZkmGC7ZGo/JziWbyl1WE8A186sppxsDY6P4jwd24bb90wwAgvir09qwoK4aOwZn8Jm7ekwA9JOHBuBlpzh3fi2uXFJrlvpZHF/wvPOd7/xQadvCwsLCwuJPGiJXIvHiUokMkCThbmuswvmdFegggTpMsQ5DtEiPGl3YFEOi4EMk4Mey5gq89uQWXM3gIUmy1dbgw9kdUbTFApghUc74Asw3Ykj9wird/OxGOl9AV7qAqpoYzmiL4IS6kHmaUX3Yj7XNEdTG/MiRDMfCYSxsqcCrSeZev7YenRUKbEiwGdk0Rf2oJOnN532IRWJYPi+GcxZUkEgCQ5S+lkT5fJa5uNZj3tegm59Pb6tCQ00YOa8XVeEgWupjuGplPd5xWjNOaArCw3MZJ2Eml6fcfixoDBvi3VHhN3XXjc1d6Twaed5ZbSyz1o/qgBur9bKsSIDBjB8VrMPZDBreelor6iNeRCtYh+og1jUGzZKmAykGD5WVOL09gpO4T/cPqDWcj8A2IQGdZTlpnxsNdTU4e14ES5iHoisR4UoGa5XREKbd0ncE82I+0y7VAS+W1odwYlMUEdbXQ6JbFY2ivbWSOmzCG0+uxxIGQiqJnBur2HZ1FSHkKLfyO39FHf7mxBY8tHcSc9kU1rTEcFprDKwSOioDqCfJzcOPWJDt3hrFG09pxRkdFXDz94KmEC6ZV4kYZZvJFDBDHbfU0Z7myxb8mMsVMESjqq6pwrms+4paR9+mvvzordgnt0Qxvy4MV8CHUJA6rYpi9bxq/N2pjbhmZS3tQ8EIkM64EamowGnNAZxB3VewDfTo2/FsEXHa26KWMM7piKE+6DGB6wTlGaWtz2/QI2FjWFrDYIkl18W8WEcbaar0IuX3MYgKoLkuiotI1P/pjHac0xmDn4Q9TtkHCi401VUw3wqeHzRBbS5XxDSDs0w4hpWtEdYrxkDaw6BHVypi8FAHbvaJBurhlPmVOJmyagnYGtq0J+gzfSymR/g2RPGKtXV407p6LC+1j8XxBdfw8PCT+UQLCwsLC4s/PTA60A3HmofNFbXeXPOtbmjpvlnu8BRQYOF2ecyTdfREI/E83Qiq+dps0bnB02f+OgGIWTbDo7pXQMSsNN+LDEldkeVoNt08zYjlK4BQfnpujmam9YQfvWHYz+zd5ooDD5agPLWUR0uDNPuumpgJWJ3D3zluMoQwj7/UO3Y1ue1hHlmSxrwelK/ZaLdubHY5s8XKXLPh3EozN6+5TqDlJDmmkVSSm8S9qCNOeZoxN0eoD81r57W+itAyJC/LKhh9ODL6zeyzbnTVmbrZ19Fd+ak7ZZh6UXFmVlq3u/KwQjbd+CpIQqNtlcmDkkRXPaRDkW7zpCO2h56/b8RhGt1ToCVDHs12mxlviaK6s92ZhtU25egdFMNTebzsP3eiL5XEa9a34m0MoKpCPM50qm2BZFnBitrOp4oSWeYp8RSMqc0K+kguJtXbMNTGqm3WlCntqQ4SrgzVlzIZlbuQVhlaPkRIx34PdW3yley6EiC9ylZyzN+olWUVjB0XmInyZisfKsOxB5FyXb2R/WoPjzFvc/UrL9kku9LriVrShfqFribJYn3Mg2fL9imDyiyw/sWC5CCYh8rzUy+yY3OzMktX4CI7F1S6100NmBf8uYzeVVeVqSR6ipeX9qirHOYGeSdni+MENkiwsLCwsHhBQjzVoTIijCI65V9PDTdJkgiW4YciOtzn5XmiNmY9uojS0+SrLf3UeYabHYHysfKVDuV+bBpBadwloqr3HqgIJTT3JTibJv8jYfLVN8/TOU+eRjTOyeNYubWeXWcce572uk2UQh1oqZLIKOUwdSjLpjSSjSc7dTqc72+BaRTAKMmTtYl+Hqo705o0ZfC3yi2foroWGDQcKW8Z5XxUH53TM5nGy/9zD/pTM3jt+k68/fQmVAYdWc0/k6lDYFWmbjpXTGnk1Dc/EkupdKwcOOnAoXb5P+quZJJZMPdlmPTmp4HzFmgdo35K+wTJpjKcc1Skc/RQHdXeZr/ZfQhHtnfZLlQXhSRO2KpAjeepTCOLk1bQuXp3hjlH+lD4wX2CzlHEcbgOh88r24Zw6N4TbfNzOJXF8QLHCiwsLCwsLF5gEGkypMgwlN+NomhGWQTQvFegtE9PZdHvch5Pl692ab/SHIvyMd1QbfJ/kjSC9uc1Y86PKUNgOdo2eZd2HYmyTOVznjzN4TyOldvM8j/JefotfSjfMhkUaTxSNhFBIy93PB1JNmC5urbzZDIIR9W9XEAZTK892q2Pkck58lso55Mr6NoLf5tyJTMPsFjdU3CIzPJTrn9ZLnO+2a8Ujqja55Rb2inwQPm8/6vuzrnldv3t9jftc0yAIJT165xz+Kg2nf3O9rE4sr3L6YRygCCU63is7Pp96BzpoxQgCDrH6SO/fV7ZNg7JW9r/9JqxeK5ggwQLCwsLCwuLPxpEtsuf4xLFAnwe4PQllbh4eQtW1Ifgc+mxoaXjFhYvUNjlRhYWFhYWFhYvUDhLlPTuhym9i4L/A14XIl63uS/AwuKFDBskWFhYWFhYWLygoUChdOuAWRJjiZGFhV1uZGFhYWFhYfECh1nXr/XyNkCwsDgEGyRYWFhYWFhYWFhYWBwFGyRYWFhYWFhYWFhYWBwFGyRYWFhYWFhYWFhYWBwFGyRYWFhYWFhYWFhYWBwFGyRYWFhYWFhYWFhYWBwFGyRYWFhYWFhYWFhYWBwFGyRYWFhYWFhYWFhYWBwFGyRYWFhYWFhYWFhYWBwFGyRYWFhYWFhYWFhYWBwFGyRYWFhYWFhYWFhYWBwFGyRYWFhYWFhYWFhYWBwFGyRYWFhYWFhYWFhYWBwFGyRYWFhYWFhYWFhYWBwFGyRYWFhYWFhYWFhYWBwFGyRYWFhYWFhYWFhYWBwFGyRYWFhYWFhYWFhYWBwFGyRYWFhYWFhYWFhYWBwFGyRYWFhYWFhYWFhYWBwFGyRYWFhYWFhYWFhYWBwFGyRYWFhYWFhYWFhYWBwFGyRYWFhYWFhYWFhYWBwFGyRYWFhYWFhYWFhYWBwFGyRYWFhYWFhYWFhYWBwFGyRYWFhYWFhYWFhYWBwFGyRYWFhYWFhYWFhYWBwFGyRYWFhYWFhYWFhYWBwFGyRYWFhYWFhYWFhYWBwFGyRYWFhYWFhYWFhYWBwFGyRYWFhYWFhYWFhYWBwFGyRYWFhYWFhYWFhYWBwFGyT8jiiWvgv8p+3yb4s/JspaLh5XencVXebzTFA+99jzjyebkq71TxIdLdfxJKWFhYWFhYXFHxM2SHgaFF1FuMyHhO4ITufQJDd3FfhXx3lYf0yiIxI+V2CrlkV+so/T6No6flGmokZeN3Vt9Kv9Dnl9riESnacYWX5yxTwKJP1PJZXsSA3idlHzUj6r4nKXfvNHUSfy49Tt+IHkUZhgxGYbGBmfqpIWFhYWFhYWf1JwDQ8P22H/SVAmgQWSOP3zuAvwGiInMqjwgPuQN2lyBbE+wO/2mDMdOvv/H5JZpC6nWWp+3IfCgd9uYre7CHdR6RnmkMSW0x4vkETCWDKPeKaAypAbtQHVK1869lxpmSWT8BfJlh/rnUPfXBaxsA8rakNoiChw/G2I+mcLTlBpGDehuEEQ9/axLVzMr1Bg65WCoecaEq9ghCxiaDaPdMGD2pALFT71BgsLCwsLC4s/ddgg4SmQyhXwSH8CfTMicFmc0BzB8jq/GKIhqW4SqMlUDo8OpDE4nUY1Cex5C6oQDorIPjcqValbx1PYNZJCPu+Cl7/JO0uMVHI5acIhD05uC6CVspaDnucySPB4FFw5KBY0K8993O6NF/GFBwbwWM80rj6hAW84sRZBVqp4zFKd/99wuxUkAO/52QH8ascIFrRX4+3ntODseTEJV0rlQJLun8njkQG2SabIYFNhnJNGxyJ+H9qq/GivJAkPOO1zPEBy6ErHvqkMrrt7AD2TKbz8pAa8dHklwp7nVv//v6CmVFubqyglFAo55BnruY+TYM7CwsLCwuKPBRskPAVGk0V88NYe/Hr3IMldHFetmo/3XtCJjhjpa8EFl5cEaiyN991yEPfs3ot1dW34+quWo6naTSIh4i2i5SwfEQV3vn+bBB65z8wml6eYCWde+kgycihl6ftopPn5wqOj+OrGAWQyc3AXCgwW0kfPTudSaKhpxmevWYbzW0Nm9tqsTTqU59ESOmvTy7IolVmAYj7Obx3X38NXI7RVRI710R4eM3XSsWOusrC+mpXvnshiNM70JJ9NVT40R73wuzy4Y/8UPvjrA9g70oXLV67ERy9fiGaS6QLr5UhZmp0/Akdr6PCvo/c/GQ4fUd2cfHWW9jt1dsA6qSqU/R9+dBA/3rEDi9oW4kPnt+K8TgUJR8sjkvm9PXG891f7kEvPmBwLObUUj3l8cLm9CPgrcNHqOvzTKc1YVuVCjixUOjQyGB1Jn7ImJ+9j7cmRzKmhiK2gJlUuSuvM/etA6WDpDJPYbB6Zg/PLXF1iG/z31mG876Yu5OMj+IuTVuH9F3agJuRm6zo4nPeT4EhhnhLHyPRb0PGj5Sv3q6NtsqSTUgBplniVcLiEI/cpXdkmD+8vp9JR6X8mXcTBiRySuSK8fhcW1fgR8zm6LUNWrl+H5XJksbCwsLCweD7juB/NnMG3TIocAvDHg6hDmeQVkfV6kfb5kK1swG1dCfxy9wzmcpSCBMSQEX4X/SRM/iCKPi+KHkpLYqxjIgziRiLBWmFi1nWrNjqnRDFEnvXtcjGtjuuE0syllzs0k+sya8GV6kgc+9uBtBRwkXgGgshQnqbGZmxYvghnL1+Ic5YtxNnLFuD0pQwOFtejKaC5esmm+jjnlnmVoZWSmztEFHVNQmTTTTklk66i8DR+nHSGNDOdICLrUFz+ZlrV9VA6822SmRRmn8eD72+ewMu/vRF/85Mu3NUTN0u4iixrWX0Y16xtxhUnrsZlK2tQGXXzWN6cLZTvFzE1KW3rn2qQ57cjh3PskAzcr4lwkXfu4C8npc4qf0z2PGaauPyRnnhA+8qhjsmTJF/t9XTEUKuksgE/Un4SzKpGnLZ0Mc5avhRLFrajKlaFVCGNnzx+AB+/uw8HGSx5jVxSguR29CQZpHeXliY5R82HISl/KZiQnI6OPeZb55Zk5Ld0UKoY/+mvUyezRZvVERmAUxY/zFL3WpzeUY3XntiKF61dhouX1SDIyihAKOevNlYBRv/Kg9BSLAW8HtkL5fVSacY6lGnZllmmAc+TTp37f7ihvLjb3K9htpm+dI7K9HC3md035amv6pg+Sqs+x223vnW65NLHaTGzvM6UpWMeU6ZjKfou5cmPgmrZjvRzcDqHd/+mCy/9r/vwtpu70ZdkXhRCeTBH/SEcXUjv+jAT9m2njSwsLCwsLJ6v8Lzzne/8UGn7+IQGcrFQDeAayMvj8h8JZuzn30SuiDsOxrFnIkE+40G2kEE8CSwhcW2tCBhuNJ7K4U6m6R6fRWskjCtX1SIm8i2CRHKUIhGaSQOTyTxmEnkkyRo8PNHHJDxMkEIXipjJAvGMmXs3x2dSRYwlCpjluSJkQZ+pPv9IuvLnt6Ekm4fSeLg/gUw6jlesbMVbz2jEhnkRnDe/kp8KbFhQgTM7KsxsfY5sfCYDUDx4KZBInfJIk3tNc38iKxKmey1cSJXSximrIVGs2zgJ0xQrFc+qjVwwVec/BQhqJhG0eN7FNAVMJHOYY7osdeMjyRLZyzD7We67uzeJB4enEIpWY31bDB0xL4l1EWG/By3VAaxuq8CqxhCqfKL0sgWHDM+xjaaoq/EUdcVPhszNy4wZtxFGYUgyqJuhEhMsRwFXgeWPUZ5x6jeZY25MHyztN7SupN5p1n2adVM7JFlnswSKQaBm9Q0RZNqbdk5jx9g46iqqsaGzAp1V/lK5hyEd7J5M4+auKRSyWZzSUol3ndWMixbFzJWHExqjGIwDA3NJ9E5msKYliuV1IWZDa6BO86zTZDpP/eVpRww2qE/1BxPjUWbTKyiO6jbLek6qbkwr3Xq4L1GgbthuWdPGjt3Msj5zWRcy+QL3KehTHkWkcwXaomP7ytPLMioYbM6rDWMt22BZQxBhX9HIJHtVuwv6OzrH32yDIPWp9pWBJ5luijJPsI2mWYcs2y7AvqT7ewTd7K084hmXuQFcupXNjVLn0zRCmZ/P4zX6lu2Msw9NJXKsG4Noyl2uj8qnVoyuZ1mHScph7mVhBgoBfEwrkRSq5Ej/59KsY0aWpDM91C/lTxTZ31gg0/rVudkXErSdA9MF3HJwBkPpNOqqq3D+vArEfKwjz/aw/KL6K2WbmGO5tBfpVX02wAI9ptNaWFhYWFg8P3HcLjcyAz9JkNj4BBnPFAlClkwnHHCjOuxFVCRJ6cRmSji89UzhEEXR3FGSrffdNYBf7BlFgcRBy0jCpAYvX12Pd5B4N4Q92D2RxAfvGsSdu3twSm0DvvryhWiO6E4AEiMSjl93zeKBfTOYEStjXYIRH05sj+DyJVVYSCKsKwnbx9P43hNjGCQDX9pYhcU1Idy/bxyDExlDpurqQ3jDSQ1YVuUlb5E+Dtey3HDlPSInX9s8ic8/MIKZ6WF8eMMqvOWMepIxzb6LOYvU8C9lSZFA/WLLGO6gjPUkt69eW49ldX6QH+J+kvaf7BhnHgm8aHkDrjihGpv64vjZtjFDpE7srKH+Pbhv7zhmqScf5TyBwcfLV9ajJcIymL8Iavd0Ht/bNoG9g3PIpEgRSarqSPqvWF6HM1rD2DaewP9sHsSm/iwOzCYQcgexqNqPZbVuvPX0dlRQld95dBgHxpM4kyT8z1ZXwa8rNiR2+6ey+MWucWzvm0OadRHBrKrwY8OiSly4IIYqL+tYcOGenhmS+UnMMchZt5Byc9/du8cMofV681i/sIrBVB3qS/cDZHn8sZEsfr5zBP0jCeTSRXgZ1TU1+PCSFQ04sSkEv5ekmuT7rT/uwY927saStvn40IZWnNMZMXZyJFTnHx+YwVtv6UV+dgYvXtyMT1yiJTsKeRUAFPDZh8bxH4+PIjU7gOsvPRGvPbnOrH1nDEq9J/HLHSOYnKH9kxyHaP+rOmJ4+dIqtFT42LbOLHk3Sep3to1ify/1wf5SzyDwlIV16JpL4eBAHCsYZL1sdTUqAl58a9MAnhhJY3FTGH9+Qh3mV/mMzd96YAo/3zFmbtB/Ke38jPlR7BymfW4eRTyewaWLq3DBihoS7AL+68Eh7KTtrm2vRBXt+rZt46jI5/BPF89De13ABFe/3DuJB7qmkeC2bL0q6sd5S+twOdsn4mMwwzb43x2TeLhnFs20wTVNVdg1PIs9gzMAg6EKdvIrTmzCfPaVm3ZMYAvbMs/2iYW8OH95FS5ZWGFsxNEAGIyx3XZPYFd/HFkSfz1HoINB/SXLqnBycxARr5sBQh5fuXuA5D+DUxbVIRh04549YxifzcPPIHBRQwR/sUZ9wYfvsw/85IkpPD6WxVQmgVggipNr/Qyyg3gF9VYd9OLBwSR+xjqMDNNWaIdeBraVNV5cxb5wTkvQCZzLHdXCwsLCwuJ5hOP4SoKzEGDrSAZfemgE39w0iBtJYH5zYJZBgxudVSESHidS0BhsZlT5XSbMzxxOLgmSyju6p7GbBDXoZ3hAgpEkUZiJA0tqSGZJhHSFQCS7azKO1lAEL9aSmKDfzG7/1+YJfOXBYTzaP4z9PGl/fA77xqbxaF8WA3M5nMJgIeL3YttkDl9/dByP9I5jyyTwwK5RPDQ4gX1TEzgwM4dto0mSMt1oHEHMEGTWlBVWbfOHAgYtOnHw6FAKD4o4p+dw8fw6rGuPGgKtaim5lnFoCRA5OwnQGH74xAHM5sI4o7MS86oCDBKK5vxvPTaG7T1dWFhbi9MWVJKsJvDtx0axeXQWj7JNNjFAeIL1OUA595Hg7xguoCrgw9rmiLkq0T1bwCfu6sf/bh0mmRzHvngCByYnsWM0gZ0k4W1VQZL4In7EwGP/bIYkkryQck0mMuZpRhctrjZE/JsPjuKOfV2oiVXj7PnVJGFF7J3I4nObRvA/W8dY7iB1m6KuSC7H4tR3Bn4/CWdjxFwduKcngf/ePIbHJ+bMTeb37WUdxqfQNTWFfTMJPEGS1xgLmhvTFUrddmAaH7qtF3d1j6MvXgBjBGydnMXWwWn0jOUxj0FcK5mpQq6bds5gx9gYaktXEuYddSXB+VaQsGs8hZv2zyKfTmFFbQXOZyATUqDBBtGM/+ahBDYPJJDOJXDJ4lasIaFNMkC4efc0brhnGBsPDmPP9AwOkPDvG53A4wwcJpMerKRNVAZcJqD9woMj+M7jJMhjI+iaoVxTaTzYm8D9bKvdg0MIMqg7k20c4PdX7xvGnXv3IeetwKmdUTTFKDfFVd2/xaCsezRNu6nEysYw86N90o63dPeis6YGJ7Oeccr2LfbJm7sHsGXChY09U9hxsAvD0zlctroFbh/w9YdH8BWmeWJ4lPYRZ8A4h92jU3i4N41oMISlDQHaXRHf3j6Bm3cNYuuUmwHFJB7smcAetk0X23PXRIL7C7inewa/3jWCXVMz6J4Yxy4G1N0k7ovrIphXHdTkP8/J4aP39ONnT4yzz9Lekll0TUxgO4OhXeNZzK8Oo73Sj0yOurqrD7f1j+CxcRf1QNsYnjTlHZhO4gm2hZv2c1p7GLf3zOE3u6Ywk8+iyEIUhE/QVkMM8M7sqMJOpn0vg797u0YxSZ/EcBI7p1LYMsw2Ynu2V0XM1aXSBQ8LCwsLC4vnFcR1jkN4xWaxfSyJj9/Rg+9v7saWuTi2JNN4dGwKX954AF/aNGCuMJDzEPw2IUWZoD1TaDQ/PKJrxhqFPCr8HlyytAFLmmtJJEbx3a0jZgbY7XZmtcvQvQg5MvgH+mfwn5uH0R+fQl1tHV5z9gr81fmrcdKCNiQLKRKeYfw3I4JcwY0Ay3N7vciThLgTDjn7y/OW4aWnLkNLVSPy+Qy27x/DCAmYAgQtcfAwYPH4PAh4PfDzXK9HSyoOz2ArgChSMd1zRRwgydspojScx87hLLYPzWGMLM9ZpkL5Nd1qAodyvbWfdWdAkmfeJsAgtMTFRfIkMh8ieT9vRSPeeP5yXHrCIlSGKzCbmMK2vllMprSsxIdvPj6En+7uMVdhzl7Sjr++YCX+4tSVTFuDnYMD+NHWCdQGg3jveUtIuOpQZAAW9blxzeo6vO+8VsyPupEloSt6SM5Yl6IrIAUzYAL+h4HFL/cMYzY/h7WLOvEPF67EK85YhiaS2MGZMXz5vgES61mew1rx/KLfx2ZMo4JBw/kravFXG5biklWLEQ7XMeibwbaeOAO7AkYZ3H35/h7sPbANAZ8Pf3NaOz5+2RJcvbqZ+gjgof4h3Lhr3Cw/kpJ0VeZ3gbMoiLZJXbAYzPH8iYwL44xAdrNdNw3OkojOIRiqRSxK22feuxlYfPWRUWwbG0BzZQ1eeepyvOm85diwvAMFrx/f2bbXXNnJsC0eGIzjlr0TmEtPkJjW4dVnrsAbz12FE1sq4c1kNClPu9EVLm6wPV0eH/I+v1miVK5EUVepZIPegCHEWoYjKJBxeWgLrH+RtnfITmg7ymMsFYeb7Pm0xctx9tJmhBi4P0By/SP2kfH0DE7saMNfn7MKrz5rKRa31GMsycDn/i481j9r7IxdgPXxIpeaQmuVF688awFefc5KdDQ2I8f89w2Oons8jotPaDQ2dN7KJSw6iF4GEFv64wymGPAyk//eOoq79g6bYPm8le34uwsW489OWw0fA5LtfSP48ZYxjCe11I31oS5yrMtYcg7rOqvw5otW4M9PW46q6hrMIWOuUHVPuXDN4ir8HW2gMRQFsknMYzD1trPa8JZ1DRQ6Z65a7BkZgicYw1s2zMNnXroAbzijAcViAT293Qyqe3CQQYV0qCs1FhYWFhYWzycclyOXy5VHMpPDbftm8PhQHLlAkHEDSaLXB476iJPv/GTnFLYMpMy6ZofIiryUCMyzAK1x1n3IwnBiDme2RfGaJSRx3hju75nFj56YJiFxm2fcOyD54nYiU8Sj/SmMz8bREKzAB89qxvVn1uIj66vwryQQy5uqkcsmcMf2SbNOX2ufi6TVWqZSEw3gAxe04xNM+8kz6nFBaxSuTBJxku6ReMYQwv2jady8ewa/3DeFm/bOcHuWhDhu1qIbKirSRzLsClTgu4/34aqvPYprvrkF13z7cX4/iqu/vR03diWNxIa8iATqQ9J05FuAtSTJLPc6AiJ1kufM9iiuO68JH6ecHzurCUtDDDYYzIxm8hiby6BvJoNt/WkS1BROaYrhw2e34GMnVePa81inRWFE/ZUYTSQYBCRx/jw/VtcG4cpnESN5PaM9hkvmx1AT9jGIEsGmXCzbU0yTw7rMU5B2DfBcEtC1zfX45Pmt+ADz/vhpNfhrftdGGjE21YeHSfx1vm659rBe7nSC+UZxwwWt1G8d3k/9zvOJvhcwxDYbmcuZQPMvVtXjny45g+nm42/W1WBDZxBvXNuE+QxokMtgOpkxa90lk7Om/f+GaqB6FGinT4xncP39o/jkvWP45N3DePtN3XikZxqRvBt/tkzLsAIMIvK4hfLvnc2iQKL80rV1uO7cenyU9XvvGS1YXM3QMpvGDgZ8Q3Mu2lsSo4xc3C4fXrK6Gp8+uwEfPyWK9/OchSEPSTwjKxJ/lW/aUHJrmRJ/OPdXHAP1J12uOgY8u7RF8LDyXVRJIn1WC657UQfed+V8BIJF/HTvJAZpJw2RSrzjzGZ84DTayWn1+Md1rQh7wpibIPGnHcu8GL4Ze3W7fXjtumZ8+nT2lZNrqYtaeHM5hBnhvGxZIz51Ju3t5Gq8m/lVsqXSbKuDc3lzr8JYIotbds6iwID+rIU1+Og5rXjPmlp8/PQavJTt6WJQtbFnBqNzzlOlpAQ3g6L1rZV4P23zw+uoV9ry2bRrH3U4Q1uYTeWwqDqIs+eFURPiKcy7LujCRfMjOKU5ihzbq5t9ssAAyhtwY0GNH8uqPXjtCWynixbgrZecjBctbWB9GeCy3+r9HhYWFhYWFs8nHJdBArkgSQ9wz0ASs+48OYuvRFrLCbyI55PY1DuNGV1NYHpR5PIjIp8NaDZQdMqwKhEqTwFnLYjhxM4qJHJz+N+dE9jYHzfLd9wkoc5ssQtTqQy2jseRIolpiflwekvE5CfZl5IMn1wfgp9Zz6by6J1OmxefiaypDC8JVoRxkNb0R3wu1AQ9hjxrNj6jpmK62/dM4W0/2Iy3/eIA/v7ne/B3P92Fj991EN26a9XQOEcH0oY3FEW0oQLRuipEasOoqK1ETV0IwbCWy5TKPZTa0eCx0+OHZsF1tHQsGvAYOU1gE3KTCOl+Ca2Zd25G7mK9hqgHXaVoqwygvZLHmUWQ9Xr1STX44FWdeNNpLWiPkewyy0JRshN64ozRpcrhCcY6KQF/6sZaPxN3TWm5VtYEN+sbQgwwRDPziHhdOLu1AvMi0pMbB6cSGFcQZnJg3ShLJOQ3N9aqrlUkfGEZGpEhgUuTyNXz+MtPbMVL1zXC5ffgJ09M4j82DeCmbeOYpRCaOdcNwNl8nuUbbf1OUN1NoMDyeudm8fOtPfj+4134ztaD2DUyjhjz/bMTm/FGBi+NEa8JbnrGs5jJzsHFQHM/A8Dv7ZjGd7dP49aeFCbUTAyouuN59M2SKGv9T2YOTZXVWNcSZWDEAtk2tWybkK4KGJJKCbRbzFzVViDAbWO1pXZ9avCcI2EahM1DPayq9uOShTF0xlxoDFM3VNDMJMlzIYtIOIj7RpL4LwbE39s1jccnC8jxPF0ZGqLsCcXILoVxhC+AUFB24gKbEm3UQ6DoRoBkfh77UUXAb2Sv8rFOtDdJnqbNZXi8ezyBVCptrpbonpIbD8zhv7dN4n93TZqbmKX7PAOEORVoUGTgyHwjAURZmPINUh3zIx6EdcWK+brKNinbkS+gCvLSrHTGTw3t57SmKGIIIjk7i+8+NIyvPzxuHnawvr0Wbzm5Ea9Z04BW5mm0V3r6l4WFhYWFxfMFhoYdbxB5TXGgnsxqoFZw4BBwh8vwD4+LOI+QaItQaRQW6T1qpvMPBbM6kgZqNnBxpQ/XLK1GfaQGW4dH8a3NE+hLiMQ65TpyAyNpkkgRUJL8olbzSHASjZjfjVqSf8mZoPzTKWVcenim6sB0IiQiFawyiYxTvpYq5Esko5KBxLzqKBZUhjG/KsTtAMmhT0URTF+SBekEXrIkhusv78T1l7Xjusvn4VNXtOP6SztxZqNuVBX5MfQFBT2asgQRycO/BO4w8lOKcnrK77zQjN9mj5KwhVQ2yedcJm+WgWjJE3mbqZ9usNVN0ac1hPHq5TW4isSytYLBn3O6gcp1ilCo45Ax50oLU2lZFHU6QxI6S6YpkuzzawkNSSfbJs/8wz4PyR7TM22ctpPM6HzZTVlKQnnyo1wVXJZJskSXLd15YAYfvq0P77u9B1+4fxA/fXQUt28fMevwdTVLdTGkn+T0yGyfDkZVZqOIlmgYV6xqxEtWNqOlpo6VLiBI4ntSSwiLqxnw0O6lVHdG75kowsty7tk9iuvu6cGn+fn3hwcwMZcz71bI5osk5WwXfrtyWdQxsKljoFNuV2cpnHRnpKbsZYEl+zELYMoyHkpzBEoVLdfDtHqprfV0KD2Ry8Qh3C3x82xotc9gPIPvPNKHz9zTj+v5+cETA2YlYcAbwlyeoZrWQRnZlB3bXHnICtiWxpxNIMMvFlyuk2Rxlj2pPJcJsscYNCqIzlCWRwem8eUH+nDtfb34zP19uOvAKM/xwOcrmnsgTBYSnendmt0vZ8vgwtgZoasMR7atJJR9m12mYBeDTA+uWV6NV53YgoWRMB7oHmcd9+Ejt3bh/bf04PMPDGLPZJrJmZfJTNZtYWFhYWHx/MFRPOF4gYbTGAnfwgqRMlIbjeqHwAGXhMFHkrGsOoyw11lPr0FfQ/8fCypDb/vdMC+KDQtihg3tGZvCrvE55ElOBD3BxaMZa5FX8QISS80jipAqGNAsdErEiPC5vIYcGh5UElvPbj8SZdJiCLPDoHDB8jp84eXL8OUXd+LLL5mPL1+9CB/Y0I75FZqRVaEO3IUcFscCOIfk89zWADY0h3Beawhnt4TREnbItSByZgIskTAWJ1n0GFFD+P8PODp3ytRftZsCCD9PJVU1VxfMTQyEUw5ItovmRtvxNHXB404g5gQYOq7Pk81s6+GnIopqAwVELhE8w7vU9h5zfo7kLk89i2SGvSSGpXYRlKVphxLcIoXMr0Q3Tbl90zl86+ER3LZ9P/Pz4o1nteCTL1uM97xoAZpDlC89V0r5TFBgmQWsqAngrac24/3nNuM1qysR8kUxOpfAw71zmGZQo/dSmNSa4eY/zY6f0VmLV69pwl+srserVtfib09swptPa8M1q6rBmIs2xLS0u2Q+jxSDhnLTaSmR2ZbtHMJh3SqOLT/OVft1v8vvDNkL9UyVc1NLl7TBgIH5mGxYZn3Uj6uW1uI1J9TilSur8TrK+/frW8xVpFPbAwwW2PqyEZOfYwPccH4q79K23m9Q3q+b2w3x5rYsRr0/6P9/7H0HoFxHdfa3ve++fb0XPfVi2bJsuXfcCx0SEkoIIYSSACHUgAnlDxAgQCiBhBK6ARt3y12yLbmo9/J6L9t73/87c3f1nmTJNthxJHw/6b69ZcqZM3NnvjN3ik0NKbMUCjit0Y03Lq/HW1bU8ajH21bX4z3nUHdrW2lM21SeC7S4jk5vtdxpb+zcM62EMlZ6ldImSpUlgNt8dvz9+U348rU9ePt5bTh3YSPqHBY8NT6LHz89gV/tCmJWvmRIXJV4dejQoUOHjlMFfyzj+V+DNKWFUh4tThNevaAGbSRJ5UJG9UoLo5ZJh4ZcEr01Ply+wA+nReuBFHL60mOuYdfIJNDmNuLdZzai0+lGKZ8m8ZfPARqko9JnNWKVzwo7ZUrEMpiKamPpTSR9E/EcDvA6T0JlNxbUMBxZS71clh51+a0QpmeBAZMoiQS1JCGL6lzorbWqselL6mzoUV8S5hkYwmPoWFYqEj9FMrkySbHsBK11psr9Sm89CUwyl0eyIGSGxYH/Zf+BvLC/IxBqJBIeX8dCEKtPJGQZYtTssKne7bCsPy+93dLjbDHj1/tCeNvdg/jkxgnsD+SYZs2nhFBg5GoTKoZnIlmukkSJuVSWsd1ldHrtJMZWFfZENK2+Wlhl3Ded9odSCDE7ZKx8q8uuCJvoTXQhh2ZsajoRCBmU+0I1ZX7J9ukU9oezyBlKuKbbgw+c6cfpbU60+e2wMALxLToqC5FXvy/09VE+lSHmplHbQIOjxWXCm0lmL2qrQTGfwj39Sdw/kmKwUsYNcDCNZpMdmVwCy5qd+PgFTbj5ohYezSS9fvzVmbX46zP8aPFQdhs1ZbGhLxLF3pk4/ZOqK6NBhlJpElQh82ZEWaKLRIFGBY1t2SdB9kSQPQvki48S94iWBMcEojR37D0NRuaxySZj0YB4IYGraCR84sI2GrLa8a41fjUZ+LrFfhpxJRTnfcU6ciZlgEJoc2Ikprn3wliSLwBiGogU8h6V0M13wWrI0X2JBrAF7+L7+emLWvGZi9vwT+e14p1ntuIfSOJX1stXFomF4YsOVPjPhpJDCkYFqtgQeVY0ZuafZPtMqoB794fxyGAcbocJHzu3Cbe8bgG+dG0v6n1eRJHFfcMh9Cfy9K/lvw4dOnTo0HEq4aQzEqQplWE3QqzP73bi7eta0ONyw51Kw5OWI4t1TU342EXt6PUL8S2yERZKMUc2/njMC4ccQfUaV4iE6kFUtARYUGvBO89th0PGTsgz3pTnsjGaLEm5ps0Fn8ON/lQcn31yFo8MpfDYSBo/2R3FprEkymYb1vU40eQk4WD4stSnQFZGEuIpnKIkqxXJoYwDkUTInLgrolguMC4ZvlNWh5D/itQMT8iVXNNXJVwtk+VcpNfCFKJjddKtzY2hVAq3HE5i81gaD1HWW/uiiOSzakiXRoolfglFI25GEnZJsyJvlV8VMuUTOXv9VvTWWQGzFY9PxfC9nSFsHMvgrkMJ/HRrBNv2DSA4m4CNeSzhG0kWpSd8NpfD5vEsnqaugum8+hJgICnU6DlJGiNp91qxvMHJoN24ZziOLz0dwuaJNO4fyuJHu2LoT4bh8LZhRYcLDumpFlIopJJBCLUVKAqqyox2X8bJi/w2ZidtTnU+FMvhUcqyaTKNX+4IUEdMI/NN68nmufinUad60dU9CXuejuWe5Kec0aiQoT8SY6nIOBmp2IMNLgMuXexCrasOkdgMNhyKYCpZhJMG5ZUdbiymoWMsFvDzZybxg21BPMV0bhxO4WuPT+Dtt/RTTxm1wtVprX74XR6UabTedyiGuw5H1c7VP6HcAxmRW4xQTUYHSa6LpLbIe/uZxtvo9rGxFP3EeR5Xq2/JcB6lN5FdpU/Swb8Vtiw6kLXEhPwyh3hHUsmyaCjA7yzh3IVe1Fu9iESSlH2aYSfx5EQW9/Ql8aG7h/HJ+wYxHiuovJfxeCJZWYaJGTRjQPaIMCCv7qsYxIiWKAjRadFId+KXkIFJXV4zzuqpUyuEPdgfwU+2BfDEaAqbxtP4xd4o3nPnIfxo+4Q24VyMTyZN0qRQSadA3eG1LFgghoiAqpBSospnP/X1yGgGB2bTaijVfz49hn+8fTc++dAoHmR8A7ES35syy6ZV1WEuK413NZxKylklPh06dOjQoeMUgdYSnmSQETlCcBtIZv58dR0+d3kHPkRS/ndnd+IjF7bj01e047JeN4UXklbx9BJDCFFRAidhUQOtKxGJIeAgi3j1Ej8u762HSXZtKmRRVENrZHiRAWe1uXHFijrUmp3YNDCN997Wj7/7/QB+tnWUTDeDSzrq8fY1zbCaGAfDkzDFUJDhMtrEXZIYxi9UyVAswqQUohEqoTcngvgr8o8MaxK5q6RY0bx53sSd3VjGma1eLPI4VSG4b/c4/uZ3h/HRu/txaCyhXMlwocowbjXmv6zSyHDlV0HClZ1xRc48ioxcjBY7Se7rT2/E6s52ZJIx/PdT4/i72/rw4TsHsT8QQG9tE25cVqvWkBeivbLRqVbCKWWi+P32YXzgzj7sD5ZgkwmqjEvCJltVh0zovnpZDc7prIOJev/ZM6N41619+Mc7B7BpcBo+gx1/tqYJl3W5lYQiv+hXJtlq7JCplbylPvKStyThZTqSlY1WNtgpiw0WswObRmfxPob57jv78btdM0iRtIqfaK6AuJBNCUoNeSqofHsuSNGReRNlGnfVr0WSN0am7ZIuL9Y2Uw+U68FDs7i3L0Y3ZZxNQ/P1q+rQ6fJiOhLGFx4aZjqH8B6WpR8+PYHRyRh2B1M0tMDy5MSlnTL0zk0jK4AP3zWI998+gF9vm0aS6ZYlU7UCYABtBJy30I9Gmw+pTBy/pJu/Y5gfu2sIU8EMSTFLsEqbVmDUsB8RWeW7kHYJhfku5Fp0VykLogshxjLv5jWLPbhuoQ81BhfuOzxBeQZUHn3wjkN46HAAe6biGJVtoAkxdsUQMsiXLNERw5byqORVcVK/ordKWVaGV4FpKmaVTiVLnRYj3rm2Hhe01yGTTeE/nxzGu38/iHczXZ+/rx87BiM4PJtBiv5EdklQiWVKQi1WyLuEL+8OI2QxY7mXU+ZDnd2ojFIrzMjS6P/y+j7824ZhWBnnlauaUGPzYstYEJ+5fwj/uH4UX3xkGJPBEFqtLtzQW4sej0XpSow0HTp06NCh41TCSbmZmowxl2Zb2mwXG+PeWhvOaPdgTYcH6zrcaPdaSGa055XOzZcMWnAGZNmmy1r10YIZTR4bDQIvFjNexSN4eMjO3A4bRuJlOK0OLKqz47JFNXCTxHptBiz2O+BzWJEummDKFGAlwWqsceKa5fV4x5pGrGxyqGEeoXQRfeEMSgYrFtbbtd1oaTwIsTw4m8Zwwo5uktcLujzo9FmoGY1IVSWdD7k/GC1gNJGHz+rExd1erGpxaoTuGBiNJTQ5LHDazIily7DmDapnf1kLDRymQyaj2uDARd01asjNRCLHsIuwW+w4h3lxLompMmRI7mTjqJTBiSXNbpzb7kK904IOlxm99Q5Ka0IuV4YtT+PKAiwhkXvXWU24cpFXzTsRY7DNYydhB+LJElxk4h7KdA2NML8N2DObQq7sUl9nzmbYduqm0WVBT42Qeeo3Q9lzMgcBWNjkwZtPa+ThR6uLmqISx2JZDFEfbit12ElC3upQ6c/Qz9bJDHImF1Y0O5keF/VrRatPNnkzIp+lzCwEjQz41aubYbdR90YT6j1mknoHWtxWbJtIIpi3M14HzqdsMhH7KFA/8gVmOllUu3N7qLvV9Htep1ulQ/LQLnNqqOtQVpbTNaLOZsIKGk11lH8By32bx4pU2UIDjG5p/dnI91e0+fDWtS24nDqsoXvZWqGjxoGi0YIUFenIF9DCtFy6uAGz0TxiqSh66/w4v9uDRocRrdSdg7qPpU2wMf8cFhqMfHbtsnrkWA78LNvnd7tVmZbN7Q6Gs8pwWkcdndbqIjkvYtd0EpmyDae3urGO5UPyTJUyknsfdbWowQa33Yw4y7+ZjNtGsu9mmi5c1IB3rW1SO1cLdT4cyiCWs6CNBuMV3T70sozLBPKJRBYHo6AebDiPZV+IuuziHaeR9vR4EjaHC6e3UKY2h6ojGlneFtQ5UWK6crQp7SxzVtYRjXUO3LS8CW+i0d5FnYhR8SSN4LzZznLtwroWF99Zkyp/Q9TVbKqEWpcVVy+pYR5b4GA+ybC1AN8RZIzwMNtkeJNsiLeW5b2Zes+WmU7Km4zQ8GGZW9pag3eeUY+bltaglkaGvMvKOFGHDh06dOjQcWrAMD09LZz3pENVKK1pJWlWd3glhLdiGVTuvISYi1V6h6eSeTV8QMiJzJGokbEolbjlR1ZUHCcBzRZpKJCQtHtJXNXUANJ1OpDlWadJfHMkNjInwEIy00BGJ8Su2rOYKpQxzYBkToAMBekiMTFL7yb9T5OYB7IkWCTvQlZlUzfVzXsCyKCgIA2SAA0P6T1vdphJ2MWs0J7OQTsXo0LmH0zFmQbZWpjxeEgiZV5FIF1AhulqItETwhojYZ5JMy1kWXWUo9nNNFAHRaZL9kWIFYvwmE0koWYSdhmgwVhJsGYSJRpCJZSYPvk643IY6NcM/qj4oaiigeksY5a6LJCtyWZxYhBZKc9YPIc0Zayh4dVM40CGock/8SVDkmaT1C0JtMhiU27MNAhkSImk2qA2vZuifsVQamBaGqgPgRBRGfJC/q5IdoPToIizzImYZr7LCkLy6cBupe6Zr9FsgUeJxLOEZuaFmzqaiBdYPkqK8DczXJfkj8JcORKGKBOSp0g+5StLDcNrpj6r+xNIb7Ws9T/F+GT+gIN5L/pxVlZuylG+ScoTyxZhoEgGxuUm8ZR0KieV4qDynnk2m8qjLIYC01oymPHh3/XhmalRXL1sIT56cSuW1MrGfWWwaGGKpFg2rJMRMTU07NyUbTpRUD3qTUxjjcOEFMvuBO8JiW6wm9T+FcVyUaVdJqH7mWbRqWxSNi/Vqsc/SYNjivnHIHiDOUY34l/KiAyd094x6pWkno/UO+ajgSJf1+TdEZ2JfhpYJusYt4Sb5bPRWBGybpC8j00MT76OiJ6lfIUyJQSZ30UKLB8jLFImqW+feufKKuwRGtIp/srQQCnfMs+gyPSF+O6If3HX5qXxxfLAYNWXsknqIC4vPCHvSAvzSL4Eil5kSV5Z0lgpjjI4aVS0yRKuzB8xVLWc1qFDhw4dOk4tnLRGwkkBkg/pURdI7+mzVt0hATCTYanbJAdFYRpHQLXyv9rpVgtCuZehDNXJugLhikZjhVySSAmJqULtciyB8K8WdPXZnJujoZFlmfQrEFclknctuqofuZjzL4Rb4q9KJKRMZBQSK/7EpaRLvnpUiS05kzJCqhAjShyrce/81cazi39SV0mDPKv4LcoQEiFOojf+ViHhGyqTr+W2yKBsJUogWjg2ToGEKEaDOquEr4bHVNyJRBKv9ogkUqVNPVLP5MuAQO4L8VVyiXuRWSInxF2J6VebzakbvKYBInHIakAqXeKf10JSNSmOAe+bJG2V+KtDdCQ+tQKRcqL5FJ0rN0qHAuaPciMyVdxQz0I+5+tPQcJjPOJWdD9FI+jdt/ThqelxXL1kwZyRQKdH4lV5J1+nxDt1XSnvcq0MLRXm0fck2mra5byoDLK5NAi0sKRszd0TyP1qHghU2uhE1M0cUOHNvy8QXSuyXbmhVmGinPIV6ti45e+z4pSjEq7SuaRH5JA8024raH61cinxzYe8U9U4qH1NN4Tck7vqkeiO/mTejuhY3MzXiQ4dOnTo0HEqQTcSTghFLbRTBcUCtNOXHcfGe6IsO9qdEHYhW0Iq5/yIm2P9z/d3orCfG4rKk2jL8BqhXkJ25/D84ctdIdlVt5qBoBGx54byyWN+HHIuPbhaXHImNFibfF3FfPcCza2gOk5dIOPsj3X5h0JJWCXfJJCioSNhynWFSCpiekJSeWJ5j4KEQcjqRtPxIv76lwexbXYCVyzpxScua8PSWqvMrlBLhur4QzBfXyfQvQ4dOnTo0PEnhPmsScdJi/mk5LkIytHPtN7wY4n2/w7BUYYIibDsFfHH8k/pgRUSLcez5X4+iJ+j0yZUXPXo8qgaDHM4sR6qK0Q968vRi8Bcuo4BjQIxDp7bQBDM93ti2VUYPORHhvT4vRb43PXwu8ywGKXnv6QMHx06dOjQoUOHjueC/iVBh44/RdDokDklsjzsZLaMbrcZK+ts8MpOdzp06NChQ4cOHc8D3UjQoeNPGQaDGuokG42pLxk89HHyOnTo0KFDh47ngz7cSIeOP2GoeSIlme+grdqjGwg6dOjQoUOHjhcC3UjQoeNPGNo0aZlQLsaBbiDo0KFDhw4dOl4YdCNBhw4dOnTo0KFDhw4dR0E3EnTo0KFDhw4d/7uQOVE6dOg4paAbCTp06NCh4xUJoa2yRLJskCd/ZWheZWvByvHiUA2/jIJakNkA2ZSP1/P2YvlTh7bfDdPLdKtzGguadmUo5P8WtKGVLzQeea4twa3E03ECiGrk/ahsF1m58/wQV5rLuTMdpwZ0I0GHDh06dLyiIbuUS3Nogpn/eF7hMZrp8IfQoRPAqO3wru1dY2IMEt8rgyxJKtWiCZX0lg3aTveaVl9qzNsdhyqWHeTVBuzPOx1L29HebBL3z+v4FQ4xEjSlqjytWFZiAGqGsHaIuypkH6Xqwhmy4732Hug4FaAvgapDhw4dOl6RkMZPqI7w1lKZNKckmxuWSBnLsPCebDxYLJEU/dG8kTGQEOWLZkxHczgczqJE8rqszoYWtxgNrwRCSnJYZRlGWUJBdMzzMonkS5x+9aWCR5H5GMwAibxm/tXay/DY5Oz48QnPzcozercq46IqsI7jQW02atK+vFR1Kvkq702Z+iuVSijzUC8WIc7EVYEP87xtMpZgMcjXNXku+aLr+2SFbiTo0KFDh45XDKo7qcuQH6GsBV5PJYsYj+QxEs0gms3DYTKih0S+x29HvcNMUiO9p1r/qYZjm825J/MhPaYTiSJ+tC2Ixw6GEWbYVjLRd53bhj9b06ARUgalqC0Zlwx7emlWIjtes/5Sh/lCw9N6kZMFI/pnM0jmSkx3GUubXHBbhdbPD7ca5h8nv1rJzagZCN96agZP7I/BYS3gXRe04frFPk3Rx0DslFTeiB9tn8Vj43Fc2e3BG5b5KJuJZUS+ANEBxRGJirKktCK1x8MLlflE7rT7Io98axK9lGhNlViGhH4fL6Q5HBvmc7v+YyF77YgBFUoWMBTMI8d4ZBd/gcjtsljgdBrR6DLxnGYD3y1VpvkbzZXxs70RbB6N4bqFfrxhhZeGgoSpfKswTqyb4+GFpvml1s1zyfhSx/V/D91I0KFDhw4drxhUjQTp3k4VDdgwEsevdobRP5VEOp9Hni2i9Iq6yOBXtrvwptMacE6bC07T/KZSG15RRVn1iM4DmY/0qOaKRtyyM4j/99g0ovkYXHYnlnjteOuZDbh+iZ+kOYXZVBF+EtKeBht8NiGDQg9PRERfKDRZqzJq4b14cvScaT4hKAuj3zmZxdcfGMdAKEcjrITPvXoRzu6wwiC9zkdkm0+25K6Wjhcsv5B4kvqprAEfeHQCG7b3w2Hx4DNXL8RfrahRJP9YiA0wnSjjz//nAPaFxrG8ZwG+dlUnTm+0IJYpYf9UCkkWiiafFd0+E+zmSrqF3R71JWROP3P5dzyZT+wuR10MRwsYjxZhKhWwtNGOBo+VUUmJ1HShYf65+J5L1x+d1xpb13BUuo6GDBfaeDiGL68fQhhm3ilo7xQPE98RR40F1y1uxLW9HnTWmJVsZqMFWycT+Nj9o9g9NIRrl/TiqzctYLmfL7ng2DJ24rS80DS/JLo5CvPzT8KqHoJj8/bFxvV/D0mFDh06dOjQcVJAeiurx/8GpGe2ZCypqcTPTGTwlUcncf/gNMYzWdT7bFjb5UdjrQMj6QzuORzEdzdNYc9M8igOpRp/NZRCOxRNOIZYGY1GBFN5bKHxkchG0GD34kOXdOOfr+zCRT0epPIl/OSZAD7+u0P45uOTmIjntXDYLGu/EqaENAeJ49h41L3K7xx4LvKKjAYSNdl1/djAKtDCnDsXkn0sNDdCF7T0vnADQfwaaSwBG0cTeDKUxcF8FDtTEdw9GEMkKyRdwpWvKHMK1uStxMNfFXclA6rlQmTW5KrohPfVrzzjP6PZjLLNhbLVznOGwyBUuDLkiUcVEpzdYsR5C2uwoL0Tazo9aHBI+owIpUv42kOj+MRdA7h9XwRJpkNI8nzMySD3NXlFAu04BkpGEYTkupIvVXcSRqpgwO8PhvGJewbwqbsHsW0ireZIzBkI1XCPCXteWaw+U6qQxFX0Mneox0eg7lV/5eGxDp6FMhIlI/rTBRzMxjHM85DNglm7CaOZAraNBfDdx0fxrU3j6Avk6F6+NhTQ4LJiTYcXyzq6sLrDTUOxGk/FKDhGN2Va2Zr41bTPQclZTW9F3/PTUYWWnoobHuJi/nPBfH/aod0XzJW1OTf8y/8SnuQff+eLp84Zj7Gat6c+/jRSoUOHDh06TmlI+ysEVUiY/GoN8ksP6emTsdOzmSJu7QviUCQOY6mEd6xtxb/f0IMvXNGOb13fhXed2Y1SPo2nSXpuPRBFojBHQkU+MQKMJtPcIdyBBohiNnQnw4gyxTKC2TIKpQIanSa8fZkf57Q60OI2qzBiBSPG0tOYIVkuk1gYSZyKDEOFzzCFmkiPpIyxl7glDi0eJYaCcqHczhlX8txEYmw0yiH6lAm5vHcMwT2SjqPCFvcVBwxL5Yc8m59eiaBCoJ4PRrrL5IGnhpMIFxOA1YGyxYZHD4QQSGqmgdDEKqkSyleVReIUHWhp0OKc00P1vnaInAY+kH9HgfqUf8ofn2tp1Q6FskENe/qHS9vww9ctxkfXNanhMgqUaSZtwEQ6iSTTYOH1/NDn54mSQ3QjOq+GPQ9yRyvbxxwVp+KFUrKcsUzk8hhmnOmSkE0tRYwJZro3sYzMGQ0ajsQ9L3+lREh8yg+vq/FVJZP4jshezVeVtxUHJ4CMLpL0GUwWdb2sxYkvXd2D/3nNQnz/tcvw2sXdCOVTfGeC+OnOAKIZBlg0otVtxAfPbaabJXjb2mZYpayrFB9fNyYaeTLUS9I/H3J1lMx8rh3avep7IGVFhSWyih85r6av+nyeP82thM0/8vwIxJ34r7jli638VeQU/cp7L89UGkQGeYd4rQV1dF6datCHG+nQoUOHjpcflcZTGtwcG9VySYYFsFWt3DOr00qDX7n/UqAkEyYZfl+shL9/aBBbSV6tJPPfu3E5bljsZExaXFsmC/j4+j6EEymc01WDz1zWiVonSVipjIFwHnf0hzE8lUY5R3ntZqzpdOOKBV60kGCmywU8OZTDLQci2DgeQyAeh9fpxVWLvFhZY4fHasRT03E8MZTEeDiEOlctzup24couFxocZjw8kUCyYMKFvHdthwtuEqqtM2n84mAELVYT3rqyBk00OrKU+zf7Y3hyIo3VDWa8bomfMlrVuP97Rhh+fxylWI5pLsFd68R1S2twdrOdxEaSUcaG0QzuPBxBq8uAS7rrsXFgFoPDMdywqhFXn1YHBo+xeB6/2hfF+CQJfr4IE+M9m+m8aWENXCZZ3FXDUTkkeSZEiqeSlw8NZ/DJ9UPoy2RgdzmRodXgpcfPX9GNG5c5YDeSeZald9aERyn3nSMZuMwlXNbmwlAgzTwK48weP169rFYNzRqMZFS6x6czMOUYEOU/m7q9rscLj8WM6WwRH3h8Co/sGofD6sMHz29Dh7WEJw6HkMsb4K834XUrGnB6g1XJHaP7H5DQTmYNWOl34IpeJx45HMODIwk8MRxHIpfGgjo/lje7cH2PFVct8Kl5K5l8CfeNxvEI80U+MxSNVjQ3WXHjYi9WNdiZJloWog4aDtGMEfcORvFUfwyGVAk5M9Da5MIbl9VgUa0F/cEEfn0ggbv6E+gPJ2jblHFeRx0uaLbg9SvqkCkU8cPtYZSo86u6PLigwwknw4jSwPyfQ1HsChbQ7TbhnStq4LaU8cN9MRwO57C41oaFXhs294UQi+dww5p6XNTto1QGbJnK4PZDYcQDSZgLBjVU6Kpl9Ti31ckykuc7Scothi9B2qv9Mj/X96Xwwbv6MIscLltUj69e2oEOt2Y0DIf53tw/jgcGh7GwrgWfurwd13Q7MJHI416WxwOhEtbUW/CmFW5lyDAKTFJ3d1Mv+0eSKKWKKFnL6Gj14NVL/Vjgk/kZIi0NVhp0E3x+24Ew9rOcmopmtLe6cCbLyd5AHHujBVzYYsebltSgj2m/pS9OA7yM85scoGmKpw6FUFtjxlvOakaL00JZcrjrUAQjLNtmuoPDguVddty0qAbNfA5DEaPRPG49nEAfwz6v3Y0evw23bp9Eiu+FyWLCGr4HN9J9KJXHz3bQ8J1NKUu3t82NP1tZh1a7Qb0j2tySUw+mj3zkIzdXznXo0KFDh46XBarn2MhGP1HCj/aG8f3N07hjZxDrSSQC2RIa3Vb4bBrfFIrw0kFrrPMMeP9sHgcnSUz4r8ZmR6vHChtJmI2NfK3DhMvZ+L9hZSMu7/Gpa4OxjCfG0vjXjRO4dU8Yuyan0BeIYs8syd9EDpMkYYvqHaiz20iIZvHzndMkcTkYLDZkinkMjpOQkcAneKzfF8B0kQaLxY50IYuhGRoSVjM6vHbcvnMSG/aPwGW348ION8mgAb/dE8e3NuzBVKSMlS0+dJKsTMWL+A71ds+ew/DYXLiEhCVJo+W7T07iO0+O4ZnRWYxGsjgQjOLp6Qj6aPj4mY4uv12l+UEaCN99/DC2TeWxhYT7nsNhDAweQk9zE84l4X6aJPkrGybx893j1NMUDgTC2BmIYet4gcSujFUkaG6ZfaogGVU5J5EUSG9qifn8zW0hPDEygyX1dXjNkjqUyJ1Hg9OA2YrzO33w0GqRrztF6vf3JHb/9fQotk9msGMqhQcOhrB3dBIeXw3WURc7prK4+aFR3HZwFvumKFOQ+TAToawZFHIGLGxwMJ+MuG8khqEpkm3qdzqYxoN9YepjAvtmp7Gd4Y7R5llc51JfddL5Mj67fhQb9w+Q0FmwrsvLPJjG3XtHkbKQLBrNCKVTGGQedficOLvDy3wt4ydbg/jm5ilsHhrHYZYD0c+2yRT2UMbWGhvaa6zUgRnDzCfJk+89NYOtYxM4RJn3ByKUI4091Hs3y0ychsrPt8xgH8OBLJdrMmOC+ZaJ5HFeby0C5J6fW78L/eNxdNW6sarFTU5rQYiGytcpw4N7BhBLmvGqhV7Y7BZ8huXi4X2j2BYs45mRKPN6DEMkxSs7a5huJ24/EMW/PjqG+/ooz2QA+xnXlhnJ2xLMNEoX0cix8z3QTATJWS1PRbf9DOd+lpUkipTFiVd1e49MQq+j5TKYLOHJ8SQimZQqz+d3upSR8F9PT+HubbvgMdlw5bI6mBjWrpksvkaD7sc7Z7F3iuU1XqDBE8bTEymMB3NY0OhCs0vmPhgwQIP3e5um8f2tM9g9QZ2HYtg+naPbJB4YSmAPDRO7w4Orev14imT9W/IODE5jJ9+Zx/ui2Dw4iEzZjmuWNmIvDYPPPTyKO/YHMDAbxyCtrW2BAJ4az6m86K13wU/jf5jvz38/GcD6w8OgiDTsE3iEOjswHcAuycMQsJ15dMv+CO7dO4ZD07PYzXKwZTxLo8aIlTTyrdLjQUVW3o5TCrqRoEOHDh06XnbI5/v+SA7fJsH52Y5Z7AmG0B9L4mAkSQKQRSJdxJo2ryLIVaLyUkCzOYwqXLfZgt1jGcykExgOlkhAEyRjRWQK2iTMDo9FkR6nxaiI0zQNms9tHMejQ9Nw2ty4fHEzzlvUCY/dgYFwikQxDTNJ4bntLjBolExWzGSMSCRiNDLceP2aJlzU5cHKBic8NQ6EE0ZEo7NocPpw1fIGXL7AhbPbPNg1nsah2TB6ampxEQlYgQbNrTtD2DcTRNrowkK/A6ubndgezOCXNLCKZRsuXVKrJlg/TuL/1QcPIpsv4sJlLXjT2R1Y0FSHkVgZg8FZZLI2nNPpgdsO7JzK4PGROMMsI5LKocfrxsLGeqxb4IXLYVMrBK0/NEK3Xly7vB1rFrXAanNiJBTH7pkE6mnInU45qJoKjqZBMnl7NFbA/2yhQRQO4sLOBrzj9DoESaq2jYzCYvHizFan6oUWu0J6lTeTHD7J9OdpSYRTWRpcDpzW1oQLKLPfYca3No1hA0l5rYO6WdqCs3ubGY4dfSw/Q9Ml9JBwt/otuH8siUESRWOpgCarCWfRwFjZ3YKCyYPZdAYRlr0ldXYsa3LQYCzi1ztCCGeEsPtxKXXucdlg8DgxGSwin89gUXMtrlter772tLptquf7u09O01iK4dyuNly2rBU9jXWI5Yw0FgIYihtwfkeN2nvhd/vC+DENgEAuTsLfg0uWNKHF78dYvIz+6VGky26cScPPTT0E81YEklkYCjlctKgVVy6vwZnNdoSSedy9j4yUhtU6GlanM6/tNNBizOe7+xIYiybR4PHghqWyMpMZPzsURzCWQrZQUIbj4vparGz14YJuD/VawDeemKQxM422Gj+uWdWG07saaCA50DczRUMKWNriRafXpIYqyZCs6rAf+RUjYX3FSOiudeFKGpQ+MRJYTs00cMYSOTw1mWO5D2OVvwaX9HoR5Pu8YSiF4XAEK+sbaCTQoC2UaBhN4dZn+uEyOXD9mma8ek0L3F4ny2qesgRYtqw0fDx8J8v43Z4QfrJ9BvFSFkvaWqibNhrlLkzSeJB3WFajWtrKfFrgQV8sj4eGU0gVikhl8jRCzVja1IizOr1q1bIfPTGGxw4cRoe/GW9Y24pXrWpEijKMzkZoTBXQTiN8eaMDgXQBjwxmmKY4dWHBIhp/Fy2tRwPfzUjOzrIUR78Y+Hzhb1jciIWUK1yyIZiM4jANoxWtHiyksaiGvJ2CZoL2/UiHDh06dOh4GZEtARsHEupzf0S6lkm6DSSjZasDM/k0btkfxt0DKeTUeHzxIfT+xZsLahAMSY+ZZ2tb7PjQxa24oKsVuUIWW8Zm8AMSv0/cO4SbN5C87IliIiFTnIFiyYgdMwVsHYzCZbDjtUs9+NSFLfjY+fX4xAVNOLfTj1w+iY0kT8PxPImdB3+5sg4LPTYYSfhabEb8w5n1eONSP67s9eBvVtdhhZvSZBJot1vw9hX1uGaBD20eExpIvEokg1MkhtM0WvaG8nhqliTIYiPpkyFKWRSKZZLMLCaiYTQ5rFhDQmMjW290GvHuc3rxyUsX4xPnteJtK/1479paXN7lI4krYYp+hSTSDFJLU8qwFg/Tc/3iOnzm0mb885VtuKCnBs+MJbB5NE5SasOVi/181srwmvDJ81uxot6HfGIGTw3EEc/IUCFNs0dDI5b3k0wfnI3DbK9BZ70FXT4TeprNMDr9NFyy2DySBG0vNRdDYCzzGY04Q7GAy3sb8C+Xt+FTlOvyBU4MzGSwi3IZSkXcuMyLz17Uin8+vxnvObsJ9U4PDaMM9k3L8CAhswysVIKF5ef6lY349GUM5/xGvOfMBvhgR57hjzP+FEm26MJEDyUemmag8uIDpzei3ViCLZ/HefVOvPf0emUAJvMF3H0giIl0DG21NfjIRe34+PlN+OeLm/CXq+rhMzqxa2QWfYEMZkkUN/ZFEM4lsLC+Hh88twGfoNsPn9dMA9ChhkNtGwkxb4p47ZI6nNvsgJlymwt53Njjw1+eVosGt1Gt0VM2suyKbpg2lT4FkVe7EHNaiKgQUiqJd8rwWRz4izNa8LnLOvCxC5uwuNbO+FIYnE7A4ajBe85pw6cvYN5e0IK/WlOPJo+fZT6Ee/pDaiL1C5qAy3IkMMqQMcJtZrwsi5JPBRopIhnNQDU/RSDvoPwrsjyubLTh/ecvxacv7cI/ndOCv1jmw7tXN2BZo5NlPIPh6STKpTJGmamPjaVohCXRRqP6nynzp/jeffKiJuZvLWxmWr2EzAUSLcj7rYoU3+s2hx0fPr8Fn72iBW8/ow5uUwkXdrmZb6fjsxe34b1n1uEvV/j4Tjag2eOlwRzFDA0hGW7Ft4Q6YIhMy1oa959kffHJc1vx0XMasabexvDzaKAh+7drma8XNeOD6+pxXocDRuo9kKChSoNYS+2pSbd1I0GHDh06dLyskEY3kC5i13QG8SINBJOlQiAq+wSQIEeKKfyKRExWlBGyKYMZ5Hix0NbREWJbgstsxDULXfjCFZ341BULcOHiDpl9iKFkBA8dmsTnHxnBD56ewEyyQOJZxDMjMSTKGdRajLi0040FPjO8xjyWNjhweYcPTpLtYKaA/bNZRTplkZzqxlwynMZlki8YtIdI4GRJVRlEIeBtOElG7dIlTz2sbLKh0V2LsVgOAzQ4hkg2R2am0FnbTILjRl8oTYKdQzZJIpNNwO8g+a7RhoectaAG77qkDWeQ2G8J5vHjrSH8alcUozQoZNhMjnGnSLoM0s0vuiYaKchrFvlwSbcHZ7S40eA0YTaUQSqZhM3qgc1iwX2TGdw1msTBRBF55peMs4/Q2JiibuYxVkIoGvOR9+Ik69tI6hOpADpqnDiz3aOtJERdndboRyoTJqlPIpRmGBU2UjLIdFbZj8BAw8aPaxZ5cRqJc43dir5whgYFc495dDrvdXsN8FmLOIfE/atXL8IXb1yIq5fWquEdJUmflCm69dPwqrfxsBuwmsTOyRjkWaZIoirsex4kKdIj7bAa4OavEHCh3bIXm4OH1WxGOlvAdChLKUvwOB3YGy3iNurmgck0JvOyepZZkf6hSIFEsYwYDc0SDeGLOpxYWWeE3wIspuwfpHHzbzf04lOXdKLHZ4HVWGTZqJBbwsqC4TGLASPkm1KIcER5HnUTbYuu5VeujgKJrXwJe+MSLy7odGK5midRwsFQCmmaQzZZ5Yt+109k8PvhBEYzLJM2B/0VMBtk+SpIeJSnEu/xoN7Xyq9IIRD31bkMVSiiXbknhocMd/PbzLh6eSP+koZnU7MT9w7G8JNnZnHPvihCWTHajCgwv7Mk61MsI/sjInUZbTQ2L+nyoNYK1DFjmrwWmFmuJG2aRiSeSlzUQRsNo9cvq8HZrQ70eI1YwAx4/domvJ5Gb8ZVxm8OhfGzLRFs6k8yPmUWoCwTclhGlJFEo00OmQfU5TWjhu9Lq4v5yDJlorHZ4bYzXx3w8wWUjfuaPVaWE03X2qq71blVpx7mSpoOHTp06NDxMkDohCwBOpvOk1BpjbtG3bWj6ipAgiwkQc5fMlSDIvGSHmsbye4Kko53nF6Lr17Vjp+8sRd/c1YPjFYbJgtZ3LI7gAdIXhJkk1OpjCIpRosJTrtQfBoubPxlhc16ZxlWhilGzVQ8QXd8Wq6QNyEadCe7NyuQRMmpMnnkGSEcQoiluD+/xYVFbjNmUnFsncnRSCjAlIrh1STyK1qd2BnL4P6xFKbjRUUga2ss8NiED5O4k1z9cEsQf39nPz5y52588Z6n8NV7N2PT4BhKVvsRolaFbIZlpgx2Mw01SqTyoFhCOi8TnoEUU/LL/QF8+M69+OCdB/CP9x7EztlZFC1WhOkmmhGZnw0xip6mYfHMNI0TGn0OowEzsSIeGkhgjATbajErgrojlMMWcVMWfQop0/yLXsR4UsO5qawcFTSTyyEvz802WGzahJUSSVqdtYTrlnjwupX1WNfhUcaZ6khnYIqwVsKVpIt+ZVUaFYWEreKTu9qmb8p1JUGKJ2qnvCdlU/PHYouSbB1MY2A/CfcnHjiIf7z7ED5412F8f+sgwqU45RUDKqs2HsszEunhbrLbaSSKlplvDOo0EuM3Lq/Ha5fXoJ2GDCNXOSCQd6QKkUo9PIKqVFWIoSb/NfnmQ8q4pFFtz8aTJOWepJGTZaEN0ZC6ecMwy8oBfOSug/ja40MYjoWUngopyZNKIC8Q1T0JQtRPSAwMxm1Wc1aoO17K+6CgMWfeNWJfOI9/fWIC77v7MD569y588e6n8L0NOzEQnFWGqKRISLt8kMjl6J8GagMNYuVf5Yl2VEJ+NiiDQZSt3JRo9PHg5cbxLD593xg+eMcgPn33Tnzhrifw403bMJmOqPKqGRwC+lMFhdcVfUgZ0X6rmKcoEVHVLTQvKZ/KESlQ1UJ1iuHZJUqHDh06dOj4X4S0l06ShwaHASYS0vnNrTqnA9lkq8trUbuyzuGoiz8K0oMuffiDsTx+uSeM724N4MGBOLKFEjpdJpzX5sRHLmjBzRcvgt1oxXQhj4dH08iT9LjISwXS063ZLiSUclDeLHlPQREE6QE2a8MdxHHluWKkx6BKNoQEixshefLbSAPB67WhUMzjmeEInphMkxd7cG6nG5f1+mDIUqb+MLYG8nBZPDij2U0jwaCI/Z0HwvjahoPomwnhsiWd+PqbL8R/vfUSvHppDwy5lJJHyNJRIAGSoR9lEipF5CirrPUuKbWQVq2qc+Lsngas7vHj9G4/LljUinOXdeOsHpknQLcV0jcfMjF8x2gcE6EAig4PDkaz+Ppj42qVo888MIQdM5TF5sJELIG+qSSyQrpFZ6Iq6mGud1ygkS0x6EyiMpnwzXKjROU9IfPxXB5Rkt+MrHakQhDST5+UQ6OaDE/STrYuY+cVGECVWGsx0AfvHZcYsdxU80scyJciKaMNDgvzpRZrempxOvWzdmEdLljWgvOXtqNXJv9amBalnhLyRZFIhJZeciBD5isyx3JlqORL2ivlhCVC/QqOlBNVRgTyfUO+LggkPDWY58i1nFfoqYJca4fsdm3gQY1QdqfBjAva63Dugkas7m3CGUzD+YtbcMbKbizrdqmdsSXmOUmOAeWpGjVq52XKnmdZHg0kEY5FYHbUwOf1qKJfrOhcvobICmMy/GY2w3dwxxR+uqVffZV609rF+O+3XYJ/ffVanNHkV730RurdyPIlPfomHgKJQxUUopoy2VfhxJB0UAjxQgPxMK2Ybz8xijv3HoLDasH7LjkDP3rHFfjU9Wehw+3ji5yjU824En/a+yvXWhySdwrynOlR7uRXXNOpuJJDdCJD+k5lPJdWdejQoUOHjpcc0lY32C1Y2+pGo400lER8rjHlU5LjerssIVgPWVlRGlvVaEur/GKhiGIRwUQR/7NlCl9+dAzfeXoGA+Gseiykx2c1YXEDib5F61FMZAqq93GJ3w0r5czkgLFYAbkS6QkJmiw52h8ukgRmIUvs99TKUqoagRJiJsRPEfP54itSRfYoaRMSQvKmiDHlM8qkaZljYPNi/3QcO0n4O9qa0VljxLomBxpJbHbQcNg2k6aRYMbp9TZ4qcexeBEPDESQRB4dtbV439o6vHqJExd029Hiodkyf2wN4xLio07FpBEepEiNtrqNy25W5LpcKmBdmxv/cXkn/pvHD67oxFcvbsEnz23DB89tRY9PdFQlrAKmleRzIFrEzumspBpmGlstdhPsjIS2DEM1oIPXTrMLhXIBzzAtg7Ec7zJG6ldkEUlL0v2uUFRfB7rdNhotJI0kcbFkFgWyNekpn02V8KMdQXzzqSk8NBhFRj43UAaBIt0MUHJDQYi2nNJfkc+0klXJGN6rUE51qe4rvUi5kCdFlVeyopPRTt2RvDbYTPgI9fBD6uW/LmvH9y/rwmfPa8cXLunCtQu9qHeT3NK9DJ3ZH00imJbyYEa6aMSjo0l845kAvrklgP6oZtzIXyGcWi90viKHkHvqkfdE3hSVo31h02SM5+VrjmY0SRgKkmw+1fJYcythei0mdDhNsNJAcTOMt63y43tXtOGHl7fivy5vw+fPb8LN5zTj3We3wG1jqOrrVkV3KhzRJX+FlLOsiNGt5pDQ8JAdzB8bS2LDQIIKK2BJjQtnt9oqewkogfhf/piVrIeieTwynkCez8/srsGHz2rEFQvdWNflQC31K5JrMMFrNqHOxXBoOEyR5MdoXKkvQnxv8rQSZUSQln9aWo9AZGRcMuxP9tEQrT40nsSW6RQMrjpcubQef7PGj8sW2LGq2QEX3YgfZo9Ciemopl7KgYBq1H4lTKUD7boK0VeJ5Vo7FzDMUxRzeaBDhw4dOnS8LJC+/CIuWeDFm1Y1oMFihzEra5WnYc7JREMaCGtqcWm3g6Sw2ihLQ/sSNLZkJ0Ilasnm62RPg1wMT41F8OvdUTwyksYTUzk8OpLAhr4Icrk0Sa0F7V4rybgJZ7S64Hd6EMxn8ZuDsmtwEpuDOfz+cAJ3k5ynDAV01NmwTMZ+kzmI3AYSWSFnGoGZg40ER742yHCrIMna5skUdoRkIi2pMu+d2+REh82KbCGFUi6BaxbWodllQb3LDK/PjGwxjWw+ASetqDoSUTOZkNgAyRL/MK58sYTRRB77wgUS5wS2TSdQoqWjJpdWSH2V/Eh+CGlT8lFUC+Nf2GhHc40bBca9cTCMHSRWY8mSmiexaSCE/9w8jJEg80tWn1Jd5Rod0mCgcZPBXsZZNJvR7bfgHy5qw2ev6MCnSab/+VUd+PglbTir1a5Wg3pmMo6DAY0Qaz2ylIzkqyphmQyQSccSylQj5Jzpu5+6v5fHE9N53HowgW9tnsYvn5zG4VkaJrQC5huU1V7u+Zgv7VFuZc+GCpjlitzmmZf9sTwenyyq9fftVjNWtXthN9owEEjhscNBtSfBeKqAQ7MZ/GrbDO49MCuCo4ZlrLvZBqvJznIVxm39cWyi8bR+OInv0kD44aYx3H0goFYpEiJro2Ek5UV6q/cG0nh6KqmWW3XZaKIwX1I0LLfNJPHoeIplNYOHBuIYCWeUvOpLkHam/h4LmZhd6zBjBQ1Ql82DcC6O3+0NMJ8yqqwMMw2/3xPET7aMI5amYaz+aYbIHERblWvGF6TF8vQIDYO+JH62O4KbN0xgx3QIPksNrumVr1w2upZ34WiNC2Sfj0RB8obnTP9QMo89wTweG0mpfQnEeJDykKHfNhq5ZzS6lJE4Esjgf7ZP4ZHJLB6ZSGHXJA2NQvaofKxCSavipk5VmQKijCtbEvdAOMt4aaxsn83hYepygtclGjwGeSE0q+tZZUcgJUzClHSpfxKHliziyAnPKmbLccI4FaAvgapDhw4dOl5WSAMr7a/PZsZSEr8ljU4s8bmxtM6LS3tq8eerZT39GtRZpe/2pYb0jZXhsdFIcNtxeCZP4hvGfpKx+/sSuEtWXNoXwjMkdELQl9X68c61DVhca4XPaUSibMQuErSRcAQbR7K4czCCRw6EMR0Posnrx7vPIfltsSl6JT3cDwzFMRoIktzTIDqtFnY1yL6siPhmGiM7pkKI0lzYQmI0Ec9iTbMT9SRyQpQ3DEYxEYuTiNvx/nVtWFqvLaUoBOrgeAxFEqMLe1tw5cIa+G1g2GbMxorYNDyNBFnmtqksNjD+W3fNYigYRsFsgc9oxXk9HnT6rNhOw+SR/inUWJy4dLEPXbUy1lt6hsuU14IcSdXOiSxlCOOxwQzuobFxJ42jR/bOYs/UFPweh5qEbJEeWo0JqX/SW34r3T09MAUZYfO2NW34s+U1WFJnQk+tDb08umts5NBl7BrNIJychcvpw/mdHjwzm6D8cRRLeVzW24AzmyiTGl4CuO0mpAombGHah8Mxku4M7uqPqGVfYwxjWV0D3nJmE40/M+4ZimJ4KkLZrLik10eC6RABMZso4Dc7AookrmipxbmdThplBvxqexCBZATtdT6WQS/qmNcyD+Ke/ihGEkm1zv+GgSgmc0W8is873GYMklgOhkPYOZ7A+qEky0IM9+wOYtvgJIZoVFzWW4MeptNiMWDnWBIz8Ri2jedo3MTxwMEYBmYD1FsR7zqrE1ctcMJhNql5JhsPB5CiIbJ/MoMDo3EsbXKjxeuAzN0YCYfVilsbR1O452AYD++bQagoX8HKaHDYcQPfG7fVhP85GEUkFEENDe7rFnvRxvyUYVmykV6Ny4qxTBEHJgLoD6fxcH8Sd7Gs3bU3iCcPTWJitoA1nT4s8DtYFjSSW6W4YjQdDmZxP/M3ybIcjKWx+UAI9+0L4tHBkFpty2124W2n1+FtZ9Sh3knCTWNiNlXGo/3Mt+AsTmM+yRKosnDACI26A7MxTCdYbmmIyj4Et++eofskk1SifzcuW+JFi1sbNLZvooDJ+Cy2ThRx30gE9+4LYD8NBVnGV75eLG/y4SrmzwEasw8xvmw6iVa/B69d7Kd+NXNHNifcOZrGdCyCwZiBYaVoqIWx8cAk4qW0MipW1NXgwgUuxKin+w/HMRkJYHlDPS5b5IWN6U7TuHm4L4YDM0E0eHy4fKEP7TRkZJd1WcZ361gChXwaF/c2sz6wa0bEKQj9S4IOHTp06HhZoYZBENLD2+Aw4aYlPnzo4iZ8/NJm/MMF9SQ1NagRA+F/pV0tCZ+ChWTnwk43vnLdQrztnOUwOe2IkHxEJocQC08ql9cu68SnXtWldlqV1Ze8JJPvPd2Pj1zYptaXT0SmER0dQTYVweq2Bnzmkk7ctEh2kpU4pEe4BDMJnFATJ0lvdQlI+Wsxl/G6M1uxpqsL1kQY6cgYwqEc06zRMScNqAa/BTZeL6pzoMVvVT5lGMbFNKpqyb6d2Swua7ahnUSsQGvKZS2TnNXirWctgp3XM0zLwf4+nNnVhDedvhDuohGxfEbt6JunjJZSkXLJ8pRZmCmrDDUS/ciYfVn3/i9Or8dnrlqI7vpGxNJBRCYGEJ8ehcPlxocuWYE3rm4h6TRoQz0qNJJ8UH1teGqURJwmXiefX9/lhM8i5o3opajG8ltNJayVFYrc2pyBDQeHMRjKqlWenMUM3EouFbAipqI6WZ3o72iwfeiyJfB4XUiEJhEZH0Q2E8GlSxfgc9d048w2+ToB+Mt5po9hlTNwSLokP5Tmy7BTBhnvbmWeSI+xEDg73Us8RvlVcgIe6vpNaxvR4/HCkAggFhjGZEw23zNidYsD/3x5D25atRAlpjEeoCwjQ0hkkjh7cTs+eeVCdNU4KEuZ5cyDT/P6gu525JMhhMYHEIuMo8XnwseYlreTUAuxlzkAapftJbVwJGMoxKYRCaaQygBNJMmfurQLq5rqgVQU8dkxZGi4XLmqC5d31cPKAmArs6wxbWJT1dCAtPCeq5SBhemTeTSSLulN7/YY8fFzW/D+8xfD63AgxnhiY8OIhmdR21SHj129AOfw3RCDQhRRNRBUHlNfMi/EzvCceeqQ50neCMmwQI8dN67swr9f14v3nd+CVpJmkUUgcyBkFz0LX2pzOa3kaXGBBngzLu9pgzWXxuTIIPb1DeCihU24orMZDpaBYCKKw7NJNdfn4g43PnxROxaTrOdYHpOT08roPb27Hn67Tw1TlBWnBBbG4GQpl3hdqrRrgsjwqdWNNnz0wnYaFI0wxGdwqO8ApgJxvO3CpVhXV6v0NhKPYyZVgMkkw9ZyWpqlbPBX9CGqcaNA3UqgOf4hWPjLBhl+JOmk/qWcG6Q8EVKAT0EYpqenT03JdejQoUPHnw7YiMoGa0JnZBWWlwPkhGzXjQhmihiI5JFKFZHLkhiYTXA5jGj1mtEmG33RbbUnUIb1xAsl9EdLiMYLSOVK8NhKqPNa0O2zaZM9xSn/yFCK4VgB8SzdmIwkN3Y1hEWeKbJhNOEwCfVYMIliwYh6j4UGgV2RfRlXP5LIqdVxfDYjOkg4nTQsRJYI5e0joZZViBbX2lDj1FYKEoIvXygC6RL6ZvNqLoX0evbU2yHLXQ7QCBF3TS4j2pi2YKKEyWgRZjKgrhqzWsJRhndUIb3I2bIRh8NZhOJZlCmTDC/y0ijp8ZvV15gi0yh+5nyVKZ/oJw+ZQ+xi2MsaHDQKJNmkVmpCgIY8DRkZvhOlDoXcLqtzIlksqg3YhF2200hqc1vVFwf5JzBSv0kaSAeCOcSZX8U8DQEG3lZrQQfTZCQJZfIxwjACSRogpjx6mC8NDhJWxp0inzswI0tpUg/UW4tPJpkbsW8mq/Zr8NjLzEczdS1TtmX8P3UdyCMQJ/kjBW2utWKhT3bmJidluicowzjTkKSupdzaqUPZuVuWZzUYqB8SRTUenqENx4qYiGQpg+icRJ7Ef5Ff8ltW72H5Z3gyZGg2ncXBGZZHlhs+xmKWCa9Lvk0ZcUiGNUUYF/Pe7TKgvcaOLBU9zbBlc7XFdVZF7g+EC6oXXDYNXEw9OmWYlmLsWk4ZTSbEskWGR3mSJRW/nXJ4WN6X1NE4FdnVHBYqZV6ZkPwLpViuIyVSZzGX+IzpLjGNFqsZrQ4D80w0R58VC0FW1GJRxkA0hxQzRxYs6K6zqfQWmN6JWIlpyiLN9DpZ1jvrzMizXE3x/RLS3eGzoFneQ0aVyBoxlCzSyMqgwPJU77Hh7uEI/uvJWaY3RMO7G1+7qFVtojYQKaplXBuYp7LErFolVUg8pS4ZLDgYymAmIvshAD6WhZ56K4LxnHp/bHQsfkx8RwcoW5I6brJSNr5vMmenRAN7OJTHVIbGOvW2wGdSHRt5JnmUZWKa5aVIY6GH90V2KfvztHjKQDcSdOjQoUPHKxIl/tNWTRFCp90TQiqQSY78q4i4MhDmESXV4yxdiYQ8EgIrpF+IpwxVqLpUXnioLye8kHkC8jVB7qsxz4xbVtuRa4lXSGWZ5IPUSLkTo0nkkJ79opAMshnpjRd5hTDKGHMhaDKJVYIr06eIJUuayhKvwn7kVI3JV/IIeVOR0Y8swymzInifvook6SoxR0HTSzWtR4Fxypce0aFg/jRT8aMCJoQI5ksyxpvGV4VMCiT9VXcqjZRMPknIPW0dfc1NQe4xbHEhEN8Sk1G6lisQ/SjzUvSgIp5bCUcgS47K6joyH8NMklgWksf7Er6QeDX5Vj4/qFCKoh4VpsgkRolF5YuEpOlZEi6GkehfvEl5mA+Ro8Rwy/QnManJrcwxMUih5jxU3TM2XopxIe7kn4RvMchEcglfUsK79C/zMmTCM4OpaFrCoBxKMMonehWZ+WOUP0yj0rGEQDdKR/PEZMpoHNEvjdfqWH2BuJe4lJTUi0ovr+RH7kqYkqeSlmOX0xXfjIaHyKHlhECFTj9C0qsxiXEp9yQOWRRAvQe8xUvNrwRNgq5ygdcS7jgN6tv3htDssePMdj9lFyM3g29vmcYjfdM0iNy4+cp2vGlZDayS2EqCxX9RlT8TStS/XIvJdWTfBqVUxiEiidQ8F4ghVpVDXfNCDB+5J8aG0oN617T85n+VN/LeHskTyi9lWDD/HTlVoBsJOnTo0KHjFQmNCgkxkL5kaQql55SNO9mC9P5qy4EKQZUVXqTh10iHRuCqJIjkguHITsGKtPNcuy+QZ0I75I7QT6Ej1SZ3zrdQU+1CSCXjUuFU/UrovOY9GQ4kV3LfpAgcn1e90onmXtKkha3CoANl5PCeUBShRyKj5o0GB+NUEghDI6o+NWhyyCE+qhRnLnShsNrz+QSo6qMaZ5E6VMaRyKHSVoUWviZL1b8Mz5BwJeWaW8mb+XFqv9rqMZqqGJesmCP5plzykPgq55Iv4l50JtC+umirBWlaNqoebS3vtLhEJtnYTS3BeeSO6Il/eTqnDU0+7a+kWUuPnIs/Td98qvKAYZKkSvmpQlshRwKlXylX9FEl94qAqjvqrgpRQpYck1WgVPlVQckfuZYSpqbD04XEWX0mvipxVCCPNP0IqhLP5aPmnyEpXc0v0/THtKiQ+Gz+fYGKsoKjQ5drTUcqRJVuuaeVR5FZ7osEki55n2QXboledCdyPNgfw7/cP4pstoyuBg9gNyISy2IwHKcxn8frlrXiY5e3Qe0Zx7AkdEm3/K3eUUaguqflzhH9i2x0IhKqS0Iz+LXcFYg84p62CY0ZhqGClXv0IBcsf8q9CkfKipQFiWVeuTzFoBsJOnTo0KHjFYmqkXD8Hj5pGquNerWZ1K6rRoI6VxSAxEF6KcWd8AX15NmYH2IVihDxrkYDNSqhYc71XOzaWTW+OQOAzxSZOxpVf4L5ROXY8KrxPBeqcs5BOz+xDjW9yH2J5bliOFZOgeiiimP9intxpxG4Offz03gsxE91md1q3s0tuzt3bz6qcWiu5LmmMbmuun52TNqzqiySq1Wc2N/8u5Knmj4lfzVoZLOKqtzaczmqzzR3WihHp08wF97RvjSIxJJfcpdy04GS/3h6qZS54xkJJ8KzQ9FirOZztSxWSbV6nypxa3EY0B/J4u4DEdx7OI7t4RjKuTQsZjuW+D24coEXb1ntR5fXqr4aaZ60UOdknJOiGk8VSt/qMZ9U3iVJ5/z3qupb7hz/XM4091JHaIb3nP9TEbqRoEOHDh06dOjQoeOkhgwPypZM2B/IYV8kgWLGCJvVhJ4aC1bWW9WeKgUZA3ccg1nHHwfdSNChQ4cOHTp06NBxkkJoqtbvbzKYoIb8q6FYFVSG4cncHBmidZyPHzr+SBzvG6sOHTp06NChQ4cOHScJtHkEMqm5SGNAVl6SeQjFYkFdy9xgNXRJNxBeUuhGgg4dOnTo0KFDh46TFOrTQeXvHGQGxdydZz/X8eKhGwk6dOjQoUOHDh06dOg4CrqRoEOHDh06dLzM0EZZzx06dOjQcbJBNxJ06NChQ4eOlxliGMgSj3LoRoIOHTpORuhGgg4dOnTo0PEyQdZe19ZfL6tdgeV49s61OnT8cZDVP0+2FUDVvgqVPQe0Q13qOAWgL4GqQ4cOHTpemRDiYtT6yhRxVxsgzW8SeW2sbPdUkh7/F7s5koSt+Y+mi4hnSgzfCK/dAK91jt2dOAZNNlnw8ehNvgQn9vWyoKJLRQBFV7wWybRNwSqbVsmyldSv7GQrmyRX0/tyQ+SSvBQNypKZkudyLnILDGqNTQ0qLUq3VT3/X0JkOJ4smrwF6jScL8FMNddaq5uDnRxI5EqIZoBiuQiPzYgau+wuruNkh24k6NChQ4eOVxA0kpUplNEXzJO4FEiqyuitc6DRaVRmgED2ZBoO5TGZyMNkMaLbZ0GrS3ZVnqNqfygMKPIPyRHJ8W1PB/DLZyZRdtrw5rMbcd0SHywmhi1kW/07HoTaak22WWitScwX7bokS0LSyJm/Q+zLBZFgOlnASDgP2j2os5uxoM4Mp1keik7pgumaSpToJos8LYQ2rwWdPhtMYpS9zDKLvKLJVE7L4ygJrElZN5occ7sviylWRrPHiA6RlXeOtwPxywOtZEr+GquGLQ2YAnUpOyuLyfP0RAa/PjALr8uMv17VgA6W55dbt8eDyPvQcAo/eHwCmXQOV62sw7vObqDEOk52mD7ykY/cXDnXoUOHDh06/sRB0kR2MpEq4kuPjeH7j0/h4UNhLG/zorfWqgikENpc2YRfbw3gX+87jMdHoujwO7Cs0an1gmuh/MEwiE8ZXsR/D/cn8Nv9QxgrWbC2w4vTmpwwmqphH99I0Hq0tW8IGVoxg7EC+uMlxNMluKxGGjv/B4RQ9EES+MhwDJ++dwC/3T6DbZNJdNXZ0V0j+pSvM9JLb8DGQ1F88Z5+/Hp3kETWipUtTthpgDGIlxWalkwYjeXx7UdH8Z9PjOHegzHcvS+MO/eHcc++II8Q7t4fwvq9s9StCae3u6Fssv8TaAoSAyGWLaIvVsRwogjaZai1M9+ZoBSN3h8+NYVbtgxi20QK9TUOrGtxnQw2gjISNgcL+K/dIQzHwmhvrMUVPW5lk4l4J4GIOk4A3ZDToUOHDh2vGCjSyqYvT4YyTuI6bcyQqJeQUuxc64mX4SaGcglJEsmZchqxkhlFg3xFKKme5OORGjW8pnJILPIjw5fEz7MgpFkMAosNFhMPo3xdmGPK6ntBhTnPhSlkSiQvkXQBM2SIX6WR8/pfHMC/PDiM6XhRyS6+tRC0eOf7n8Ox1y8OQiRKZTNmYEPAXMDWUAK3HopjMk15ZbhWJbosDaRgyYjZcgJFZeocRzfHQHRY1ePx0vTs9Mm5du/o+8egwn7ClGfamMeoqYBpUx6zPGaMRXUEDAVE6S4l1oGaO6L50aDFox0vHPPlmh/Cc8kqj0QHJpMFB0N5/NNDw3jDLw/gm4+P0zA0U4+agdjht8Hj8qLV78IiGmjKb2UIleDZOlExq0MNtVP3jo/5fqtu1XGMpzl3Whms5hmY42UzDUKLFaWKtSUfmnQD4eRG5TXRoUOHDh06XgkoKXJKngOTGAMkWWUTadYxw0jKMozDUKQjC4x8LmRGxq8X6TdVLCNLA4O0HAXeT/I8wyMrriRMIUgy1p1n6rsB2WWOwaeKJqQKRhR4rvF5jUSR/vFCRu9L/7Y2oTlDAVNFA9IksXIuw5SElYmbPONKFs0IpE3IJmYRS5SRLBh4X+QWEifulMSM16jCSDOsLOVWpI3PBfJTOX1xkPiYIAf1RGWhQBL40OEINgzSGKABViXX6ocWjoE6lYSIdqoSyJnQyRT/iKyS9rxKDF1U/Iu+CuUi0ryhdEKInrOSRqUrCU1C0cI7MRguwxHNGyhzuZBDu8OFD1zYg69etwj/dn2vdly3EJ+7rhdXL/QpXyKTyJdVV5rcIqLMBZD7OYlfbjPBIrtKA/NKEpHnfSknkhdioM5Bk1QZifQj7tIsdlrea7FI2SxLmoslxHk/lqKbRACxDBDPS7xG2Bjnq5fX4/M3LsKXrlqASzs89CvD2xgAw5WfAt2I7iR82m9Kd5I3ErU8N9JdjkaFxK3Swpvz5S5QzxKWzDERuUQm8SjvgbwP8g6o8srrIgMVuY/OB/pS/8U/dS+B6DipoQ830qFDhw4drxgIGRJyEiH7uXcwholwisaCBdctrsPSWq33VVAkAXp6LIWnR4NwWR24oMePFY02HJrJ4IfbA9gxlSOrsuDpiRh+tS+CjYNRHI7k4XfY0OAkCSahLdPIEDLUFyng1/sjuHt/FFvG00iQbPWFc9g+FoHZ4mTYHqxqsMBCRpXKG+kmi98cDGP9oRgeH0pgSyAFG4l1o0solwFbJ5L46Z4ItkxnESsVUTTZEUrnUaSV0O13wGomkSXJOxAs4JaDUdx7OIYNQzHsDqRhpsz1DsZFclwQmkxlaCbQH48yyebBYBaPDsaRIOGGyYxMLk0ya8DadhfqqI8SyeWBQJaGQwypcgEXdNbh9BYX06X5D5Hwrh9J4Df7oiqcTSNRjKcL8Nls8NosyngqkIQ+yTz50c4w9Z+C3WrF/mAOv9gXxsN9MWyfScLGe00uGnZGjcgeP21MM9MdJlPe2J/AcCiMTo8H7z27AVd0uXBanU0dq+rlsKLRbcbO2TR+ti+IB4dSCOWyWFhjpQ5NKBaNuO1AhGUghNFoHi0uG+0kE3Uex6/2BjBBFm+1WbGeBtMt+8N4nOnvi+RYTiyocchXACHaYvwYWH4KuJX5dSfzfsNQHNunMzTyyqh30ZCls43Uz892R7CP/sWAyDPfp6JplPMFdDLft06msWUyhfFkHnXUWaPDirJRKLkJQ/ESfnMgjrsPBFVZeIZlKFcww+80w2UWY6GMKMO5g+X01/tmMEr3VqsFD1Du3+6N4rGhKIZiRTS4rPDYRK8lmJlvKRqnWyjnbQcjWC9yD8ewY4bmMnUgc1NszAeZ0L4rXML6/qgyyFa21eDKThffQyaiakHqOCmhGwk6dOjQoeMVBaEl4aOMBDONhNqjjATpHdaMhBBcNifOX+Ajkbdj13gCX3p4EptI0LdPJ/DAnmlsHp7Brqk4dowXMUlSuLjZgwa79KSS+AXy+OrjE/j1rhC2jk5i51iYxkEeB6I5hEjwrQYTLu7yYWWjHTHK9PMdYXxr0xQepGzbpsIMl+R3PIldo0n4SPqEDG4YiOJHT45jppAhGbMhXShg3/g0nCTnF/V4ydGNeIzuv/74FG4ngd4yNIbdk1Fsm8jiAIm0h+RvUb2dJE8bNnIiI2H+0BSNy52A0ImREM6QfCYQLxZInmmoGMyYjCbgsNhwZqtHTQ7fT/K4kelKlvM4XxkJDspswBCNq+88NYUfPhPApoFJ7B6dxvbJOLZNFnBgNonWWifavFbVW31/XxzfeaIPO2YN2BHI4MH9JL2HJ7BjMoQd09Q/ja8lDU40uC0qXSdImUpKiEbChoE4hsIRNNJIuGapH030d1S6eYi58QDz4LubJvHUUAAlsw1X9dTAST3nCsD3n5zBb3b0s0zZsa7TAy/1+4tts/jl9kHsiBhJyBO4b+cUnmE52UH975jMI0+DbnWjE25FuIFNw2l8/Ykp/G5vGNuGJrFrgumZyGAvCbiVBmJHjRv3HAzilztGaCAUYTDbEcnlsPdAP5o9XpzDfP/NniB+tHkUe1jm1tAAW9wg5ZnGLsvCVx4bZdg0LAfHsXOCZZAGxVYarDOZIhZRDq/diFlaHj/ZMovf7RzBzqiZRkcS9+2eZZrHsZty75zK0igqYlWTS82ByZTN+OneGL69aRgPHI7gmakodk3GsJO62k+5nRYzeuuclN9AI6GA+ytGwqpWzUiQLxe6kXBy4+gvQTp06NChQ4eOY1CGuUIcZdUj6YFPFGIktymc3VGL1y/vJslv4b0E7jo8hf/cNoN82aiGgtx+OIYHD80iWcxgdWszblzZgxa/BbOpFEOhJSIU1KANyXn0QADffeAgDo0dRqvHjtev68a1q9tR53Jjd2AW3980jVGSreWNLlyxoh7Nbh9JVwb1VhtuWNWN87q9sJO8DQTz+K+nZ/HY4BiJmhE3rujEa3m0e93YOjGDH2yfJsHO0jiSIU7PJmnSqyxDscwmI8xmszrErcgoWpij0HOQkCQ15nwOa2oduLS7FqZiCb/YMUnymKQfWfLy6LjERIlkS/jt3hB+tW0C44kwzmhpxmtPW0wjohnhTBoPDwTwrSfHMBjJKfeyFG2+lEeimEB/IIEuGk2vWdaJlU1NSBfT2D4Rx2NjcaTyRRn5pdJx1GEyqZWMZIiXTKgWyG+KBkh/NI+DgRz6Qzn08ThEHY1Ei5D5EzJwJluyMP8LoOZUeiQF9EaRZPJ1EeWSUZWPkgxKEzn5O5VKYprl5ILuBty0rAedXh8imQgeHU5RL2kV9ljSgJ/sCDGtkzSwLDRWuvAG5mdHjRN7ZkP4hXw5oYG1trMWly5phc/mQDmfQrvLyTKyEmd0aMOhDKUCdZMTAZgoyS+WBcr/nzS+HqEhlaeMF/eyLKzqRU9DDQZjIRoyNGZ2BagvyXemqWRCkWmaodzjlPvcrhrctLQDjW43ZjMxPExDcCdlKTL99w1G8bWH+3BgaAi1HifedM5CvP7sXuV2x8QUbtsdwwgNQJ1qnrrQc06HDh06dOh4TsjQHI0aC7k0lkogbcaVvX7852t78PUbOvBPFzVhYW2tIm87+8IkvwYStALuH44hgRyaPW589qoufPumdvz79Z24qscDC0mwWvmnQiprTGaG2YA3n7UcX76iFd+6sAlfv6QVr1tEEpjPYipdZJhprO1w4R/Pa8XpNVYYsyn0Ogz46DlN+LPTGmA3m/AoidyjQ5PwOhrwrrOa8R83LMBXGed7LmxDfW0Tts2EcTeNF2H9x5IAoc/hTAm7QnnsDBV55LCdx/5IAbFcWWlBlts8FrLqk4FpsBYKON1vxU3La9BEQhxIx/Efm0dpAFQnVtMgolsZBCNmhZDy2w+EEDMU0FXrx6cva8a3bmjDv13XiVctbKTeC9g3ksChqQRJLg0qEn355yQhf/3KWnz1Burppg58+KJW2E0OREiEdwZzNMqADOXZE85jeziHHeo3j63BLIaTYpQxDWUh+TTVbE70Z/L40D3DeM3PD+Omn/fj1Txu+uFefOuhYeTyMiSL7tUQJsauioL84cG0GEmu5UoMSUmbpCwvNgTlbbHb8fcXtLCMtON7r+nATavqmQYTBtI57CSBli9WT42m8cBgQA09u+E0L/6d5emr13fjr5l39XDg4OBBPH5oGlf3OPEPZzWhy8t8Z3k4g3r+xrUduGGFX8QguReryKJWm9KmD5TxSH8Mm8YSKPL+q3rr8bUbevBthv+FK7uo73qkskEak3E11EmbQUMUWV7tTnzo/FZ8k+XmO6/pwcWL/Sq5gykjdsdkeBQNyEIZl7f78NYzT8fnLmnBl86txTcuacBrltSpci2rb8lXDVmaV3nWccrh2W+6Dh06dOjQoeO4qFKdGrMNpzfYSIZkbDZwZrMTF7W44SB5jWfLGAhkEU6XEI5mYSRBO62jBsvq7PRfJskzYXWdF6R6vJLR3YShiAuX+vHZ1y7Cu8/rRNZkxO/74zQykhiVBf1J/PJkp+lcAUWSP5kQXOYhkAmkYmQIe42mCxgIplEqZNHoMsHntmH7dAq7ZnKKNNY7HTBkEgiHUkqW+ev+y6o10kG+ZSyF997Wj7ff0Y+/unMQb7vtMD720Ai2BzJqCJW2W8RzgLKc20bCu6wONoMFeyYzWN8XQrpYVvs7CIEUQiq90cF4AaloHuZSEW9c0oQljQ4lZ5fPihuXNKo9ACKMbtNMBskc/dGvkGBn2YwLGz0ks0JAS/B5bTA7bSSvBQQLRTXhdiZVxocfHMZf3DqAd945gHfcMYi33HoYv9gbFvvoCAESDRgYvzmTgimZgiGlHdZkFIV0XhF/bWDWnK6OCxFF/ZRhKlFWhtlpt+G0ejeNN95lODavHbA6mV855IuaHmciaWTTISzwOkm6vcqtkeXqim43/vlVC/DhS0/HpV0yhp/GKnUrWS0oSSIY5vzhUQKVpTRQ0iTxM5Ek0xCB3+HHdSTvdQ7RVhnntDhxZptPTV4eZB7smU0pQ7hEI0xWo+q0GbG2keXZpA2bc/vcgMWGIg2ILA3BEo2xKxe48f9u6sU7aUzYrWbcORjFvQMp9KcyLEdWZChDIp9T8ek4NaEbCTp06NCh4xUHjZ5VWN0xmL9spIZKTzIhhEl6oYU4ylgT1SdOwuS0llFn057J6jHBTFF4Pwy5IuwGK1b7bbAIXRJSJwExDtUrra7kr0wCLeGhvii+sWkSn35oFDeTmH/lkUFsHIqhZPeIL4oiM31leMsxRF2YIeOOZkqYTtIgIKGbyJTxoy3j+OQDQ/jEg6P4/lOTGAwnVbLzuTJJqhZ3FdrKRyTyNHKcNCJcoTSc4Qy8kRwKkQwSTIvQBlnN5kQQQigbu3nMZdy4zIPlLfUIZ6K4ReZGTKWREq9KAUCBJDmYJlkm6TfTzyKfER4LaAApMUj6aY7Y3UiXcxig8ZPmTckF1TEt/qn3ouijkje0z5gcbcUppWeKa4pl4WcanMEMPCTj9eEsTJJBmlP5yzxKo81qwd+evwCfv24hPn8tf3nc/JrT8JZ1rWpytaRLDZmSvBd/PGQy9hFVVPKj8ghMvoLcFXJfqjyv9NUryKpZEkSEaRPjR+Y41DlkWBZzgnnT6jXiLWtq8MFLW3HV4lrRrBSbuSgrZ2UaI3IlUOVSO0OallIqK2WljFqmYZHPBBPlELnl65WN11JOJF8DefnCQwOw4l/iMoghWlX2cVBkmI8Nx/DNTRO4+eERfPGREXzpwX48zvJaNluVMTvnfX44VRl1nOzQjQQdOnTo0PHKgsYONQIj5yWSNCFfcs1fMQSEWMlQEAG5HBxGoZ58zOdCcdQXAIMMPRKirwJSY7kVZEgMA1Q9qLwnxFAjS/Ql4ZPYygAVIwmbdi7xGbFhIIsvPzqO2/dPwGWy4M3LG/C3a9twXouPRDZF/9VwKmFWW3DeU73H6nyOMEpPs9FmgZ2HxWKA22XA6jYHzuntxoIG+7OMISGqsqrT6k4Xvvj6Rfj6axfha69egK+9biH+5aounN3oVMRPRUioHmz6kbSq8f0V2SReUd3yRhv+7LRaeOw1OBBIYv1QFBHKR8lVOsSPUbqtVZg0PlR6pBe9kjCyfBnrL2m1yF8ZMy+oPNfSXImUMFbySw0l4v0mlxFfuLITX30d0/DaXqalF199/UK8caVffXkR4q36ulkAAE5ESURBVC5hywRanw24bLEHN51Wg1dT5ptW1uC1Z9ThrIU1MBtprGiFRQuf/tSQKV6qZURVauVc+xUKruW9yEE6TvdHCL2YMOKHjzUjw6BWCZLnFV+UScJkKHyeoXP5kJRWX42E2ovBIU95xbKjflneBEofjEudq3yRqHjNe2pGiFppiPckFD6T2RZyIsOlROeSj/JUg6Sqkg+EyCZuRU5xQV/YMJTE5x8dxR0HJtT8lbewvL5vXQdOZ3kt851SKquEJ/NApKyr80rB1fJJx8kMPYd06NChQ8crDk4SlA67mYSFpCeXRjStLVdqFBJlMiGaM+BQTGhUCW6SMFnGUyDETgiikOk8w5DdZIXsxPIlTGRKanKonWHIspUGWQnVZkKqmML+UJq+xa1GsvIV8iQwM6xINo8nRoIYiQVRY/bgUxe24n1n1+PNq2twpuzGnM/Qt9aTLl4VnawSQrkvrI/wMD4lq/SOOwz44Flt+O51Pfj+dZ34wbVd+I9XdeIb1/TgnevqFauWSbcakdMOSVutx4wze7w4q9uFs7rcOJvHmjZZylSooTaXYD6qKakOI6r+mqmb1y2vxeUk2oViFsFsivoUIqqRTiuJZb3DDhsDyNMSOxDJI14oiI0lfBRp2SAuk2BeWbHYZaU79a1jHrSwBJrBUIVclOGgYXRGpxfrFtRgbbcHZ3Z7cfYCL7rqaSCJ+uQ4Ij1TVWR+k4zLCj6Sz8Uiz8VQORK49it/TbxnIrnWpmNrBqRoQiYyiwtlNBFSvo5G5ZplphqqxyHbigGxghGzKZn2TH/UTTAD3DcQw8/3BPHEOMuPItWVsJn3dh5SnsSokHBlMJeme5YOBu4wG+FmeZDhbpFiGYdDssMDXbNgFiloSq5Zrtw2I5p4CGQImECZKZrVoUJWUas//GEcYuw8MxDF0Owkmn1uvPesZvzNWY14zSq/WrVKDG8lUzWRPK8aU5oGBVp4Ok5e6DmkQ4cOHTpeQSBZIUdptBtwabMNTpKnnNWGn+ybwYOjWYynDRhN5nHvUArrRyIokLHWuGlQ+LXlUQ1CVEl+w6UUnpyKYixZxmy6jHtHY3hkMoGssYwmawmL6qxodBrRVutUwzZ2DsfxzHQK0zRGdgXS2BNOI0tiLGPPhYxl8kVlKAj5FxJuVePSDZiMGzCUyKJMomcgoZcp0wIZ9CMJEVKYKJQwlioikC7A77RhUbMXRqsb/RHK1DeLMtPotrK5N1qxYyyBBw6HFRm0Mm1qGUpF2rRDKKz0YCuyPO/QjCMheqJBDUIWhQXOEUENQiGlz1t66z0kn+86sx7LfB6gICS14lgZJzRI3Ba4a2woMX0/FTI8VkYoD+yeLeC+/gidmeA1lXFGoxkei0nJdjzI/blnlFOILC8V0RfSz9/ykd9jwiDZ1qiwdr8alpgkMqxLwmm2luGzkOQW84iEijTmDJhm3j89ncZglJzYahefyn8VauhPxZA7FhJXiXoVNLKs2Jz1GEjEcedwVO1REMwacFt/Ev983zBuvv8g7hmOKLdinBhkHBURI8EfS5YQyMp6W5ShQuLlXKKWMtRW74LV6cdUKoD/2RvBgWgJs5kyHh1NY2Aiq1ag6nWbcVq9TflVtJAyq49MDOj4+hb9FJHIyIpTLAMsR2bZa4H/ojRsZhNFliu5EiOm6kXbfFDHqQXdSNChQ4cOHa8gCCEskECVcU6XDxf2+GAtFLF7NID339GH1/9+AK/9bR++8GA/SukI2rx1uHpVI2odWg+rIpOK+RjwyMFp/NmtB/Geewfx2Q2jmAiF4LXW4LJVTfw1ottjxtUdbnjMHpL9KP7+9iG8+55x/O2dQ7i3L4S8zYES45ax9TV2CxbVOGEz2jFlLOCfHhnCRx+exN/fdQi/2T+LksODDN3FCgWSdpJrlw2tXociovtoePz9fYP42hPjCNDAuazHhVctaiIBLOBXuyfx578ZwAfum8Rf3TqAf7j7ML6zeRSbR5NMg1kN8VEEs3L8IThCIKkO1fMu16U8jSJNP3JZLBWxst6Oa1fUk2S7eaNAj8wD3hejY1G9Fa9dXodaoxmhWBgfXz+Iv7lzAO+5ewD39I3DQWPigl4fVtPwMSCvyKmEIZOCjXwm1FSDEFf+yPh8ku/jk9s5iIiSjzLkSHRYoiKqw6+qxFb66NUQMh7LmDerZNIx3ctXoQ/c1Ye/umsAf3fHQWwPB1G2OhkoSZUKQsLViLSmU7mpBSqlT8koRFw9KeG8VgeuXeiDKZfF7bum8a67hvE3d4/gXx8bw3QihCX1Nbix26fS1GQ3ocNmUrtWb5zJ4A0/24ufPhNUu2mbZKgZw5VYZeiTDJO7pMuLi7qcsNMo3Dw0i3fdcQjvvncMH71vAPsjM6hz+XD1Yh+6a8QIFuOwojf+iGzaqZaXYiDJPZHDYLCgq84Oi8mGoVgSX908gc8+OoG/uu0wy9wojT6TmqguO4FrYYhsEqhmgKl7fFSJTcdJCn0zNR06dOjQ8QqCkBYSQjIUPwnXqiYPCZUFsTTvkWBnYlkUkyW4DEasaKvFO89sxE0kUR5yKBm33R/I4O4DAVgsTpzW4kcyncbkZAqWbBEtbgfetKoB71hbDw8Zmoxlr/VZECVxi4QyyGXLCEczaPbY0NHghSlVhptsde0CD85osaPZbUWwaEYilEOccgwFEvDZreimW7It+IoltNZasKbNqXazlSEpfQGSQoZTjqXQZDHg7J5a9NRY0O1zIFsyIsG0JBjWGOPPJLNo8tpwI0n5ZYxTOK+mDe1Xo3N/GKTHXo6DwQx2DEfhTptwWpMN5yz0kkCKBVKEmQaZ7NQ7HcoiEy7CS/druiTNLtRYjOjyW+Bw2DCTAjLxHGbpLkfDp9FhxvUrm/C+s5rRVWNGjnl2cCKL/qEMWswGXMA4ehvsMBoNmEmXsPlQAM6MAUsbHLikm+mTLw8VOedDdng20E9YvuoMxRAPlZh3VlyyxIdGyql0IemSX/4TYuyjvl0WK4aCRRTTOeq1gEwqg3VddUwDZYjk0e424/xeN/wk8TsH45idypF823HhQjfqXRaSdgMOTKdweDiOGsn3Dg/WtTrp3ohm5ku+ZGFe5RBlXgV5OA1lrOqsxTvOasWlnW61ipbdQj2Qb08Eme+5PLLBEBbUuHD2Ah91k8YY9eNgWb2IciymceZj2J21DhQMNkQSBSQjGQTCWZgZSHdDDd59djNes9zPNJgQyxewrX8W8ZkiunxOXLjEiwbqRXSxdSKB0eEY/BTinC43zmhyocVvQ7zMcKMFyp3HwHSMxrcJi5pqYcsXYc2ksbzBhXWdLgxF0tjdH4SnYMQZbS4aLh6l26qGdZycMExPT+u5o0OHDh06XnkolzWCmSniUCCPcDyPSIoEikSnjmSxlWRbCLfLKMN8SjBbLFh/IIK/u/0wz21427omXEQCNEGCnBMC77djaaMDTXYSn7IJapaDsYDReAH9sznMMHzyR3TXu2hkmBCOZVQPdmeDFW1egyKRY7ESDs9kMZPIqOEi3XVuuOgpEE2hXKRh4zGQ/LnUs1SuhL2BNAYoey5XwKJaG1a3O+A2G9Uo+fF4EYPhPKbjJOd5jeg2es1YWGejkUH5yjIAZK4v/g+F1qOsEb0Jpm0olEYhX0YrjaBupknmJMjI+xKfU8UYCJOgRmWICtBWY6NxYFNuYKAhkytjH/1PRItIpApqpZ8GrwmLqc9myipEJU8jYSySxWgwCwsJ9IIGC+pJrmVeQDQL7JlKIU9y6qdFt6TeSl1XB0scj+YYEKP+BiXfaTy5rSYsbLahRjJoHrRZICU19CtTKOMALZmRUB7xbAkNHiMWNzsQS5ZJwPNw0u+CBhONCRMGp0XveXgdvNdoU7qXnvMRkunh2Sx1V0Ib09/NPBMVio4mYwXqMIspGnXZQgmNHjM6qKcFtXbYTSUKI9rUdoo+MJth3mZRKOSxptmDJc12jPN6LJKj8ShlzIImj119TRBMsQzuD+dUmUtLWaBcbT47FtPIom3DsA1IM87DMxnqo0ijmPpoctDIoHap60M0LsZovEoZ7aBR1+mj3o1lDCeKSidBpkuyciGNArdNDJKUWq632cu8aHRhMpFTYctKYBLvIqZJyo76wqDjpIVuJOjQoUOHjlc0ZE6A9PoXyFfSMoyFhoNTVtIxFEjitSEX4LXsPCxGwvtu76OR4MB7L2jCe8+qQ75YVCshWWhcMCgyPqGWJMdC0EgGFVclCUuSVMv0Z0VDjWYVjyKI9KxRaV7woaxakysWVM8xuTJvMHrKJ45l1RgJX4wAmc9gZIhZyi2j0q2ypr2EIfHzmYFxCBGToSgyNt8mOyeTpBXVCkOyYo9G4atU+sVAiKSkRYamqL534X7SY0/JlCmintMBY9NWjxI5ZeiKgXoSA0nca/MYyGF5baI+xQ3vUW+y1KmsziN+1URdMtIidaFWKFLpMFLPjIn+RAYZkqTlnAR8NGSYk6CodMR85aUaAcOjXJbdAqoaqdIjSRHTwvIgK/PkeM4s1/QtqwcRsjyq5KL8kxWvTEy7rDpUYnhyzdvIUxeSJ7KakZQTbc4D5aB/0ZRR8oVOc3Qv+WUn21erZCm56J7+RLIq8c9I1Ey/lDswHk0CuqFuygxD0iJDqWRCs5RBWScqx78ypMhKN2YlhAz/oXeVVxI/f6WsUUeyRK1EJdqVd0TuqzLKfKNJoPJL5khISrIFPmHaZHK5xGlQk6g1fcjUC1G5lHf1S5mLLJOqONCvxKDj5IRuJOjQoUOHDh1VCMERMvOsllEmZ5pw374g3n/7YZjsXrznvEa876xaRZpeUEMqgWrM6HkhzjQZqiE/t7859yfAHxD3i8MLk/e58LxpOQnwQmR88Zp4fvxRuvojy0I1nuN65cPjvzc6TmXo5psOHTp06NBRBRnQsURHLpUZwAfSaNqkp7iQhkl6soUCvlC+9QcQszkZxM/z+3tecvZHkMI/Di9M3ufCqUA0X4iML14Tz48/Sld/ZFkQbyf0ygenQr7p+MOgf0nQoUOHDh06ngdq+U9aCIOzGdx7KIyC2Yiz2jxY1y6r2pSegz3p0KFDx6kJ3UjQoUOHDh06Xihk/DvtATVGuyxjr3Xo0KHjTxP6cCMdOnTo0KHjhUImC/OoTI/VoUOHjj9Z6EaCDh06dOjQ8QdAxl7r46916NDxpw7dSNCh4yWBzhh06NChQ4cOHX860I0EHTpeKqiuRVlFWh+EoEOHDh06dOg4taEbCTp0vFioyYuGIxsjQX75ozZMepFjEtTmQ0eMD9nI5uhD7s+HXOmLrOjQoUOHDh06Xiz01Y1eAMj5NMj6d0IIZcOQyuY5L5ID/klCiK22s6bs5Kjt5ng8nIjQGtRukSW18+axDlTYonn+PlfYAvE651s7+9/IO9kBVPaMDKYKiKWLsFlMqHMaYa1sdS84OhUvDMqPpJcnZdmxUt09MWQfUoNR9rckjujmJUqkDh06TjrIbrxSN6hKQocOHTpeYuhGwgkg26ULIZWt4YVspQpljCdySGfLcNvMaPMYYTPJFul0yVpabTGv2Bwdv0QVdvUzj0H2YJdcImmWjXsqNPAkg0glrZUJyVwZqTyJvgmosZRhMcm2/xq5V1vG01W+WEKkYEBR1hcvaykV/w6zkfqVHnLpnZft9jUCrs75N5wxIltkLCTDDrO4F3Uf/UFMYiqVDIjmCsjK2ub0K9niMJngshmZpxrxluULJe8k/KNDeOGQbfL3BfO4bXcYhycSiBVKsFH2WrsBZ/fW4MblNai3yzoof1ieiQG0P5TH7w+HsbTejet6XLCZxTAywEzhy2qDfdlEXzQl+gAiNFJ+ciCKFK/f0ONBj9daeapDh44qqm+E1NLqqFTX1XpEdT6QfKvt0/hTZEUmb1zV/f8ljpKdf6QWMFJI1Q6ppyeDlC8PpA6U9mYutdW6/I+tzXXo0HEsdCPhuUADYTCaw8/3BLF1KIkMjYQMqyab0QSfy4jLVzXgDb0u+O2slKTGlhal2uIcB9L4VKH1tD83hAIWSmbE81IdliHROEkUpfdInh4PzxfH/OfH4oXI9HyYTZfw803TeORglKzcjNeeU483L/PDrqr0Ekw0CAzGEvbOFvCdJyYxEsyqap6cXrkwsYK3my1weI24amkdLutyo85B2WggmUjyf/xYEL/cPglPnQ1vWduIG5d4lfFUhahGvhbMZAqUYwqPHo6jbDYz/BKsjNtiLaPGZ8dFCzy4steHBoeJ3gv0+Yc3LPLFY18giy88PIpHh2ZhyKVoGFnYaNOUy8Rx/YrF+PS1C9DoZporXxReCCQbppMlfH7DOG7bOwGPzYlvMpyrFnuQzZeQLJaRF2OBaXXRULJRLzle334ghI/fOwgLn7/34na8dU09PBYaayfOch06XrEo8J1J5orIk2se9fZLJSLvDG/arayPaIFr76/aW/n/FIoGixCsyw4Ecrj3cBjdfgfrSSdqneZXxLuu0kgdlFlRSueIgfVtkflTKhd5W76n/uF1uQ4dOo4P00c+8pGbK+c65kH6ZnbOZPHlDRO4de8UJsJhZAwW5EkMJ5Np9IdD2D4mXxYKWNzogU96v1lxSfV03HqaNdt8En4UIZ9fs6v70msl7k2YpGHyb09M4wdbZxHPlrC8wQ67RdzM81+FxMGfatDPIv1Khso5IedHXx/j/g+CFtimyTS+vXUGe8PUWTIOr9WJC7p8cFokVdp3BInncDyHH9P42hMIYCSbQSiVw0y2iOl0DmPRCPaFE9gxVlDXC+rsqLObFSlfvz+E3x/ch5jRh7M6vDityc5Goqo/rb/ebDAiRiPhjgNh3D80grFcDrMq7AwmYknsD8Xx9FiGBmAei/021LFxPSEqYUvc89UjQ9AkLV99coryTMNodeHsniZcsLgRyzqbsKi2Dhe0eXB6hxtmVTTmeZZ8qIZ3RHaiEoHoJ10o45nRJIZDJbiou6sW+dFba8dUpoivPTWJ72yh4TqdxjJaUA0uEwlPCX3hHB4biYF2D87uom6aHbAwnqNwnPiehaobPldl4oX40aHjlIH2lTiYLeO7z0zhOw9P4PY9IdyxK4Bbd4Vw+94Ibjscwz2DCdYZRXj5AvvtJphPAu4pb5+JlU8gVcYPn57FD57sx4GJDJY3e9DpZ12oasA/dbAdYb0WYV3YH8sjkC6pr8NSjRvUV2ntS7EOHTpePE5KI0GopPQqS5+AdkNIFd96efMN8kFRqnmNEGvV5kuFagVrQCxfwo92BnDbwRAypQwuXdKNt57ZjCuX1KKn2Y1ozorR8CzGggVWzlYsqXeRDGoSl0TWkshHIij/eC2VWlVSbadOxkLHRv6RCa/qkB4r5UJ8aURyJmPAT56Zwc7hYbT5SDx7NMItvfKqsStrRE6iNBpNqrLkiboncUgPuoQmghlU+DzkOQ9VnTJ++TIh3qSzzFSRU8a2i7+ihMN4NK2rkI4LeZIplvFIXwIPD8aRtlpRNplhMZixvMmBTg9lUyExdxnnWKqE+0fSCJHMO5wevPXsTly2uAHruvwktzWI580YjMxgKGyA32bBKhJeG/W7eSiJTdM0Pry1uKjHhdNoNFVJrEgsupV0JUmyN4+msTeUQb23Hted1oxXLavFmS21sFC2/mgWB6bDNMLKWN7qRb1Detwr4Sh9ag2RGpqk9EmdU26JQ1Ir+SWa/cHmGYyEAljcVItPXNyOtyyvxWWdTlzS68WyFidcVtGn5kfklDyScKUtk7yrhi/3JBJDWRtAJL2X7bVOdNY7cOOKRpzT7oDdbECYDeKPtgaxbXAECYMVly+oQZvbwnwr0Viwo6HWgbN6/Li8x4sGh5WxSkmRwqaVD4lHlUUVb0UuQrnhfzX5WtyZZMiXJnnVj5FGq+ZcjDHNn/ZXh45TB6pmY8GN58q4pz+ODcPTGMlnFemMZYsIZnKYjacwGI1j93geA+EM30WHes/kK6jW9kgNLe8Ez+VdUgHLMCU5k3de67AQ0qpc0p2q9yv/ympDNj7noT5SqFeU752ci1teCdRl9R8vtLhMYLWJLTNJ7B/PwO+04ZIldej0yXdYqbu0Ov9IbEqm+dDedXn/5ZnUlxKjFqd2Jf4EWi0n15LWuWfqywr9ig7EpTr4p6Tikntai1FFNUT1VIWjxaTVTvKPz9QfcSHgr9TH/JE2ar5bmQMmX5UfHU3h/22ewAPDcXhsVqxudNEVY6Js0u5pwdEHwxA/SnqGKV+tRXIVuA4dOp4TJ6WRUDKIgSCQSlMqBSEppJiVl1299MrFS/+SVyuPWBa4g0bC/lAYDpcfHzivBW9a7MHSOgvWkLDWW0zYuj+CMomxl42Hk4TsyYk0Nk+kkOO9RpcZ5Ico01g4FCngvsEodk5mkC2XSEitJLxm9EVLeHAogc2s5J6hv33hPFy871dDYMp4ejyF3/eHsXW6gHihAJvNRYOlBDMry1oXCSxJs4kkfChewt0k5k+NpLB9KoPxVA4+uwVui6SmDLaFeHIyiQcGScqTJdhtNuwJpvFgXwxbxtOYzhbYAJppRFiwcyaHB/rCKu59kSJq7TaGxXCo9BNrnHlEo2KEcvxidxgHw3FYbXZQDUingZ4aK05rdYAcl9Aq65F0EfezgQ7F4/CRtH/xkk68qsuGs0isz253wm61YPc0EEyH4TLbcVa7nXqx4rGBJDaPTcPt8uGCLhdWzTMSBCKlhB/PA4+PJLBnKoxejwvvX9eEGxd5cXabC0vZmExTrv5wCqPBFOpdLqxpcSmiLZCyNp4sYj0NkicYxjbmzYjSqZWyivZL2M57v++L4LGRJCK5LPxuN2zMt1A6gw4vDchoEY+Mx6nPNGrsRviZH0NR6pb59ORUGl67Hcl8GXcfCmPTWIr5wQJnMaNVhgxQhkzJiIPRPGZprGaZ5428P5Es4N4BlpexpJpvYbS4YKRSs0x/My3HWKaMoRjv03+9zYQah5lvEEsAy0mKtsfWqZwqb88wb7dRAXHeq6c/Mb4kY0Vzm1hO1jNNg7ES6ijzvlAO97A8bCEZGYwV4WOYPpuonGWU8Zy4TOjQcRKDL0miUMZTk3z3AjmY+A79+emd+Mu1Tbh0YR3O66rle2fD4UgQ47GcejfO6XTBZmVp5wsq7ZBm3MsTaZvKWgeNtE/8d4Ra8xZrVs0gp3upr+WFKbON09o1I8mviCP+K+2c3JN2T71hRDUuCZ6/ZbJcmZ/UXmPHqnY/rlneiNOarXCaxA8TZqJPulMS0K/ypyi21Ax8zLC1ziEJk2GrQ57xniLR9CmGhnQWiH+ZXKbcyA9/VTiadEXeM5OwSxzKCKIfqb9EA9ovH8gh+mHbpjooeEe6jDSIKwmPoUoaVTsvcfCflmD1qySXS5FR/jLOxycy+Pn2aYyysV7Q4sOlbU5xBTV4lG4ZnEqX+JhLpxgQcuePG2KqQ8crDSelkaAqCPVil1lRG7FxModf7JolqU1iJ8mUz2ZWRFurYF5aSAUmf1OsQx4eiJDgpxmLERd3+XBmk001BDbWQF0kgmd31+CGVS1Y2+FBLFfC1x8exl17pklQTay0XSTyZspvwHd2BPGNDePYQUNhaaMbp5EIbxxL4GubAvjpjkk8emgGjw8E8fBoDocDaTiYvnafHT97ZgL/vWE/wiam1eLANAn1U/0z8DgcJM1ekm4TnhlN4982T+J/tk5j46FJbBgM0VBJs+Iso0V6vyhDglbCf28N4Lubx7CTBstAKINfbZ3B7XumsHEojCdG47AbbJhKlPGVDaP47a5JbBwM4+FBIaMl9Na51bwLaciqGjoWUrnvmczil1unUCqZ8PY1TYikC5gNB1HrdOH0VpcyfrRmw4CRBEn4YAzhREoZLX+xqo5EmA1EuUjSCtS57dg1lsVAcIZE1ou17UwLdbJpgIbYcxgJAqn64yTXTwwnsHcmiianE5f31jDPLLDQmGkm4a6lDjcxfZFkkAaJGAnamN4SdbqNpP2rj8/iR1uZN/sn8Xg/82YsgzCNujafFQ1uE378zBS+9/AhTBstMFodCKTS2N4fwLaZBK5e1IxHaUB8Y+MoNvSFWD58WFjvwOPDSXzr8THcdjiKwbQRjxyK40dbxrCxbxaPDkdxgPmyrMGDFrcVUzSivs78//lTU3wWwunt9dgVyODfNw6rry9SHlL5HPbyWSiTw/ndPuybTeLT9wxi2+EwWkkgVjTR2CKZiNIY+f72MP7zqRncsXsKjx+eorFFQ3Aij3zOiE6yfp/dhDzz5XvbQ/jPJyexhQ3wgUieRt807tpBGQcj2EAjNMCo17a6lQFa1fvxS4QOHScvWI0jwffiiVHWEdMpmLNJvPusbty4wodljSTfrA8aXBZsZtsTSUbgJrm/crGfxr10EggZNmMslsft/VHczjrp8akUItkSmhwWtTiC6ssXUsrKKFEq44HRJH55KIgnx7Oq0wZlCx5g/fQo47eQMDe6rMoY+dmhGB6fzkJatwa2A1bWheFMHo/ScP/1UBqHwwV0ebTOs/5wDnuSBRo7vMd63sOKc3+4iJ8eYDvBNHmsZhyMZvHzfUHk2Cb11LKuokCFshE7Z3O4hcb/vcOst2YzinTL/CxZFEGMlZl4DncNx/DYeEZ9vHc6zPh9fwS3sQ3eHkjCYTGh1W1BOm/EfUMJ3MJnm8fTKBZL6PTYGYaYEFLXSweSETm2CQ+PpPGb/hh/45QzjTqnVQ3TlVZBjm2zWfzoUITPcvDaLOAlfn4ojHuGkkx3lnW2DX66D7BdeWg0i9+xDusPJlVm5swOzOTycJpNqs0TxQdSwB2HU7id7czGiZwWLtuxBuk8ka8NjFOHDh3PjZPSSBA7X3olZGjFz0lavvr4BO47PI5nxmfwFCvLPaxoa2gkLKizqpUdSnRb/ScE9MVB/NNAoSEwmTZg11QGqVwKQ7NFDLLitMjqOyRIZmuJ8TvR4begyW2Gw2rE+qEI+iMRxAo21XO+qNYOesE3Hh/HSCyMhjofXkcybGPN/8l7R/FEXz883gacv7gBTc21GA6nMDA6iMMRoLfBBVm5YiBlRKpoRaGYgZtku4dpvoAGwmlNLvSHcvjioxN4ZGCUlbYX3X4P3TgxG89i2/gEsgUT1ra5VYUpFfQOEuYACeb4TArOcglelwtxgxXBdBzbJvN4fCSKOCvgRq8HOd6PFlMYnkyig+lY3WxX+XI8kNojljXgd/vCeHwoiBqS7X+6oB1pkxFbx+MksWWsaHFRHzbVU6WMhGQR9w/GEU5m4LJa8ZaVDagTQ0R6f9gAixFx7+EAxiNR9Ph8uGKhF00eK42kBDaNT8P1vEYCCUDFSGig3i7r9aDNa0SRbqWB9TC/HjoYxWg2izSb6dUkBYtpVO2ayeLD64eYNwPMaxc6ajyoY1yTqRT2sfylizasanZjOp3HQMbAazNyhRzcNhfaaAgsrXPgShqPu9nCbWZjWCwWcf2SBhoJNuznvUcGE5jNpTE4HUEylUM7jU2jyY5oqYThqSnU2WgAtnkRY2N7FxvH/kCMeWHG1UtrUcMGsD+eRzQD5i0bdjaM7fVOnNnqxQVtLkzQALyfhEC+JZzT6cNqGmZlEoKf7uI7RINlNh6hgeOhAeqF1WzHUGQWO2kMgOVZjFo7y/bDAwnsmEwglGXeTyfho5Fe66VBwvIQyyUxOJ7ARd216KyxMmzJSx06Tj2IkZCSr41jrCOmEjDyHb5qSTOW00CQr78WE9sVqb9I/keCUbTb3XjVEp/6Kljgu3l/fwpffmwcP9s5iycPDeGZgQDrzxxGaVj3+q2od7K2ZBwB1nM/3jqLr24ax8MHJvF0/xTrrwKeZD3z230hPLxvCgtqXGwvXNgzGccX7jmE9QNBEl0HVrV64LQY1VfJ7zw9g18804fhmRzrQr/6+vfrnQF8/eHd2EvjXToJ2tkWPTYQxc337FVfUWkr4M69Eazfshdt9lpcvMjHup5GxLYgvvb4JO7YM44tA1N4cjCCLXQfLxqYfoea87aNbcvnN47hrgNR7Ivm8CDJ+i8pw8aBcTw2HMfIlHzNduG/t03he5tG8OiBUWxi+7GJdS5MNqxkvWyljNJ5NBjO4yuPTeG7T04wnAls7Z/GI8Nsx1n3uC1Wyu2AlelcfyCCz927DVsnDTTASrh1R4DHMJ4amsETNJAiDGdpgxNByvnBh4awa3AasMqqFkZMBcLYvH8Cy5o8agjqRsr4lUcm8N87x7GZefP0cBCbaMxIB1DWYsFS1tXaNw8dOnQ8F07K720yDr5AcvIYSdKPt0xiKBpG2eYEnH7kSJSenp7Bv2+aQF+gAJPMCn3JoBkIAllF6KYlXrx2eS0a2ED0B6cpywQ+fu8Q3nf3MH65I4aDwSzihaIiS36bAVewErZa3UgnUphhhZYuGHAwVMBsNA8rq6R1LR5019hIzFI4zPtWixuvWerH/7ukFf9xWRM+eHYjK/sOtDosSKQzeP2qWnz5mgVY6rbATCJ/ORuSb1yzEK9b6aeEZdzKSnXLVAxOZz3+4fwm/OSNvfjBq3vxhtWtcLJRuIcV/NNjWUXulZZYmZpIWt9yVgt+9pYV+O6rF+CybjfMlCOaDau5Ff/xuiX4yRt68f6zm2EjMSwUc5hggyFDWU4IGlSz2TweJClOGQpY0FyDOrcJr+/xoNPhRCQWw4HpvOq5q45HnY8yK/2BYB77A1nsm81h+3gaP90axA6mzWCxo9VnRovM3qWe5TO8Nu71D8F89zQlxb/8Z4MvvX2pXFkNT0rnS/jt7lnsmZ6G19uMv1rXhB+9YSH+6/U9eM1pzSiyQXp0KIodE2m8fkUtfnDTApzmMMOSiuKcBgf+/YoufO3yLrUaU05WOGLY2mf9StSUXc3/yOdwflcTfvi6xfjpGxfj05e1opsNLkxWbJ8tY4zCmJhrauCRWE08pIxd2+PCly5txyK/Gchn6MeCmy9oxUfXNaoetnLZrIYZiJ5UOvkzGsvjZ88EUMincEZ7I/716i6Wkx78+03dOKuzGfFyBnftiVD/WTXhu0z/kkOOkgl/tbaN5WQpy8NC/P3aOjSa3ciXC9g9naXOSpXhY3pDq+MUh7yjfFks6n3la0jjQFY+GopkMRzLsb6QV1P2PZFhLhY8M1XAV5+YZvs0pYaHXtPdjvNaG5HLF0n8x/HNZ6aRZH0iYTxEMvzjbbOYiifQ7a/DVZ2d6GSbtWM0jEAihiLrThlOKB1cMqzHULSyASyoLxHq3aJsBZ7L6mUo5vm8xNt0z0d5GVwv4HuvJjmJG7abRho5eV5u6p/ASCgBt6MBDntJLYbwexoN33pyEn3hCJbX1uOarm7WJ7XoDyfw30/TcDgYVEFmGFasaEQ+n2R9HMfkTAznNbhoRDRTPzRGpgP45IN9eLA/iOU+Cy5sbUEt25yJcAh37pzAMNs8qcHGEiV8+4kZ/GzbgJrvcU5DE+NsRYfDjaeGx2n8TGDbZBpFpqVAuaXTL1pI4/HBEAy5LC5ra8SCugbKk8VdQxHcORBT+XBxmwvL6puY1iLTXESP34vrFjSi12tnnVdkfEE80DcCn8OGG1d14PrTutHudmDn4BD+a8MwDbUk26KK/nTo0HFCCB846WBhxRhMl7Celv9oLgfQQBDSpHaNESJD4ng4EMWm0ZjqDZK9DFh9q38vFYSUdXjN+MC6FnyYROyaJd2oc7kxGIriwb4JfP2xMXzqgRE80B9Xw3lkGcpLuutRY3MgVSKRIuEdTxWxYSSB6WyaBoEDSxttaHIa4WAjZDOUUCrlWYmnSeSjGGGDdP2iGnzlxoX4HA0DWRHIx4apxUG3TJ00Yi6TAc1OkxpulSKh7ZtIIJ2LqlVvFvJIkYTLMnAr66zwW01IZgIYo7GiJvPKeHvKVe9x45w2NxssM3pqzDi90QW76I8V8uWdNTi3zcr7Jpzb4YJPGi9WpEkZF88GRkiv6GU+pJ5l3Y6dJI7jTIvHYMdlnV4aVkbKZUVbvQUZY5kNaowNJSv0SsV8pH42mpBgA/H5hwfxwTuG8Pd3DuLDdwzgtl1TyLOxWFxfiwsX18Jtlw/wzJcX+ZFYKyVCBiiAEGq5xzTJZZCF6dB4AiaS+FaPE0vqnGyIZU5AEeta3dS7BXE27OPhlOp1bydJl1E3Ui4d5jLzyoQGp1l9shc9aZMY56D20+A/ayGP67r9WNvqQIvbiEXMA6+bJgF1EcjlkSxoaRQDQ+lbuAJ/HWwcG2gM2FnW5NpMvTbYZWK3DD+QVEkc4ljeBoP6arJzKo2pZAZeowPXLKjBBe1OtNGAO7PFjjfRAK4xOUlW0jgwk6ABoOWLxOmxsuHv8mKB34Iurw1nt3pQw/iEvswms2rZSDrXoeOUhbyNWm1QRtFswd6pFDYcjOHRAxHcQcP5J1uCGAtE4LP4cUa3Fx6HfE0r4q6+KA7NzKLWXYf3nN+CL9/Uiy/csAA3rGpQoT09FFdfeUMkxff0R1j/J1HjqsH7z23Gl17djc/fuADXL6mHszLWX3UCSJ3EfzI0x2SUWQxl1dNdrW9lmKvUD2oOhPIjdRjrLx7q3ddu8ZqHqtcMWFjjxVvObMEHruhhHerHoXAat9AICLDNWNxah0+/qg1foTyfeFUXTm9vQTAexPoDYdWOyFBWkYONFLo8VvzLdUvwpdcuwt+zLeyt9bFuKWImmcIb1jTj3169BDdf24Pz2GaIn6kscDCUAlseNUzxjoMhmMx2XL6oHjdf3Ykv3dCDD1zUgoaaRuwLJLBhMIYEKxRJtaSHNSjWsf27+fpefP01vfjrsxvUkNV4IYVDs3HWecCnL2rD686oh4nqkePqJbX4yvULcSaNhwOBNPYFsyjQGLu4y48vXdaGL17cgg9S/1cvW0C9WDCbyFI6Ub8oTIcOHSfCS8eqX1KUECUxlc+ceRJc7Q4rTekpUa82kCVh3h1MkFDJJGepYl9aSOUhypEJvX++qhafuaQZn7m0Fe87fxFWtjUikE9j41gI3980ge0TSSVVu8esVsrJUdpd00mMRfM4MBFDIRdDV60TS5scsDHQ1c1WXCNfHYw2bOibwqfXD+FjDwzjR8+EtJ5/1nq1Dot0PKNQNGjkkgnUOpG09IdJaONssMps3CbTZXxv6yQ+9fAoPvvoGH65J4BQrqCIZDBZUGNgVSPEa5tUwvNyXSa7iVEmOrSxUmWzICwRdgsbirKQVDFm+FQMtEqDNR/SsOWLZdx1IMQ4YzAIcbYZMB4vqD0mWvxeGkgu9E3HMTCbUY2eMjaUxrTwJOzx2RAGJgPonwphMJaAlUbBDSt6aKC14IoeF3X10uaw6KJc+QpkoELYJmI2VUKiQH1b7WzoSvjZzoDS6acfGcWvd4UQoU7FfYSNf47qkLypNuJCyHOSN3It+SX6OgGkHLuqyZH4mbaSfOph455n2SmoFY7mpXdeWEUVtuSmFhfbcJ5J+dA0WoV8schTnj4aiVmwAWY5aXXblKEhk+3NfN5LA8DFeHPlAoYSGeVeTUdmHJKvZtNcvFJmZH6zQOSTMqnhpc0XHTpebsi7mne48T87ZvBPt/fjn+7sw2ceGMLDQwHYbR68ZoUff7a8Bl6rCdOpAh4diiHL96fR51DDX6JZ7ctfR60DFqsLgUwZWyaTasnqkdmUCn9Fi03Ni2r2mrGi3oxLmh3wli30JQaC+s5LyFstY+X5Jj/PazX3Zsr7L/54h5WBdlaGo1DClQtq8b419Xjn6nqc0co6OJjH3pkkzFY3eim3321FMJNFk9OEBWq+lgXTUW3Ommr/pAEi2vxOnNvuQJPHiNWNDizy2mHJpdHucODGhT50k3Qvrrei068qMaRo/ERy2pDPvukcUpmQ0uPpzR41lCleYN1TY0c3jY9sLoEJGi8Z1sXVycxOoxVntXqwqM6KBlaUa+lvoQzLzGdgpAEi1VKtzQS3VfQkjVkZTrZX9S6zWi5ahv7azGJglWisZXCfGHWMY02HB5++shP/cmUPLmn3qHq0Wn/r0KHj+JhHF08msNo0aodAKj1lHxBCZ1XvCR+5zGY1wUuDVJsv1QtfJmHMY/dMGk9PsBIj4ZWKUDbuet/Z9fh/rGT+YnWnkuXwbBqPjyYQyxbgtxrwxoVekP5jMprFw4NR9NNQkI3AVtXbcBoPqbj8NuD9F7bg5quXYE13HZJ8vm90Bj/fxsZp/QC+9uS0WqJT5NC+KGvp0sZQalkmhE5WD5LepdlsFjtDKWyfkSOJ/kQWDrcDfm8TzBbp8mUgFcLP+pl+VRCERiwZlHZ1pMKUylN+hSrSPUnmkR2lK9AWRZXhP/JZPo/943E11CXBhu+XuwL4zP0j+OJDE9g1lgKpNSLFNH4/EEaIDaeQYSPlUXlZzMPO689evQL/+frT8P3XrcL3XrMM37mxA5+6qB7X9rrgU5aLEGeRSPyyWVSHuvUslMWgUP/5h2lW6TLISj9mRZ6lAZRP36lUDqZCFi0uK1rsJhTZsBapDNFppFDALup0RyCJHbNJHIhk4HW74afRIx81JGxVJpXBI/Hwzjz9VFEttwK1kRwbULlXVKtrEOKHMs63gSQ8RRQISaeGigNxfuScecpTuTKS6CtfciG6UeXEQINVYuJ9+ZJk0HatVsvi0p1Zeib5T/wUaKVIHsvSw/IFRNGNUqV6oM7UtUqfio0/Wvg6dJzqkB55GcKYohUcZZsS5Hsxw+JdKGZxfqcLb1vbiN5arXe/QOKbiGdZnViVwfAfj03g4/dP4lP3D+HWnTNIsp6LFxPYn2ANWWAgGdmB3YwltS445QugIvJFWOQt5nsv/9RrRci7J3FIz/h8aG9dtdKWelzVPryjOVTNpNQt6p0UtwYVhqx45reWWL9qQwPzlMWQTfI9Nqp6+V8eGMY/3zeiNoN8bDyKPN3M5AyYSuYZB+OrVC4SvOrlJyQGG+WUnfCtrFMdFWHlfrUjR9ZRkvl0EcYX5FFmumUT0jsPBHHzAyP4GNuGbzw2jkMR1jX8F2ObQDuLVYrURTJxWurKgqrnBWKsWGnASJqlXtPqNqnmmNKKmxLTLxC5VtY7cXlPLdsNH7YPj+NTdx/GR9cP4puPj+ORgThcNjMNHloTOnToeF5ob9bJBlZQdSRtl7U44SbpFNIjva/V8eiGUhF2gwUXtPvUBFRVi0mFVqnI/lioCluqOIYnkze//MgEPnhbH36xfVJFIYvVuSwlnNNkw1tXNcFDYpUhhR6K5RDN5NWn4EXNdrj9dgQLOfx0dwgHYjEY3HVY0CQbrmnqLpAo1juA1y334RvXduM3b16BL19/GrraWxE05HDfvhA2DMVJ7rSeFVX/sWKXxqRsFHJZQo1VeoFZceazOKvZjW9ftwy3/dky/PbNy/CbNy3FLa9biN+8ZTn+fHUNK3NW+NSZVK8GRSa1ilWgGhoGLJWzVuFqz8StfIzXruaMtKOIMNMrw05+1xfDCNMvQ4fymSj2jozi4cNDeKxvAAPTE0xvAQXm3eb+CMi7VZgSnoQv6bIxiy9Y6MalSzy4gobYVYs8uLjDhU631thVZRJUZdcajLn7ApFMk06anqo7jQSXjRSUv7LWv4wXlhU5hjK85sPT/WasqrXDYzfDZjLClEvjdK8d37h6EW570yr89o3L8Ls39OKWNyzGT3j+plX1bBwZuwQs/yVvKg1ktdESPc1XlazdLUsligcpw9Lzr4H3eSpLMGo9gZpbDfMCqEClWq0cIkajtomQpIFnivxLUyqQ9Itt1e42wWa00hYrIk2CI/kgQxrkC4Tsjp3jiayuUuswK0NFqIdAZK/mPlPCcwlX3hAJWSvHOnScytDqOILvrz0Zw4fWteL3f7kE/379ArSRSErnwkw0i2SW5J1uKrWl/ChEs1kcmolhz0QQO8cjCEeTaLI60GC3w2rmm8oXSl5reX8cfOcs1Y6BeVB1MgOce6PEA69UHSD1QaUWrpBgeROrFcuze8ElLOmE0J5LuLKoh7y1ApklIM+kDphIZHBwPIy9UzHsnYigxLQ0OWtQb5VhjJXwtR8Vjkq7dKCwbZZrkUvuaiJoslXUouSVelBMhXKpgJLRjJyhiP5AFLsnwtg3xoO/tnIWHe5a+NmmqrpHDglA4lUBqxgq97W0arJUzytao75kWVOBeJPNMf/unCb863WLsGZBK2xmC8YmQ/jN9oP45Pr9+MqjkxhOSDtY8aBDh44TovKWnVyQFVlkPP6ren1Y1eqApUjiXiKzk4lbJN8uWHHTMj/WttuFl5LUv7QvulRYNXYrgvEc+kJT+NXhCH5PIjyZKpFYlVnBlPD0VEqNtTcbzKiRperUBOoymlwmnNfhI3ErIZFLoEzCudjnwIU9XqVtGbrzm+0B/N0v9uNz9w5hOJDC0jozblxewzTVwG3xIsM0xtKVoTBSFQqjY3iyzOoM445mS/A6TWiqJ72TVWpmU4hHkqi3ldDuMrKiByYDYUxH42hwyYwGyWZpsKSqlapRVY/PxhHiejSOVN7zID3Q8i/KBvSp/hjyuTj8Tg+uXdqCv7lgKf72wuX4mwtX4K/PX4wLOxphZxMZyebVPJN0gYSduqs2QtL0ytcNiaNQLKt9JuRXdHU8VP09H7SecW3L/iB1NhzPoz+cx6/3h/DD7bOIZ8Lw+WuxrteLGuqzkYS6uZYWi5GNSjyNyWAKdVbRqQl1DgsCkRimw3G1XChtCS2OE+jyeF8VBBrZPhrqTrWFfSFQ6TIgTKXJfg6zTJv0yWnSaIKV6EY29zu92YE6NsKJUhYPjcoKV1mEskB/rIhf97GMFFJw26xY3uiFw8ycKMsXFzbzDE6+uujQ8acMeffUW8MC3+M1Y2mDDZf0uPGa5XW8X0LfTALrD0UQyMgLSjOf75TBaVHkd0GdB994/Urc/o7TcNs7VuO3b12FX755KW7585V4/+l1dJ1HiXWxdCQN832TOT8agdc6C46FPJNDqr28quQ0NwUS4Jz44a98bVAvZwUqvOdpxat1gs1CI4WE3VEy4g3La/GLt52OW99+Gn7L45a3rMDPKPv3XrcQZ7S4mXL+k68J8yBGz/x6TXWEHBs5H6u6g5LKvDjZU0VWjvLBhg9d3IvfMs7b3k5dvW01bvmL5fjJm5fhny7rZN1rhuwa/4egaiRJqyZfqwVFxh9NycIKOZxDfvCta3rx67csxZdvXIl1SxajZLHhF/vGcOfBsJYeGm86dOg4MU7KN0Q+uprKRaxusuN9F7TjDcsacE6dF6trPLioqQbvOqsRf3tOE2odRpRoQLxUZEbrWdL+Lq534DIaIn5fiyLbX9owhk88NIF/2RTCRx6exHeeHGflX0CzQyZ1uuCnUSFrRNfbDTiP1x6zoxIqsKzWjmU1ZuHFUENh6ObJiRh+tmsQ33h6Gr/eG8Od+6N4ajSBbC6GZqdLrekv6ZKVclxm2fqljCemU7h54wR+sy+OAg2Hq5bUYEldHWYTEXzlsTF8/OEJ/OuTAXzsoUl8ev0ovrBhBHtCaSWD1KfS6EmflWp/KhWy6hlWD59dQZdL1K3cl14s9byqZzarDEOGLj0xllI7ksoqE+vq7fiHs5rwgbPq8D45zq7neT3euMynVplIl3P4/d4ZtY2+gQ2VfHqXcEuV8U6afHJejWcOIrJAico/6t+znVUgzT5zUcIn4R9OFfGNx6fwoXtH8I93D+ObGydpnAXQ4qzB357ZiitpJIgcbhqmNy2rRZO/DoFEEN9l3nySOv3SUwF8iL+fumcC33xiCntn0qohP9Iiyhh9GjUifxVyVmL80vNWlVPSpuaX0P3c1wLxJ6A+6LCgHGvPlFpE76KjiisLrZMaF8uGDIlIZPDtrUF8f/sMYpkijVvSkjKNaXEv/ogFfhuuWNpIg8GKhwdC+NTGafzr5gA+8sgEHjoUVgbBuoU+9Nax/MpcCCZMJr+rqKtap0xaGRGSIrLo0PEnAPVusZRLeed5kXWYlHMPye21S2vR6alBspTCQ/1R7Z3nM7/dhDPbvKrjJhXNYiIUh8FsYr1PEs8w9s+EEYlKh40JLobT3iC7AAO7xsPYNJ2jUV9SHRUHw1lk+SYpki1Gv7xeDKdkkdWMSmrPk8ORgtqgcl+A8cRp2UtvOd0eWZVnXrsnbZZ2xd/Kc0mLhC/PRLY2rw3d9TXI5eKs/9IIpfJw243wWg1IpovYNx6FLO/qtUkngbzl1fDn12wCLXypr9SZ1BsKFbkI8e9iWjrrXLCwLcwU0tgzk0SqUITbYYaNde1sIo190zFxzXqNNbYogZB6rxrzfEhsR+okQtwoo4oGWyCZVSsqxXJlNcz3I3cN4lPrh1UH2mK2S9cs9uKyXh+cNjeyhRQmZLdUCasSpw4dOo6Pk9SMFkokYx7LuKTVgU9e0orPXNGOT17ahn95VQfec1YDFvpIlPiCaxUHk1GtOF8UJAwtPKk437SqDu8l0T2toZaVahgP7B3Bbdv68diePkxHAlhc68fbaLBc2CUTazUyKH1EC+vsWCDrMOeybDx8uHRRndogTCpOGV95zeJa/O1l3WhqqsczgwF8/f4BfHl9PzYdHkOz24O3nF6H8zq9NJRKqgd73YJatbxcOBrAEwcGsWkwgizr5XPaXXgn5VvdXM9KL4J7dw/gN08N4pEDo8iWzVjb7lOb/0gVby5kYcukUcjk2BBItmtpLcqEsXQCZh5GNVlB06M0gtZMEiYehZw0W4L5Oi6rVY82Hw4hHJ6Ek6R/sd+KJbUWykoiy0bTz8ZG9j5Y0eTAUr9DfdKfGIti32RSEVF7LgdrKg4HZWJNz/zUmjQ5pAwcD7LykD2dUumQicLPdkW/QsBF14U8rNk08skA9o2O4anDw3h6dBJpEuErutvwjxe14x2r6yErioqhIpN5L+tx4x/Ob8MZrTQOKe8De4fxqycHsHH3YSRokJ7W6lW7DgtKJOSmdIZHHCVZhYthqEaLpSBP3RhzaeowxfvSiJZJQvIoZ7NwJOPUdaVhlUIjcWcKsGQSyKVlsj71z/s2ym+nf3suD3Nl6cM6G3DtQg/16oYxHcOevgFsPhCBqNBMQ8VM96ZsCoai1rcmQ2//9swm3LS8GTZKtqN/FLc8M4QnWY5s1PnVSxvw12vq0eoSA8aAREE2YYhTlpya4CxQOcL4LZksw0+yzFTLgw4dpx5kWJ5AyrVqP/iuyRBWdVeqHr5nS1kpvHmlfA0wYCCcxN0HogjTEK9zmPBnS31Y4q3FTDyAf398Ep/dOIVvPjmDf354HJ+/fxTf2ThKA152q7fgym6+qzYPxuJJfHbDGP7t8Vl8gQb6z/cEEZGl0VRPturSgMfJ+rLGrjpPZOPFrzwxgy8+Po1vbJ7AQCimFqmQV1LkFLkNMlNA5KZ7VefJfalDVV1a6YjgIbaEdPjIHhA3LKmFx+TGM2NhfOLBCfzbpml8hcfH7x/DFx4cxq93TCkjxGgwsz6gbAxL6YfhSOeGtMyKxFNH0kGnPeMN6lRMnv/f3p08x3HeZxz/YZkBBhisxC4uIEyKmyjKFKWYkitSSUrsxCVXqWT7klvKvviQnOJDKgdXriknVfkPcskph+SQVA6KUokjO1aiciRboiiKJMQFJAiBWEgsxDLw87w9TaAJkC6npBRU+X7IATC9vO/bb3e//f56ero9vS9sdTldohcOdsSZsb5YXp2Pfzw/HT9881r85U9vxp+/dTN+8E9X46/+7Xq88ckdBQ+eP2v33C1ZV0CUrQ+tAeXlwfm4LOVIl+92ltXAra/Gv19eiB++cTX++/qC6rE1Jvywzo+uxI9+ciP+9ue34+8/mI+3rs7HstrMoUpP+rTEJ5FcfgAPt0ufuFz/6cZKf7U1NcRwZzkOdJfSU3lb0ze1zFNmU3/2NtTBjjg50BbHhjri5GBPPKVg4Wh/NV4c649vHB2Ob+sg8ruHqtFdUSlVJMcpbmDXG0pxbvJeXLgxFQf3VOOP1ems+vsIavUa1EFtbdqII4NtcbSvI070VWO/OtDO42uH++Nbp/bE15Sml9NL6U8T9ve0xJd629It7Z7eNxgvHeqOo3tK6YyPb1HpTviJwW6Vrz+eGu6IlxWUvHZqIF4/1hv71fnz4aS71BynhhXQjFX1u6wDmK9o912MmtItOF8cPRBndUAb7HS+PshEjHR1xVcOjWh4NQ70taQnTd9fN7KqjmOb1tAzIwPxyuOD8ZzSHqk6Gkr/E5+d7mhuiIPVshrm/nj+UE/s7y3HXr3f19kSZ7U8vzPWFSeHKuk2sp7TB4fims3+8gHbtx49MTQYLxzKHhbmW8JulfJNnQAtc0spnlbZXtL6enlsUPUyoNdgfP1YT3z7RE98dV813cUplbd+sChpNR3vb1N9tul3Zzw50B1Pqk6/fmggXnuqP1491hn7OnRw1vQ+sPvJ36dHh+KsluGwgsNWnxFTOr6Lh+d98eBAnN7blh4w5y7JaG97/PaBkXh6f3sMKJ10UNf27FunPrNvrw6qym+gRet2IwZ0AHxWAeArChLPjLRFr9a3+xV7u1rioNI52tOpOt0TL31pTzwxWE5PVz7Y0xXPH+6O00p/qFpK3+XZU9mIY4PtWs9tcaqvKz1I6OWxkXjtZF+8fqI3nlBg57BnXZ2C1lJJ21Cf6qwjvjzUGt1lbycu41p6ivPZ0eF49oC2WZWh2V801L/N9QTsfj5X7+PKnKLxNy/OxsXrt6K8tBC/d3Q0jgy3KpivRYvamfZKS7w9vhRTt6/H/N3GOKI2+rCi9KG2cvS1l9NZ/svT0zE+eTvev3o7xmdmo1Jpi1eO98WZfZV0NyQ/Vdh3+vn4xp2Ymp+Jj69Nxe1F7WcdrTGvoNv7znN7u9MtiXtafeefBqV1NxbuzcaVT2fjwq35qFbb0s0b5qdvxnBjJV59oj8q5Yb42eX5+PnlT9KlPL9/oi/dXenDGwvx5i8uR5OCgudG++PkXu2nOt6sb5SiTcs00qUgpLE5Pp5ej4npa3F+Yi4+nLgdtxYX4jEdQ76psh/vr8Tl2fV449xULNy5rTZlT3zneG/45gezy2vxnxdm4uK1a2qPqvGNU/3pOwAOHN66OKPyTKiNatXyV+O02vSBdh2jdAycu9cY41N34ur0rfRdiAs3prWstThzoEdtck8c6CrFL67ciX/94GKUmytp/qdGKlFpborJu0vxLx/MxuTUhNqqPfHika5oVrvt48rEzHJcujkbdxbuxJXLl+LUY0Naj71RVb1/PFOLC9cn4u0Ln8Z/6HVpalrrrSu+/8xQurzX7eXWowyA7RomJyez3tEu5e6euyHZOR9zcd01cTP/+e3i2XkNd/p9l6XsHkr31CleVuNbVeeoKXVo1bFKZyPcMfSFPP5yWFO8c2M+/uyN63H+1ly8/uWR+IuX96rhVEk9rcb7LIy/SNvcWNIctVhazc76tJbrZ6hra2rUvbzZHTX8RVXft3p5XfmooW5R/u58N/h0jTrufqqlrdRW03WvFZXN3xfwmR5lpkryvbf9hbb6qlb+q1oO154fHOR/mQ11/NfD36doUGe3UcFOLi9TPq3rJ9VNg8rsj8HFHe01TWf5dM7RX9htUjnz/L2s/iRh6/WgG+mslIa7nsT1WeQzWRvpOvs8P59x83dVai6DOHVvGf7ZpGnyetmJz7T5cQQqhcqXrb+cy9nse4TL6vpqrCi99qZsG0hn0PyJgf720zka8i8niKvUIY7PgWXD6+NSfavuVJz8Nn9eL/5Ep9ag7UDrt7Gen+V17TLk1wB7Wb2tZR12v7QN6P2K6q2sjr0/8k/lTt19J5+dYUzfMVAeqTvfVEqXMy2urajDoMBAdbThu4ioY+IbELoT4Dse3d9OlLYvKXPdl7z+9Mp5Wb01b19PwO7mM9PeMxe0/70zuRTXZ5aitNoYp/e1x2i/L7tz++H2PuLdG+qETq+qyVGAv0eBvIJ1X+rnpvXSzEqcm1yIi7fVRqjZ299TiiMDrXFMQXg6+VBbSfvjpDrIfqLxR1P3Utqn93bEuVuL8dc/vhLzjavxg7Nj8b0zPelyx6nlWrw3sRy/vLkYi6srSrMtjqqzvbi0Epc/XY3+UmM8O1aJspojl+3ydES1qRa/pcC9v7M5PtE0715d0L7aGI8PleNIn/Z/7de1+n0AG5vW062z35+qxfit5bg6v6zjRTnGestxeLglHvdlsWo3Ju7W4r8mFhWsRIyow/3CmOpFwYYfqvnhxFpcm8tu4vH8WGt0tTar/diI927Ox/kptUHNSmegFMd71dqp/fKx0p+svKu6/mh6Me4uR7TrWHe4ryVODrTESFVtlsp47sZS/M+NxWgqZd8NOdLbGqXmWtxaWot3rt9ToLYRBzo34un9lXT5pI8f44rAfqLlHf90LV2W+8rhSpwcbo9FHRvPTy1qGVfj/JyOEVrXj3VFHNX6eVJBUEtJJa5ttt0Adrbrg4QHC5d1U9wVy0KHzW7L58G5++VOpH6nzqnydWfWo9M7czk24tLcSvzd+zPxs+t34u0r07G3vTN+9OpofHV/e9TWdBSpd/icnj+UTX9pWNadVEdNBxAvlafKlzvlXD+oqWeoH+74eZgHZJ32rFNXL4k6cr4+3nmlj5vlfqevzocMy3Lewvmn8mTTu443A4iHydbF1uDBivNtLpHHFlL0gtyvl99UvlzF+T00ra+CLdMoz3zZffePR+buadOkrvPN5dieepZrplgn5rFeu9kQ/8zfudvvObMtOvtLw5RXWrfZpMpbwzQ6L63zS3lqYNoe0lCHPHkQ4sO2tqpUt5o2TaC/lZ63B79PQZn+NW1knyp50ge3Ga8v/5m2cI3a3EItmwb4okmXyeh3dttN74PaB9Q5zvYkj8l+uz11E+V32Q0yPI32TO0s2biNuLtSS98Ra1PntkUdVV+m5+C6ocF30PGeo39K8u5qtl9X1an+h/dm4k//eTxm1cH/k+dH47une9XJdbnU1jc1xoLS9EkAP9ek1NyYylbzQy+Vn0+wWP4wNbc26cNTD0vDs/3Tlw96D3fpvbQuvcvv8xe+y5ufb+NLRn0Cq6Lgw4eX2povKaovm5LxrapdAW4n0uKbHyqTDU4nlCzVpz/h17jUQuh9Xsfm8ws+yXBP+d1Tvr5dalvZJ8yUti+l1Hi3QT65Y76TUlb6VJHZMjkNt4M+Q+ETWCqgHxLqL3m7vspaMFWtZ3aO6UvmTmfOzxNyvWsZtYrS8dFLWTxGAdjJrt9L3MhsfWVSM73l/efFObiK3MCqMVZ7lXWsNmVTZK3n1dmV+Jsfj8dPL4xHe0tbvHS8M04MtKpVciOYN9KWdSDTMig9p+l+vVPLl8m/s7/VWHpev1LDmw1NbWYanqeazeGs0kjxuAcDBLuft/4uvDRftkFkQzzNr1ecLk+7aLMM21Ksl/V/Jy95UTYkH7fDNPV68+uBMdt52rSO/GZzObanvjWl7XXnsZs1nqXjLSmfKwsYsnee9/66TRln24DH5yn4Z7ZN5u/82vLJiTsU9+vWaflVT67m5cnGOa9UD/VJ83rJpVJ5vjQsr6/sb+CLKu0b3ie8Q6jP6U8ys227viPUf6dPDd2o6uVr4tO+qeGezzeqcAfXnwB0q3farP05DfOe6X0q7Y/eTzW7fnS0NOu44FQdRDhgcNbqJDtI8Ru9PK3TqGjWDj9JPb3XcO2vDf74wuWo//Ms7qQ3arzLlJc8XWuv1+aRKms3nFba32uNKU0vT5fyqLi/nZbH+3697UkFUdnUIU8ddaeh4enldktl8c0qcqk+HVCo7KmcSiAvj3n5HTz5u3nO0535NQUkXlan7vSzsrm+NcRlUAJZfk5Ay+K000BHAp5P82taf5esu7VRQVp9ujRHtn5co86vu1VrQ0FMWkaNdV4Afj32lM+ADwNu4obay/GtoyPxB08ciT86Oxh/eLo/uspqUlMrmDfYAIBdwx1cvx4mH7/TNBrmQMKvR6Yh7rSqj5o0rNWiaXEuGpbmYqV+pnsrT7YtzR3KkDrzD+a7w3Q70jQpCHog7/selc7Dxj1qHnFeeZ73g46t0z9s/m3DN+d1HTxsHWyOq9cVgN/Irr/c6IsjCwYWV7NgwB9rlhoVPPjj0w2fffJZlx0aPwDA/wvuj/to8NHEYrx14W4s6P2pA9X4ymPt0Zwe+MgxAsDuQZDwWfPpChp6AMBD+IYR2VOcfcjYiOymB5uX7wDAbsDlRp81AgQAwCP40iNfk795XT6XowLYfQgSAAAAABQQJAAA8H/OV/pufQHA7kKQAAAAAKCAIAEAAABAAUECAAAAgAKCBAAAAAAFBAkAAAAACggSAAAAABQQJAAAAAAoIEgAAAAAUECQAAAAAKCAIAEAAABAAUECAAAAgAKCBAAAAAAFBAkAAAAACggSAAAAABQQJAAAAAAoIEgAAAAAUECQAAAAAKCAIAEAAABAAUECAAAAgAKCBAAAAAAFBAkAAAAACggSAAAAABQQJAAAAAAoIEgAAAAAUECQAAAAAKCAIAEAAABAAUECAAAAgAKCBAAAAAAFBAkAAAAACggSAAAAABQQJAAAAAAoIEgAAAAAUECQAAAAAKCAIAEAAABAAUECAAAAgAKCBAAAAAAFBAkAAAAACggSAAAAABQQJAAAAAAoIEgAAAAAUECQAAAAAKCAIAEAAABAAUECAAAAgAKCBAAAAAAFBAkAAAAACggSAAAAABQQJAAAAAAoIEgAAAAAUECQAAAAAKCAIAEAAABAAUECAAAAgAKCBAAAAAAFBAkAAAAACggSAAAAABQQJAAAAAAoIEgAAAAAsEXErwCXrjL1N56SXwAAAABJRU5ErkJggg==;" vertex="1" parent="1">
          <mxGeometry x="660" width="387" height="136.47" as="geometry" />
        </mxCell>
        <mxCell id="EBVaZ5hd_3GFT1o1tJoB-2" value="&lt;ul&gt;&lt;li&gt;Functional Requirements&lt;/li&gt;&lt;ul&gt;&lt;li&gt;xxx&lt;/li&gt;&lt;li&gt;xxx&lt;/li&gt;&lt;li&gt;xxx&lt;/li&gt;&lt;/ul&gt;&lt;/ul&gt;&lt;div&gt;&lt;br&gt;&lt;/div&gt;&lt;ul&gt;&lt;li&gt;Non-Functional Requirements&lt;/li&gt;&lt;ul&gt;&lt;li&gt;xxx&lt;/li&gt;&lt;li&gt;xxx&lt;/li&gt;&lt;li&gt;xxx&lt;/li&gt;&lt;/ul&gt;&lt;/ul&gt;&lt;div&gt;&lt;br&gt;&lt;/div&gt;&lt;br&gt;&lt;ul&gt;&lt;li&gt;System API Definition&lt;/li&gt;&lt;ul&gt;&lt;li&gt;xxx&lt;/li&gt;&lt;li&gt;xxx&lt;/li&gt;&lt;li&gt;xxx&lt;/li&gt;&lt;/ul&gt;&lt;/ul&gt;&lt;div&gt;&lt;br&gt;&lt;/div&gt;&lt;div&gt;&lt;ul&gt;&lt;li&gt;Software Architecture Diagram - Functional Requirements&lt;/li&gt;&lt;ul&gt;&lt;li&gt;xxx&lt;/li&gt;&lt;li&gt;xxx&lt;/li&gt;&lt;li&gt;xxx&lt;/li&gt;&lt;li&gt;&lt;br&gt;&lt;/li&gt;&lt;/ul&gt;&lt;/ul&gt;&lt;/div&gt;&lt;div&gt;&lt;ul&gt;&lt;li&gt;Software Architecture Diagram - Functional Requirements&lt;/li&gt;&lt;ul&gt;&lt;li&gt;xxx&lt;/li&gt;&lt;li&gt;xxx&lt;/li&gt;&lt;li&gt;xxx&lt;/li&gt;&lt;/ul&gt;&lt;/ul&gt;&lt;/div&gt;&lt;br&gt;&lt;div&gt;&lt;br&gt;&lt;/div&gt;" style="rounded=0;whiteSpace=wrap;html=1;align=left;" vertex="1" parent="1">
          <mxGeometry x="5" width="495" height="640" as="geometry" />
        </mxCell>
      </root>
    </mxGraphModel>
  </diagram>
</mxfile>
